{"glyphs":{"0":{"ha":833,"x_min":96,"x_max":739,"o":"m 739 376 l 739 612 q 716 780 739 707 q 652 903 694 853 q 551 977 610 951 q 416 1002 491 1002 q 283 977 342 1002 q 182 903 224 951 q 118 780 140 853 q 96 612 96 707 l 96 376 q 118 207 96 280 q 183 85 141 134 q 284 11 224 36 q 418 -14 344 -14 q 552 11 492 -14 q 653 85 612 36 q 716 207 694 134 q 739 376 739 280 m 286 457 q 286 489 286 478 q 286 532 286 500 l 286 642 q 294 736 286 696 q 320 802 302 777 q 360 837 336 825 q 416 849 385 849 q 468 840 445 849 q 506 812 490 831 q 537 748 526 788 q 549 653 547 709 l 286 457 m 549 347 q 540 252 549 292 q 515 186 532 212 q 474 150 498 161 q 418 138 450 138 q 358 151 383 138 q 317 193 333 165 q 295 250 302 216 q 286 330 287 285 l 549 525 q 549 495 549 505 q 549 462 549 484 l 549 347 z "},"1":{"ha":833,"x_min":117,"x_max":557,"o":"m 557 0 l 557 987 l 547 987 l 117 832 l 117 668 l 367 758 l 367 0 l 557 0 z "},"2":{"ha":833,"x_min":47,"x_max":741,"o":"m 741 0 l 741 151 l 308 151 l 494 348 q 581 443 542 397 q 649 531 621 488 q 692 619 677 574 q 707 712 707 663 q 687 830 707 777 q 628 921 667 883 q 531 980 589 959 q 397 1001 473 1001 q 254 976 319 1001 q 144 906 189 950 q 73 803 98 862 q 47 679 47 745 l 237 679 q 247 750 237 719 q 277 802 257 781 q 325 833 296 823 q 391 844 353 844 q 445 834 420 844 q 486 807 469 825 q 513 763 503 789 q 522 704 522 737 q 515 658 522 682 q 492 607 508 634 q 450 546 476 579 q 387 472 425 513 l 68 129 l 68 0 l 741 0 z "},"3":{"ha":833,"x_min":65,"x_max":743,"o":"m 286 576 l 286 430 l 388 430 q 457 421 427 430 q 511 394 488 412 q 544 347 532 376 q 555 279 555 319 q 546 221 555 247 q 517 178 536 195 q 468 148 497 158 q 402 138 439 138 q 342 148 370 138 q 296 175 315 157 q 264 216 275 192 q 254 269 254 240 l 65 269 q 93 144 65 197 q 168 56 121 91 q 275 4 215 21 q 398 -14 335 -14 q 535 6 471 -14 q 644 62 598 25 q 717 153 690 99 q 743 277 743 208 q 734 351 743 316 q 705 416 724 387 q 655 469 685 446 q 583 507 625 492 q 646 547 618 524 q 691 598 673 570 q 719 657 709 626 q 728 720 728 688 q 704 841 728 789 q 637 930 680 894 q 532 983 593 965 q 398 1001 471 1001 q 272 981 330 1001 q 170 926 213 962 q 101 841 126 890 q 77 731 77 791 l 265 731 q 276 780 265 758 q 306 817 287 802 q 349 840 324 832 q 402 848 374 848 q 463 839 437 848 q 506 812 489 829 q 531 771 523 795 q 540 718 540 747 q 531 662 540 688 q 506 619 523 637 q 458 588 488 599 q 388 576 429 576 l 286 576 z "},"4":{"ha":833,"x_min":40,"x_max":761,"o":"m 646 367 l 646 987 l 455 987 l 40 332 l 47 214 l 458 214 l 458 0 l 646 0 l 646 214 l 761 214 l 761 367 l 646 367 m 225 367 l 439 701 l 458 734 l 458 367 l 225 367 z "},"5":{"ha":833,"x_min":79,"x_max":742,"o":"m 105 486 l 256 449 q 279 470 267 460 q 307 487 291 479 q 342 499 322 494 q 391 504 363 504 q 463 491 432 504 q 513 454 493 478 q 544 398 534 431 q 553 326 553 365 q 546 251 553 286 q 522 191 538 216 q 478 152 505 166 q 413 138 451 138 q 312 173 351 138 q 265 273 272 208 l 79 273 q 110 151 81 204 q 185 61 139 98 q 291 5 231 24 q 414 -14 350 -14 q 559 13 498 -14 q 662 85 621 39 q 722 190 703 130 q 742 316 742 250 q 722 456 742 394 q 663 560 701 517 q 569 626 625 603 q 441 648 513 648 q 353 635 391 648 q 293 610 314 623 l 317 827 l 709 827 l 709 987 l 161 987 l 105 486 z "},"6":{"ha":833,"x_min":71,"x_max":745,"o":"m 596 996 l 571 996 q 355 955 448 996 q 198 841 261 913 q 103 668 135 768 q 71 450 71 568 l 71 378 q 95 221 71 293 q 164 98 119 150 q 272 16 208 45 q 415 -14 336 -14 q 552 13 491 -14 q 656 84 613 39 q 722 191 699 130 q 745 325 745 253 q 727 453 745 392 q 675 559 710 513 q 587 632 640 605 q 464 659 534 659 q 399 650 429 659 q 345 629 370 642 q 298 599 319 616 q 262 566 278 583 q 292 677 269 627 q 356 764 315 728 q 453 819 396 800 q 585 839 511 839 l 596 839 l 596 996 m 409 507 q 472 493 444 507 q 518 455 499 479 q 547 396 537 430 q 557 322 557 362 q 547 249 557 282 q 518 191 537 215 q 472 152 499 166 q 412 138 445 138 q 351 152 379 138 q 303 193 323 165 q 272 260 283 219 q 260 355 260 300 l 260 410 q 284 448 270 431 q 315 477 298 465 q 358 499 334 492 q 409 507 382 507 z "},"7":{"ha":833,"x_min":47,"x_max":741,"o":"m 741 882 l 741 987 l 47 987 l 47 833 l 543 833 l 157 0 l 356 0 l 741 882 z "},"8":{"ha":833,"x_min":74,"x_max":736,"o":"m 715 725 q 692 843 715 792 q 627 930 669 895 q 528 983 585 965 q 404 1001 471 1001 q 280 983 337 1001 q 183 930 224 965 q 119 843 142 895 q 96 725 96 792 q 105 655 96 688 q 134 594 115 622 q 175 546 151 568 q 231 509 200 524 q 166 468 195 492 q 117 414 137 444 q 85 347 96 383 q 74 270 74 311 q 99 147 74 200 q 170 59 125 94 q 275 5 214 23 q 406 -14 336 -14 q 536 5 476 -14 q 642 59 597 23 q 711 147 686 94 q 736 270 736 200 q 718 368 736 323 q 667 446 700 412 q 627 480 650 465 q 580 508 605 496 q 630 542 608 522 q 670 583 653 561 q 704 649 692 613 q 715 725 715 684 m 547 283 q 537 222 547 249 q 508 176 526 195 q 463 148 489 157 q 406 138 437 138 q 349 147 374 138 q 304 174 323 156 q 274 220 285 192 q 263 283 263 248 q 273 344 263 317 q 302 391 283 371 q 346 420 320 410 q 405 430 372 430 q 464 420 437 430 q 509 391 490 410 q 537 344 527 371 q 547 283 547 317 m 528 716 q 519 662 528 686 q 495 619 511 637 q 457 592 479 602 q 406 582 435 582 q 355 592 378 582 q 317 619 332 602 q 292 662 300 637 q 284 717 284 686 q 292 771 284 747 q 315 813 300 796 q 353 839 330 830 q 404 848 375 848 q 455 839 433 848 q 494 812 478 829 q 519 770 510 795 q 528 716 528 746 z "},"9":{"ha":833,"x_min":66,"x_max":726,"o":"m 225 150 l 212 150 l 212 -8 l 227 -8 q 452 32 357 -8 q 607 145 546 73 q 697 316 668 217 q 726 533 726 415 l 726 598 q 704 760 726 686 q 638 888 681 834 q 533 971 595 941 q 394 1001 471 1001 q 257 974 318 1001 q 154 899 197 946 q 89 788 111 851 q 66 652 66 724 q 84 522 66 583 q 140 416 103 461 q 229 346 176 372 q 353 320 283 320 q 414 326 387 320 q 465 342 442 332 q 503 363 486 351 q 535 389 521 375 l 535 385 q 508 287 528 331 q 450 214 487 243 q 357 166 412 182 q 225 150 301 150 m 398 466 q 334 481 361 466 q 290 522 307 496 q 262 583 271 548 q 254 655 254 617 q 263 728 254 693 q 290 790 273 763 q 334 832 308 817 q 393 848 360 848 q 450 835 424 848 q 496 794 477 821 q 527 726 516 767 q 538 631 538 686 l 538 564 q 517 525 530 543 q 486 494 504 507 q 446 473 468 481 q 398 466 424 466 z "}," ":{"ha":833,"x_min":0,"x_max":0,"o":""},"A":{"ha":833,"x_min":19,"x_max":833,"o":"m 574 206 l 632 0 l 833 0 l 515 987 l 342 987 l 19 0 l 220 0 l 278 206 l 574 206 m 325 368 l 429 732 l 530 368 l 325 368 z "},"B":{"ha":833,"x_min":87,"x_max":799,"o":"m 87 0 l 448 0 q 594 18 529 0 q 705 73 659 37 q 774 164 750 110 q 799 290 799 218 q 789 362 799 327 q 759 427 779 397 q 710 475 739 454 q 633 510 682 496 l 633 511 q 679 534 658 520 q 715 564 699 547 q 761 633 745 593 q 777 718 776 673 q 751 838 777 787 q 679 922 726 888 q 566 971 632 955 q 419 987 500 987 l 87 987 l 87 0 m 279 435 l 456 435 q 526 425 496 435 q 573 395 555 414 q 600 351 591 377 q 608 291 608 324 q 597 233 608 259 q 564 189 586 208 q 515 163 545 173 q 448 154 486 154 l 279 154 l 279 435 m 279 573 l 279 832 l 420 832 q 500 822 466 831 q 555 791 534 812 q 578 754 570 777 q 586 702 586 732 q 577 651 586 673 q 551 613 568 629 q 497 584 530 593 q 420 573 464 574 l 279 573 z "},"C":{"ha":833,"x_min":54,"x_max":775,"o":"m 774 309 l 584 309 q 569 233 581 264 q 536 180 557 201 q 485 151 515 160 q 418 141 455 141 q 367 148 390 141 q 326 168 345 154 q 296 198 309 180 q 273 240 283 216 q 253 321 260 275 q 247 427 247 368 l 247 561 q 251 642 247 604 q 264 711 255 680 q 295 781 275 751 q 342 827 314 811 q 377 842 358 837 q 419 846 397 846 q 491 835 461 846 q 542 802 522 824 q 572 747 562 780 q 585 669 583 713 l 775 669 q 743 808 768 747 q 672 913 717 870 q 564 979 627 956 q 419 1002 500 1002 q 316 988 364 1002 q 229 948 269 974 q 149 873 184 918 q 92 773 113 829 q 63 673 73 727 q 54 559 54 619 l 54 427 q 64 306 54 363 q 94 201 75 249 q 144 115 115 154 q 212 47 174 75 q 305 2 253 18 q 418 -14 357 -14 q 559 8 495 -14 q 669 73 623 31 q 742 175 715 115 q 774 309 770 235 z "},"D":{"ha":833,"x_min":85,"x_max":773,"o":"m 85 0 l 350 0 q 474 16 416 0 q 580 63 532 33 q 656 127 621 89 q 716 211 690 165 q 758 323 743 262 q 773 452 773 384 l 773 534 q 757 668 773 605 q 712 783 741 731 q 653 862 687 826 q 577 924 620 899 q 469 971 528 954 q 340 987 409 987 l 85 987 l 85 0 m 277 833 l 340 833 q 405 825 375 833 q 458 803 434 817 q 514 754 490 784 q 553 686 538 724 q 572 616 566 654 q 578 535 578 578 l 578 452 q 572 368 578 407 q 553 297 566 329 q 518 233 538 260 q 471 188 497 205 q 416 162 446 171 q 350 153 385 153 l 277 153 l 277 833 z "},"E":{"ha":833,"x_min":100,"x_max":765,"o":"m 696 433 l 696 583 l 291 583 l 291 832 l 763 832 l 763 987 l 100 987 l 100 0 l 765 0 l 765 154 l 291 154 l 291 433 l 696 433 z "},"F":{"ha":833,"x_min":101,"x_max":768,"o":"m 715 409 l 715 564 l 292 564 l 292 832 l 768 832 l 768 987 l 101 987 l 101 0 l 292 0 l 292 409 l 715 409 z "},"G":{"ha":833,"x_min":59,"x_max":768,"o":"m 768 115 l 767 505 l 414 505 l 414 362 l 577 362 l 576 183 q 554 166 569 174 q 521 153 540 159 q 480 143 502 146 q 436 140 458 140 q 371 152 399 140 q 320 184 342 163 q 297 214 307 197 q 278 250 286 231 q 258 328 265 284 q 251 426 251 372 l 251 562 q 256 641 251 604 q 271 707 261 677 q 301 774 283 746 q 343 821 320 803 q 381 840 361 833 q 423 847 401 847 q 492 837 463 847 q 540 805 521 826 q 567 758 557 786 q 581 694 576 730 l 767 694 q 735 823 760 766 q 669 920 711 880 q 564 980 626 959 q 418 1001 502 1001 q 315 986 364 1001 q 225 942 267 971 q 160 881 190 916 q 109 802 131 846 q 72 691 85 752 q 59 560 59 631 l 59 426 q 72 289 59 352 q 111 176 85 226 q 166 95 134 130 q 237 35 198 60 q 325 -1 277 12 q 427 -14 373 -14 q 544 -2 490 -14 q 642 28 598 9 q 718 70 686 47 q 768 115 749 93 z "},"H":{"ha":833,"x_min":83,"x_max":741,"o":"m 741 0 l 741 987 l 552 987 l 552 583 l 273 583 l 273 987 l 83 987 l 83 0 l 273 0 l 273 428 l 552 428 l 552 0 l 741 0 z "},"I":{"ha":833,"x_min":131,"x_max":702,"o":"m 131 987 l 131 833 l 319 833 l 319 153 l 131 153 l 131 0 l 702 0 l 702 153 l 509 153 l 509 833 l 702 833 l 702 987 l 131 987 z "},"J":{"ha":833,"x_min":75,"x_max":746,"o":"m 555 987 l 555 303 q 544 238 555 269 q 515 186 534 208 q 469 152 496 165 q 409 140 441 140 q 340 151 368 140 q 294 184 311 161 q 273 229 280 202 q 267 290 267 255 l 75 290 q 100 157 76 214 q 169 62 125 100 q 273 5 212 24 q 409 -14 334 -14 q 541 9 479 -14 q 648 75 602 33 q 719 175 693 117 q 746 303 745 233 l 745 987 l 555 987 z "},"K":{"ha":833,"x_min":87,"x_max":854,"o":"m 383 406 l 627 0 l 854 0 l 509 551 l 842 987 l 608 987 l 368 656 l 279 535 l 279 987 l 87 987 l 87 0 l 279 0 l 279 291 l 383 406 z "},"L":{"ha":833,"x_min":102,"x_max":755,"o":"m 293 154 l 293 987 l 102 987 l 102 0 l 755 0 l 755 154 l 293 154 z "},"M":{"ha":833,"x_min":86,"x_max":760,"o":"m 323 987 l 86 987 l 86 0 l 261 0 l 261 292 l 253 736 l 369 326 l 463 326 l 593 754 l 585 292 l 585 0 l 760 0 l 760 987 l 523 987 l 416 616 l 323 987 z "},"N":{"ha":833,"x_min":83,"x_max":740,"o":"m 740 0 l 740 987 l 549 987 l 548 353 l 275 987 l 83 987 l 83 0 l 275 0 l 275 637 l 550 0 l 740 0 z "},"O":{"ha":833,"x_min":54,"x_max":778,"o":"m 778 421 l 778 565 q 765 692 778 632 q 729 802 753 751 q 677 882 707 846 q 607 945 647 919 q 517 986 567 972 q 410 1001 467 1001 q 306 987 354 1001 q 219 946 258 972 q 150 881 180 919 q 98 796 119 843 q 65 688 77 747 q 54 565 54 630 l 54 421 q 64 305 54 360 q 93 203 74 250 q 145 112 114 153 q 216 43 176 72 q 304 1 256 16 q 411 -14 353 -14 q 512 0 465 -14 q 599 37 559 13 q 676 104 642 64 q 733 194 710 145 q 766 300 755 243 q 778 421 778 357 m 585 566 l 585 421 q 581 351 585 385 q 570 288 577 317 q 544 223 560 252 q 505 175 528 194 q 463 151 487 159 q 411 143 439 143 q 358 152 381 143 q 316 177 334 161 q 282 225 296 195 q 260 290 267 254 q 250 352 253 319 q 248 421 248 385 l 248 566 q 251 639 248 604 q 260 703 254 673 q 285 769 269 741 q 324 817 301 798 q 362 836 341 829 q 410 843 384 843 q 461 836 438 843 q 502 814 484 828 q 542 767 525 796 q 569 702 559 739 q 581 638 577 673 q 585 566 585 604 z "},"P":{"ha":833,"x_min":101,"x_max":791,"o":"m 292 362 l 439 362 q 585 385 519 362 q 696 450 650 408 q 766 547 741 490 q 791 669 791 603 q 766 799 791 741 q 696 899 741 857 q 585 964 650 941 q 439 987 519 987 l 101 987 l 101 0 l 292 0 l 292 362 m 292 517 l 292 833 l 439 833 q 509 820 479 833 q 559 785 539 807 q 589 732 579 762 q 599 668 599 703 q 589 611 599 638 q 559 562 579 583 q 509 529 539 541 q 439 517 479 517 l 292 517 z "},"Q":{"ha":833,"x_min":58,"x_max":825,"o":"m 784 391 l 784 562 q 777 662 784 614 q 754 752 769 710 q 699 860 734 812 q 616 941 663 908 q 524 985 575 970 q 415 1001 473 1001 q 307 985 357 1001 q 218 941 258 970 q 142 866 174 910 q 91 766 110 821 q 66 670 75 722 q 58 562 58 618 l 58 391 q 66 296 58 342 q 92 208 75 250 q 142 119 111 161 q 214 48 173 78 q 305 3 255 19 q 415 -14 355 -14 q 466 -10 441 -14 q 515 -1 491 -7 l 703 -174 l 825 -65 l 662 83 q 709 138 688 108 q 745 201 730 168 q 773 292 764 244 q 784 391 783 340 m 591 564 l 591 391 q 587 337 591 364 q 577 286 584 311 q 551 223 568 252 q 511 174 534 194 q 468 152 492 160 q 415 143 444 143 q 364 151 387 143 q 324 174 341 159 q 285 224 300 194 q 261 290 269 254 q 253 340 256 314 q 251 391 251 366 l 251 564 q 253 622 251 594 q 259 675 255 650 q 281 754 266 719 q 322 811 296 789 q 363 835 340 827 q 415 843 386 843 q 470 834 446 843 q 514 810 495 825 q 549 765 534 791 q 573 707 565 739 q 587 640 583 677 q 591 564 591 604 z "},"R":{"ha":833,"x_min":89,"x_max":814,"o":"m 424 369 l 610 0 l 814 0 l 814 9 l 602 416 q 675 460 642 435 q 732 519 708 485 q 767 594 755 552 q 780 690 780 637 q 754 819 780 763 q 682 911 729 874 q 568 968 635 949 q 420 987 502 987 l 89 987 l 89 0 l 279 0 l 279 369 l 424 369 m 279 524 l 279 833 l 420 833 q 490 823 459 833 q 541 796 520 814 q 577 746 565 777 q 589 677 589 716 q 579 618 589 644 q 553 572 570 591 q 498 536 532 549 q 420 524 465 524 l 279 524 z "},"S":{"ha":833,"x_min":60,"x_max":789,"o":"m 602 258 q 591 209 602 231 q 559 172 580 187 q 510 147 539 156 q 442 138 480 138 q 364 148 399 138 q 303 178 328 157 q 263 230 277 198 q 248 307 249 262 l 60 307 q 90 173 60 230 q 170 74 119 116 q 296 9 224 31 q 442 -13 368 -13 q 581 5 517 -13 q 691 58 645 23 q 763 143 737 93 q 789 259 789 194 q 755 392 789 334 q 662 493 720 450 q 577 540 623 519 q 480 574 531 560 q 395 602 433 587 q 331 635 357 617 q 291 675 304 653 q 277 726 277 698 q 287 775 277 752 q 318 814 298 798 q 368 840 338 831 q 435 849 397 849 q 508 838 477 849 q 559 807 538 827 q 590 759 580 787 q 602 698 601 731 l 788 698 q 762 820 788 764 q 690 916 736 876 q 580 979 644 956 q 439 1001 516 1001 q 300 982 364 1001 q 190 926 237 962 q 117 840 143 890 q 90 726 90 789 q 110 626 90 672 q 170 542 130 580 q 271 472 209 504 q 415 418 333 440 q 504 387 468 404 q 562 351 539 370 q 592 307 583 330 q 602 258 602 284 z "},"T":{"ha":833,"x_min":18,"x_max":814,"o":"m 814 832 l 814 987 l 18 987 l 18 832 l 319 832 l 319 0 l 510 0 l 510 832 l 814 832 z "},"U":{"ha":833,"x_min":85,"x_max":747,"o":"m 747 987 l 557 987 l 557 333 q 547 248 556 285 q 518 187 537 212 q 474 152 500 163 q 412 140 447 140 q 356 151 380 140 q 315 184 332 162 q 287 246 296 209 q 277 333 278 283 l 277 987 l 86 987 l 85 333 q 109 185 85 250 q 175 77 132 121 q 278 9 218 33 q 412 -14 338 -14 q 554 9 492 -14 q 659 77 616 33 q 725 186 702 121 q 747 333 747 250 l 747 987 z "},"V":{"ha":833,"x_min":21,"x_max":812,"o":"m 319 0 l 513 0 l 812 987 l 602 987 l 434 343 l 416 276 l 399 342 l 231 987 l 21 987 l 319 0 z "},"W":{"ha":833,"x_min":18,"x_max":819,"o":"m 153 0 l 326 0 l 408 533 l 416 583 l 423 533 l 509 0 l 682 0 l 819 987 l 644 987 l 576 434 l 572 393 l 566 433 l 483 987 l 347 987 l 269 437 l 262 397 l 258 435 l 192 987 l 18 987 l 153 0 z "},"X":{"ha":833,"x_min":20,"x_max":829,"o":"m 423 633 l 250 987 l 28 987 l 305 498 l 20 0 l 245 0 l 426 359 l 607 0 l 829 0 l 545 498 l 823 987 l 599 987 l 423 633 z "},"Y":{"ha":833,"x_min":22,"x_max":830,"o":"m 426 532 l 231 987 l 22 987 l 328 350 l 329 0 l 519 0 l 519 342 l 830 987 l 621 987 l 426 532 z "},"Z":{"ha":833,"x_min":60,"x_max":782,"o":"m 292 154 l 770 874 l 770 987 l 62 987 l 62 832 l 539 832 l 60 117 l 60 0 l 782 0 l 782 154 l 292 154 z "},"a":{"ha":833,"x_min":78,"x_max":745,"o":"m 554 0 l 745 0 l 745 12 q 724 78 731 39 q 716 176 716 117 l 716 490 q 692 603 716 554 q 627 683 669 651 q 527 731 585 715 q 404 747 470 747 q 272 729 330 747 q 176 678 215 710 q 115 604 136 646 q 94 515 94 562 l 283 515 q 289 551 283 535 q 307 579 294 568 q 342 599 320 592 q 393 606 363 606 q 453 598 427 606 q 495 574 478 589 q 519 538 511 559 q 528 492 528 517 l 528 448 l 422 448 q 278 434 341 448 q 173 391 216 419 q 102 314 125 361 q 78 205 78 267 q 97 118 78 158 q 150 48 116 77 q 231 3 184 19 q 334 -14 278 -14 q 399 -7 369 -14 q 454 11 429 -1 q 498 37 478 22 q 534 68 519 52 q 543 31 538 49 q 554 0 547 14 m 374 132 q 328 139 348 132 q 294 156 308 145 q 274 184 281 168 q 267 220 267 201 q 276 267 267 245 q 305 304 286 288 q 356 327 325 319 q 431 336 387 336 l 528 336 l 528 210 q 505 181 519 195 q 471 157 491 168 q 427 139 452 146 q 374 132 403 132 z "},"b":{"ha":833,"x_min":100,"x_max":757,"o":"m 757 359 l 757 374 q 745 498 757 440 q 709 604 733 557 q 673 657 693 633 q 627 700 652 682 q 556 735 596 723 q 469 747 517 747 q 405 740 435 747 q 351 719 376 733 q 317 696 333 709 q 288 667 302 683 l 288 1042 l 100 1042 l 100 0 l 269 0 l 278 78 q 302 51 290 63 q 330 28 315 38 q 393 -3 358 7 q 471 -14 428 -14 q 556 -2 517 -14 q 627 33 595 10 q 687 92 661 56 q 728 172 712 128 q 749 259 742 212 q 757 359 757 307 m 568 374 l 568 359 q 566 304 568 331 q 558 256 564 278 q 538 201 551 225 q 504 162 525 177 q 469 145 489 151 q 423 139 448 139 q 371 146 394 139 q 332 165 349 153 q 307 190 317 176 q 288 220 296 203 l 288 513 q 302 537 294 526 q 318 557 309 548 q 362 585 336 575 q 422 594 388 594 q 467 588 447 594 q 502 571 486 583 q 537 531 526 553 q 557 481 549 509 q 566 430 563 457 q 568 374 568 403 z "},"c":{"ha":833,"x_min":79,"x_max":735,"o":"m 420 137 q 346 155 375 137 q 299 204 316 174 q 275 274 281 234 q 268 356 268 313 l 268 376 q 275 458 268 418 q 300 528 282 497 q 346 576 317 558 q 420 595 375 595 q 476 584 450 595 q 520 556 502 574 q 548 514 538 538 q 556 463 557 490 l 734 463 q 712 580 735 528 q 648 670 689 633 q 548 727 606 707 q 422 747 490 747 q 274 718 338 747 q 166 639 210 689 q 101 521 123 589 q 79 376 79 454 l 79 356 q 101 211 79 279 q 167 94 123 144 q 274 15 210 43 q 424 -14 338 -14 q 544 6 487 -14 q 643 61 600 26 q 710 145 686 96 q 734 251 735 194 l 556 251 q 547 204 557 225 q 517 168 536 183 q 473 145 498 153 q 420 137 448 137 z "},"d":{"ha":833,"x_min":76,"x_max":732,"o":"m 76 372 l 76 358 q 96 210 76 278 q 153 92 115 142 q 242 15 189 43 q 363 -14 296 -14 q 471 10 425 -14 q 553 77 518 34 l 562 0 l 732 0 l 732 1042 l 543 1042 l 543 668 q 466 727 509 706 q 364 747 422 747 q 242 720 296 747 q 152 644 189 693 q 95 525 115 594 q 76 372 76 456 m 264 358 l 264 372 q 273 459 264 418 q 298 530 281 499 q 344 577 316 559 q 412 594 372 594 q 492 573 460 594 q 543 515 524 553 l 543 218 q 492 161 524 182 q 411 140 460 140 q 343 157 371 140 q 298 203 315 174 q 272 272 280 233 q 264 358 264 312 z "},"e":{"ha":833,"x_min":76,"x_max":765,"o":"m 452 -14 q 636 28 558 -14 q 750 120 714 69 l 656 222 q 571 159 623 180 q 463 138 519 138 q 391 150 424 138 q 332 184 357 162 q 292 233 307 206 q 267 304 277 260 l 267 306 l 765 306 l 765 386 q 743 533 765 467 q 677 648 720 600 q 572 721 634 695 q 431 747 510 747 q 289 720 354 747 q 176 642 224 692 q 102 522 129 591 q 76 368 76 452 l 76 341 q 103 202 76 267 q 179 90 130 138 q 298 14 229 42 q 452 -14 367 -14 m 429 595 q 493 584 465 595 q 539 553 520 572 q 569 507 558 534 q 580 451 580 481 l 580 436 l 271 436 q 291 501 277 472 q 325 551 304 530 q 371 584 345 572 q 429 595 397 595 z "},"f":{"ha":833,"x_min":85,"x_max":783,"o":"m 278 0 l 467 0 l 467 595 l 732 595 l 732 734 l 467 734 l 467 774 q 476 832 467 806 q 502 876 484 858 q 555 907 522 897 q 635 918 588 918 q 712 914 680 918 q 770 905 745 910 l 783 1053 q 738 1060 760 1057 q 696 1066 717 1063 q 653 1070 675 1069 q 607 1072 631 1072 q 471 1053 532 1072 q 367 996 410 1034 q 301 902 324 958 q 278 774 278 846 l 278 734 l 85 734 l 85 595 l 278 595 l 278 0 z "},"g":{"ha":833,"x_min":77,"x_max":743,"o":"m 77 372 l 77 358 q 97 210 77 278 q 157 92 118 142 q 250 15 195 43 q 373 -14 304 -14 q 438 -6 408 -14 q 493 15 468 1 q 525 37 510 24 q 553 64 540 49 l 553 22 q 543 -45 553 -16 q 513 -96 532 -75 q 459 -130 491 -118 q 385 -141 427 -141 q 335 -136 359 -141 q 289 -121 311 -131 q 245 -95 266 -111 q 205 -58 224 -79 l 121 -172 q 178 -225 144 -203 q 248 -261 211 -247 q 323 -282 286 -275 q 395 -289 361 -289 q 536 -268 472 -289 q 646 -208 600 -248 q 717 -109 692 -168 q 743 24 743 -51 l 743 734 l 571 734 l 564 664 q 534 695 550 681 q 498 719 517 709 q 443 740 473 733 q 374 747 412 747 q 250 720 305 747 q 157 644 195 693 q 97 525 118 594 q 77 372 77 456 m 266 358 l 266 372 q 275 459 266 418 q 304 530 285 499 q 353 577 323 559 q 422 594 382 594 q 462 590 444 594 q 496 578 481 586 q 529 555 515 570 q 553 522 543 541 l 553 212 q 531 181 544 195 q 501 158 518 168 q 465 144 485 149 q 420 140 445 140 q 351 157 380 140 q 303 203 322 174 q 275 272 284 233 q 266 358 266 312 z "},"h":{"ha":833,"x_min":96,"x_max":753,"o":"m 284 633 l 284 1042 l 96 1042 l 96 0 l 284 0 l 284 530 q 308 555 295 544 q 338 575 321 567 q 377 589 355 585 q 424 594 399 594 q 482 586 456 594 q 526 559 508 577 q 554 513 545 542 q 564 446 564 485 l 564 0 l 753 0 l 753 444 q 733 582 753 525 q 680 676 714 640 q 597 730 645 713 q 491 747 549 747 q 416 736 452 747 q 352 703 381 724 q 316 672 333 690 q 284 633 298 654 z "},"i":{"ha":833,"x_min":146,"x_max":744,"o":"m 146 734 l 146 580 l 355 580 l 355 153 l 146 153 l 146 0 l 744 0 l 744 153 l 545 153 l 545 734 l 146 734 m 341 922 q 349 881 341 900 q 371 850 357 863 q 405 829 385 836 q 450 821 425 821 q 529 849 500 821 q 559 922 559 878 q 529 994 559 966 q 450 1022 500 1022 q 405 1015 425 1022 q 371 994 385 1007 q 349 962 357 981 q 341 922 341 943 z "},"j":{"ha":833,"x_min":151,"x_max":597,"o":"m 208 734 l 208 580 l 393 580 l 393 -17 q 383 -76 393 -52 q 356 -113 373 -99 q 314 -134 338 -127 q 263 -140 290 -140 q 242 -139 256 -140 q 214 -138 229 -139 q 183 -135 198 -137 q 161 -132 169 -134 l 151 -285 q 176 -290 163 -288 q 201 -293 189 -292 q 237 -296 219 -295 q 273 -296 255 -296 q 404 -280 347 -296 q 502 -229 462 -264 q 563 -143 542 -195 q 584 -17 584 -90 l 584 734 l 208 734 m 380 922 q 410 850 380 878 q 488 821 439 821 q 568 849 538 821 q 597 922 597 878 q 568 994 597 966 q 488 1022 538 1022 q 409 993 438 1022 q 380 922 380 964 z "},"k":{"ha":833,"x_min":98,"x_max":811,"o":"m 372 303 l 580 0 l 811 0 l 496 428 l 772 734 l 546 734 l 343 511 l 286 446 l 286 1042 l 98 1042 l 98 0 l 286 0 l 286 224 l 372 303 z "},"l":{"ha":833,"x_min":135,"x_max":755,"o":"m 135 1042 l 135 888 l 355 888 l 355 153 l 135 153 l 135 0 l 755 0 l 755 153 l 545 153 l 545 1042 l 135 1042 z "},"m":{"ha":833,"x_min":51,"x_max":776,"o":"m 213 734 l 51 734 l 51 0 l 222 0 l 222 549 q 230 566 226 558 q 239 578 234 573 q 256 590 247 586 q 278 594 266 594 q 298 591 289 594 q 315 581 308 588 q 326 559 322 573 q 330 525 330 546 l 330 0 l 496 0 l 496 541 q 496 554 496 549 q 496 560 496 559 q 505 573 500 568 q 515 584 509 579 q 531 591 523 589 q 551 594 540 594 q 571 591 561 594 q 588 581 581 588 q 600 559 595 572 q 604 524 604 545 l 604 0 l 776 0 l 776 524 q 764 627 776 585 q 731 696 752 669 q 681 735 709 723 q 618 747 652 747 q 570 741 592 747 q 530 722 547 734 q 504 699 515 712 q 482 669 492 686 q 468 700 476 686 q 448 722 459 713 q 412 741 433 735 q 366 747 392 747 q 276 720 313 747 q 218 645 239 692 l 213 734 z "},"n":{"ha":833,"x_min":96,"x_max":751,"o":"m 96 0 l 285 0 l 285 522 q 306 549 294 536 q 332 570 317 561 q 372 588 349 582 q 422 594 395 594 q 480 588 454 594 q 524 565 506 581 q 552 520 543 549 q 562 449 562 492 l 562 0 l 751 0 l 751 452 q 732 588 751 532 q 680 680 713 644 q 600 731 646 715 q 498 747 554 747 q 416 735 455 747 q 345 700 378 723 q 309 669 326 686 q 278 632 292 652 l 267 734 l 96 734 l 96 0 z "},"o":{"ha":833,"x_min":70,"x_max":762,"o":"m 70 374 l 70 359 q 93 211 70 279 q 161 92 116 142 q 270 14 205 42 q 417 -14 334 -14 q 564 14 499 -14 q 672 92 628 42 q 739 211 716 142 q 762 359 762 279 l 762 374 q 739 522 762 454 q 672 640 716 590 q 563 719 627 690 q 416 747 498 747 q 269 719 333 747 q 161 640 205 690 q 93 522 116 590 q 70 374 70 454 m 258 359 l 258 374 q 267 458 258 418 q 295 529 276 498 q 344 577 314 559 q 416 595 374 595 q 488 577 458 595 q 537 529 518 559 q 564 458 555 498 q 573 374 573 418 l 573 359 q 564 273 573 313 q 537 203 555 233 q 488 155 518 172 q 417 137 458 137 q 344 155 374 137 q 295 203 314 172 q 267 273 276 233 q 258 359 258 313 z "},"p":{"ha":833,"x_min":98,"x_max":755,"o":"m 98 -282 l 287 -282 l 287 64 q 314 38 300 50 q 344 17 328 26 q 401 -6 370 2 q 469 -14 432 -14 q 591 15 538 -14 q 682 94 645 43 q 736 212 718 143 q 755 360 755 280 l 755 374 q 736 527 755 458 q 681 645 718 595 q 591 721 644 694 q 467 747 537 747 q 404 740 433 747 q 350 720 374 733 q 312 695 330 709 q 279 662 294 680 l 273 734 l 98 734 l 98 -282 m 566 374 l 566 360 q 558 274 566 315 q 532 203 550 234 q 487 155 515 173 q 418 138 458 138 q 373 143 393 138 q 337 157 353 148 q 308 182 321 168 q 287 214 296 196 l 287 520 q 310 553 296 539 q 340 577 323 568 q 375 590 356 585 q 417 594 394 594 q 485 577 457 594 q 532 531 513 560 q 558 461 549 501 q 566 374 566 420 z "},"q":{"ha":833,"x_min":77,"x_max":733,"o":"m 77 373 l 77 359 q 96 211 77 279 q 152 93 115 142 q 242 15 189 43 q 365 -14 296 -14 q 426 -7 397 -14 q 477 11 454 -1 q 513 33 496 20 q 544 62 530 46 l 544 -282 l 733 -282 l 733 734 l 567 734 l 555 659 q 525 691 541 677 q 490 716 509 705 q 434 739 465 731 q 366 747 403 747 q 242 720 296 747 q 152 644 189 693 q 96 526 115 595 q 77 373 77 456 m 265 359 l 265 373 q 274 460 265 420 q 300 530 282 500 q 346 577 318 560 q 414 595 374 595 q 458 590 438 595 q 494 576 478 585 q 522 554 510 567 q 544 524 534 541 l 544 212 q 522 180 534 194 q 494 157 510 166 q 457 143 477 148 q 413 138 437 138 q 345 155 373 138 q 299 203 317 173 q 273 273 281 233 q 265 359 265 313 z "},"r":{"ha":833,"x_min":195,"x_max":760,"o":"m 623 747 q 486 712 549 747 q 379 614 424 676 l 378 630 l 370 734 l 195 734 l 195 0 l 383 0 l 383 441 q 416 495 396 472 q 463 533 435 518 q 516 552 486 546 q 582 559 545 559 q 656 554 617 559 q 732 541 695 550 l 760 729 q 702 742 738 736 q 623 747 665 747 z "},"s":{"ha":833,"x_min":83,"x_max":752,"o":"m 569 201 q 561 170 569 184 q 535 145 552 156 q 490 128 517 134 q 426 121 463 121 q 367 127 395 121 q 315 147 338 134 q 279 181 293 160 q 262 233 264 203 l 83 233 q 105 143 83 188 q 170 64 127 99 q 276 7 212 29 q 422 -14 339 -14 q 558 2 497 -14 q 663 49 619 19 q 729 120 705 79 q 752 210 752 161 q 729 301 752 262 q 664 366 705 339 q 566 410 623 393 q 442 437 509 427 q 366 453 396 444 q 319 474 336 463 q 295 499 302 485 q 288 529 288 513 q 296 560 288 545 q 319 585 304 574 q 361 604 335 597 q 421 611 387 611 q 491 601 462 611 q 536 574 519 591 q 555 545 549 561 q 561 511 561 529 l 749 511 q 727 605 749 562 q 663 680 705 648 q 559 729 620 711 q 421 747 498 747 q 290 729 348 747 q 191 680 231 711 q 128 607 150 648 q 106 520 106 566 q 128 437 106 473 q 187 374 149 401 q 278 327 225 347 q 396 295 332 308 q 480 276 447 286 q 534 256 513 267 q 561 231 553 244 q 569 201 569 218 z "},"t":{"ha":833,"x_min":85,"x_max":747,"o":"m 441 913 l 253 913 l 253 734 l 85 734 l 85 595 l 253 595 l 253 261 q 272 137 253 189 q 326 52 291 85 q 410 2 361 18 q 519 -14 459 -14 q 583 -11 551 -14 q 645 -3 615 -8 q 701 11 675 3 q 747 31 728 20 l 729 161 q 698 154 716 157 q 660 148 680 151 q 616 142 639 144 q 572 140 593 140 q 518 147 542 140 q 477 170 494 154 q 451 213 460 186 q 441 279 441 239 l 441 595 l 715 595 l 715 734 l 441 734 l 441 913 z "},"u":{"ha":833,"x_min":102,"x_max":745,"o":"m 574 0 l 745 0 l 745 734 l 556 734 l 556 219 q 535 187 547 201 q 507 163 523 173 q 465 145 489 151 q 411 139 441 139 q 355 147 378 139 q 317 174 332 155 q 297 223 303 193 q 290 298 290 254 l 290 734 l 102 734 l 102 300 q 120 157 102 216 q 173 60 139 98 q 254 3 207 21 q 359 -14 302 -14 q 474 17 421 -14 q 564 103 526 48 l 574 0 z "},"v":{"ha":833,"x_min":49,"x_max":785,"o":"m 329 0 l 506 0 l 785 734 l 588 734 l 427 216 l 417 165 l 407 216 l 245 734 l 49 734 l 329 0 z "},"w":{"ha":833,"x_min":18,"x_max":802,"o":"m 150 0 l 315 0 l 393 392 l 408 467 l 424 392 l 505 0 l 670 0 l 802 734 l 629 734 l 574 301 l 565 230 l 552 300 l 473 734 l 347 734 l 267 298 l 254 228 l 245 298 l 191 734 l 18 734 l 150 0 z "},"x":{"ha":833,"x_min":60,"x_max":804,"o":"m 431 505 l 273 734 l 70 734 l 315 374 l 60 0 l 264 0 l 432 240 l 601 0 l 804 0 l 549 374 l 795 734 l 593 734 l 431 505 z "},"y":{"ha":833,"x_min":35,"x_max":833,"o":"m 212 -296 q 310 -277 269 -296 q 381 -231 352 -258 q 430 -170 410 -203 q 461 -110 449 -138 l 833 734 l 625 734 l 458 302 l 430 229 l 410 304 l 241 734 l 35 734 l 346 31 l 302 -50 q 289 -73 294 -64 q 271 -97 283 -81 q 241 -127 258 -113 q 201 -141 224 -141 q 173 -140 191 -141 q 143 -139 155 -139 l 120 -283 q 164 -293 144 -290 q 212 -296 184 -296 z "},"z":{"ha":833,"x_min":80,"x_max":770,"o":"m 338 151 l 753 621 l 753 734 l 90 734 l 90 581 l 491 581 l 80 117 l 80 0 l 770 0 l 770 151 l 338 151 z "},"¹":{"ha":833,"x_min":267,"x_max":532,"o":"m 532 447 l 532 980 l 519 980 l 267 899 l 267 793 l 397 822 l 397 447 l 532 447 z "},"²":{"ha":833,"x_min":202,"x_max":633,"o":"m 633 452 l 633 560 l 393 560 l 472 623 q 536 677 509 652 q 581 725 563 701 q 609 773 600 749 q 618 827 618 798 q 607 891 618 863 q 575 941 596 920 q 507 981 549 967 q 409 995 465 995 q 323 980 361 995 q 258 941 285 966 q 216 881 231 915 q 202 810 202 848 l 338 810 q 343 838 338 825 q 357 862 347 852 q 381 879 366 873 q 415 886 395 886 q 444 881 431 886 q 465 869 456 877 q 477 851 473 862 q 481 827 481 840 q 476 804 481 817 q 459 774 471 790 q 438 748 450 762 q 409 719 426 734 l 214 543 l 214 452 l 633 452 z "},"³":{"ha":833,"x_min":199,"x_max":633,"o":"m 349 770 l 349 678 l 409 678 q 446 675 429 678 q 473 664 463 671 q 491 644 485 656 q 496 614 496 632 q 492 591 496 602 q 480 572 488 581 q 455 558 471 564 q 418 553 440 553 q 382 558 398 553 q 355 572 366 563 q 341 589 346 579 q 336 610 336 600 l 199 610 q 218 533 199 565 q 267 482 237 502 q 335 453 297 462 q 410 444 372 444 q 498 455 458 444 q 570 486 539 465 q 616 534 600 505 q 633 602 633 564 q 626 651 633 629 q 604 687 618 672 q 572 710 591 701 q 532 726 554 720 q 565 742 550 732 q 591 762 580 751 q 615 797 607 777 q 623 841 623 817 q 608 907 623 878 q 564 956 592 936 q 497 984 536 975 q 410 994 458 994 q 333 984 370 994 q 269 956 296 975 q 224 907 241 936 q 208 842 208 879 l 344 842 q 350 861 344 852 q 366 874 355 869 q 388 882 375 880 q 414 885 400 885 q 449 880 435 885 q 471 868 463 876 q 484 850 479 860 q 488 831 488 841 q 482 804 488 816 q 465 783 477 791 q 441 773 455 777 q 409 770 427 770 l 349 770 z "},"ª":{"ha":833,"x_min":185,"x_max":639,"o":"m 519 478 l 639 478 q 625 538 629 508 q 621 601 621 568 l 621 814 q 607 896 621 861 q 567 954 593 930 q 504 989 541 977 q 424 1001 468 1001 q 337 989 376 1001 q 271 956 298 977 q 228 906 243 935 q 213 843 213 878 l 330 833 q 335 858 330 847 q 348 878 339 869 q 379 895 359 889 q 424 901 398 901 q 459 895 444 901 q 484 878 474 889 q 498 851 493 867 q 503 814 503 836 l 503 780 l 410 780 q 315 770 356 780 q 245 742 273 760 q 200 692 216 722 q 185 623 185 662 q 196 559 185 588 q 229 511 208 531 q 282 479 250 490 q 354 469 313 469 q 406 475 382 469 q 449 491 430 481 q 481 514 467 501 q 505 542 495 528 q 510 509 507 525 q 519 478 514 493 m 383 566 q 346 571 361 566 q 321 584 330 575 q 308 602 312 591 q 304 626 304 612 q 311 654 304 641 q 331 678 317 668 q 364 694 345 688 q 410 701 384 701 l 503 701 l 503 631 q 485 608 497 619 q 456 587 472 596 q 420 572 439 578 q 383 566 401 566 z "},"º":{"ha":833,"x_min":180,"x_max":650,"o":"m 180 774 l 180 694 q 197 603 180 645 q 244 532 214 562 q 318 485 275 502 q 416 468 362 468 q 514 485 471 468 q 588 532 557 502 q 634 603 618 562 q 650 694 650 645 l 650 774 q 634 865 650 823 q 587 937 618 907 q 513 984 557 967 q 416 1001 470 1001 q 317 984 361 1001 q 243 937 274 967 q 197 865 213 907 q 180 774 180 823 m 299 694 l 299 774 q 306 824 299 801 q 328 864 313 847 q 364 891 342 881 q 415 901 386 901 q 466 891 444 901 q 503 864 488 881 q 525 824 517 847 q 532 774 532 801 l 532 694 q 525 644 532 667 q 503 604 517 621 q 467 576 489 586 q 416 567 446 567 q 365 576 387 567 q 328 604 342 586 q 306 644 313 621 q 299 694 299 667 z "},"½":{"ha":833,"x_min":16,"x_max":819,"o":"m 254 510 l 254 989 l 243 989 l 16 916 l 16 821 l 133 848 l 133 510 l 254 510 m 819 0 l 819 97 l 602 97 l 673 154 q 730 202 706 180 q 771 245 755 224 q 796 289 788 267 q 804 338 804 311 q 793 399 804 372 q 760 445 782 426 q 700 477 736 467 q 616 488 663 488 q 539 475 573 488 q 480 439 505 462 q 443 386 456 416 q 430 321 430 356 l 553 321 q 556 346 553 334 q 567 366 559 357 q 589 384 576 377 q 622 390 603 390 q 650 386 638 390 q 669 372 662 381 q 678 356 675 366 q 681 337 681 347 q 676 316 681 328 q 662 290 672 304 q 643 266 654 278 q 616 240 631 254 l 441 82 l 441 0 l 819 0 m 241 159 l 588 795 l 499 841 l 153 205 l 241 159 z "},"¼":{"ha":833,"x_min":44,"x_max":793,"o":"m 282 509 l 282 989 l 271 989 l 44 916 l 44 821 l 161 847 l 161 509 l 282 509 m 738 197 l 738 481 l 615 481 l 397 178 l 404 98 l 614 98 l 614 0 l 738 0 l 738 98 l 793 98 l 793 197 l 738 197 m 514 197 l 607 317 l 614 328 l 614 197 l 514 197 m 288 159 l 635 795 l 546 841 l 199 205 l 288 159 z "},"¾":{"ha":833,"x_min":22,"x_max":826,"o":"m 770 197 l 770 481 l 648 481 l 429 178 l 436 98 l 647 98 l 647 0 l 770 0 l 770 98 l 826 98 l 826 197 l 770 197 m 547 197 l 640 317 l 647 328 l 647 197 l 547 197 m 158 791 l 158 709 l 212 709 q 252 704 235 709 q 279 688 269 699 q 287 672 284 681 q 290 650 290 663 q 287 630 290 640 q 275 613 283 621 q 253 601 267 606 q 220 595 240 595 q 188 600 202 595 q 164 612 174 605 q 151 628 155 619 q 146 648 146 637 l 22 648 q 40 578 22 606 q 84 532 57 550 q 145 506 111 514 q 213 498 179 498 q 292 507 256 498 q 357 535 329 517 q 398 579 383 553 q 414 640 414 606 q 406 687 414 667 q 382 722 397 707 q 355 739 370 732 q 322 751 340 746 q 350 764 338 757 q 374 781 363 772 q 396 814 388 795 q 405 855 405 832 q 391 915 405 888 q 351 958 376 941 q 291 984 326 975 q 213 993 256 993 q 143 984 176 993 q 85 958 111 975 q 45 915 60 941 q 31 856 31 889 l 153 856 q 157 871 153 864 q 170 883 161 878 q 191 891 178 888 q 216 895 203 895 q 247 890 235 895 q 268 880 260 886 q 279 864 275 872 q 283 846 283 855 q 278 823 283 833 q 265 805 274 812 q 243 794 256 798 q 212 791 229 791 l 158 791 m 345 159 l 692 795 l 603 841 l 256 205 l 345 159 z "},"Æ":{"ha":833,"x_min":33,"x_max":798,"o":"m 798 0 l 798 153 l 616 153 l 616 431 l 763 431 l 763 585 l 616 585 l 616 833 l 784 833 l 784 987 l 357 987 l 33 0 l 224 0 l 288 227 l 435 227 l 435 0 l 798 0 m 333 389 l 435 750 l 435 389 l 333 389 z "},"æ":{"ha":833,"x_min":31,"x_max":810,"o":"m 589 -14 q 653 -9 623 -14 q 710 3 684 -5 q 756 20 736 10 q 791 41 777 30 l 753 171 q 726 159 739 165 q 697 149 712 153 q 663 141 682 144 q 622 138 645 138 q 583 141 600 138 q 553 151 566 144 q 529 169 538 159 q 513 193 519 180 q 506 218 509 204 q 504 246 504 231 l 504 308 l 810 308 l 810 474 q 794 588 810 537 q 749 674 778 639 q 679 728 720 709 q 588 747 638 747 q 534 743 559 748 q 488 730 509 739 q 459 715 473 724 q 434 696 446 707 q 410 714 422 707 q 383 728 397 722 q 334 743 361 738 q 277 747 307 747 q 181 732 223 747 q 109 689 138 717 q 63 621 79 661 q 47 532 47 581 l 224 526 q 227 554 224 543 q 235 574 229 566 q 256 590 243 585 q 286 595 269 595 q 306 592 298 595 q 321 582 315 589 q 335 557 330 573 q 339 520 339 542 l 339 439 l 337 439 q 189 419 252 439 q 89 361 127 399 q 46 291 60 332 q 31 201 31 251 q 45 113 31 153 q 87 45 60 73 q 155 2 115 17 q 247 -14 195 -14 q 298 -7 275 -14 q 342 10 321 -1 q 377 36 361 21 q 406 67 393 51 q 433 39 418 52 q 465 16 448 26 q 521 -6 490 1 q 589 -14 552 -14 m 294 125 q 260 131 275 125 q 237 146 245 136 q 223 169 228 156 q 219 199 219 182 q 227 243 219 222 q 250 280 235 264 q 287 305 265 296 q 338 315 309 315 l 339 315 q 339 274 339 291 q 339 239 339 257 q 339 196 339 214 q 339 145 339 178 q 332 138 336 142 q 323 133 328 135 q 309 127 317 130 q 294 125 301 125 m 636 436 l 504 436 l 504 477 q 505 505 504 492 q 507 530 505 518 q 516 561 510 547 q 533 583 522 575 q 551 592 541 589 q 574 595 561 595 q 602 589 591 595 q 621 574 614 584 q 632 547 629 563 q 636 512 636 532 l 636 436 z "},"Œ":{"ha":833,"x_min":48,"x_max":807,"o":"m 807 0 l 807 157 l 564 157 l 564 439 l 765 439 l 765 587 l 564 587 l 564 840 l 800 840 l 800 987 l 522 987 q 433 997 479 993 q 338 1002 387 1002 q 222 981 275 1002 q 130 916 169 960 q 70 807 92 873 q 48 651 48 741 l 48 336 q 70 181 48 247 q 131 71 92 115 q 223 7 170 28 q 340 -14 277 -14 q 433 -10 388 -14 q 522 0 479 -5 l 807 0 m 340 143 q 286 152 310 143 q 246 182 262 161 q 220 242 229 204 q 212 336 212 279 l 212 652 q 220 751 212 712 q 245 813 229 790 q 285 845 262 836 q 338 854 309 854 q 370 854 354 854 q 401 852 386 853 l 401 145 q 371 144 387 144 q 340 143 355 143 z "},"œ":{"ha":833,"x_min":26,"x_max":804,"o":"m 26 434 l 26 298 q 42 166 26 224 q 91 68 59 109 q 168 7 122 28 q 274 -14 214 -14 q 333 -7 306 -14 q 384 12 361 -1 q 411 29 398 19 q 435 51 423 39 q 459 31 446 40 q 487 14 473 22 q 546 -6 514 1 q 614 -14 578 -14 q 669 -8 644 -14 q 715 5 694 -3 q 748 23 733 13 q 774 43 762 33 l 733 165 q 711 154 722 159 q 689 146 701 149 q 664 140 677 142 q 633 138 650 138 q 586 145 606 138 q 552 168 566 153 q 537 191 543 178 q 526 219 530 203 q 520 250 522 233 q 519 285 519 266 l 519 308 l 804 308 l 804 456 q 788 575 804 522 q 744 667 773 629 q 671 726 714 705 q 574 747 629 747 q 522 742 547 748 q 476 725 497 736 q 451 709 463 718 q 428 688 439 700 q 407 706 418 698 q 384 721 396 714 q 332 741 360 734 q 273 747 304 747 q 168 726 214 747 q 90 664 121 704 q 42 565 58 623 q 26 434 26 507 m 203 298 l 203 435 q 206 503 203 473 q 218 553 210 532 q 239 584 226 573 q 273 595 252 595 q 308 584 294 595 q 330 553 321 573 q 335 534 333 545 q 340 513 338 524 q 343 477 342 496 q 345 435 345 457 l 345 298 q 343 256 345 275 q 340 220 342 236 q 334 191 338 203 q 326 168 330 178 q 304 145 317 153 q 274 138 292 138 q 243 145 256 138 q 222 168 231 153 q 207 221 212 188 q 203 298 203 254 m 574 595 q 598 589 588 595 q 615 572 608 583 q 626 540 623 559 q 629 496 629 521 l 629 439 l 519 439 l 519 456 q 519 495 519 477 q 522 528 520 513 q 529 559 525 548 q 538 578 532 570 q 553 590 544 586 q 574 595 562 595 z "},"ð":{"ha":833,"x_min":26,"x_max":747,"o":"m 610 857 l 730 924 l 677 1000 l 542 926 q 448 988 498 962 q 340 1027 397 1013 l 281 880 q 328 860 304 871 q 374 833 352 848 l 231 754 l 284 678 l 448 768 q 501 692 478 735 q 538 596 524 650 q 456 640 502 625 q 359 656 410 656 q 220 631 282 656 q 116 563 159 607 q 49 456 73 518 q 26 317 26 393 q 51 188 26 248 q 123 83 77 127 q 235 12 170 37 q 378 -14 300 -14 q 474 -2 428 -14 q 559 33 519 9 q 646 103 608 60 q 709 203 685 146 q 737 292 727 243 q 747 393 747 340 l 747 439 q 710 674 747 569 q 610 857 674 779 m 381 137 q 310 152 341 137 q 258 191 279 166 q 225 248 237 216 q 214 317 214 281 q 225 391 214 355 q 256 453 235 426 q 304 496 275 479 q 369 512 332 512 q 489 493 441 512 q 557 448 536 474 q 557 430 557 435 q 557 420 557 425 l 557 376 q 553 315 557 344 q 540 262 549 286 q 512 207 530 231 q 472 165 494 182 q 430 144 453 152 q 381 137 407 137 z "},"Þ":{"ha":833,"x_min":92,"x_max":796,"o":"m 281 987 l 92 987 l 92 0 l 281 0 l 281 196 l 435 196 q 590 219 523 196 q 703 282 657 241 q 772 378 749 322 q 796 500 796 434 q 772 622 796 566 q 703 718 749 678 q 590 781 657 758 q 435 804 523 804 l 281 804 l 281 987 m 281 652 l 435 652 q 514 639 481 652 q 568 605 547 626 q 597 556 588 584 q 607 499 607 528 q 597 443 607 470 q 568 394 588 415 q 514 360 547 373 q 435 348 481 348 l 281 348 l 281 652 z "},"þ":{"ha":833,"x_min":98,"x_max":755,"o":"m 755 360 l 755 374 q 736 527 755 458 q 682 645 718 595 q 591 721 645 694 q 468 747 538 747 q 408 741 435 747 q 356 723 380 735 q 319 700 336 713 q 287 669 302 686 l 287 1046 l 98 1046 l 98 -282 l 287 -282 l 287 64 q 311 41 298 52 q 337 21 323 30 q 397 -5 364 4 q 469 -14 430 -14 q 592 15 538 -14 q 682 94 645 43 q 736 212 718 143 q 755 360 755 280 m 566 374 l 566 360 q 558 274 566 315 q 533 203 551 234 q 487 155 515 173 q 419 138 459 138 q 373 143 394 138 q 336 158 353 149 q 308 182 320 168 q 287 214 296 197 l 287 519 q 312 555 297 540 q 346 580 326 570 q 378 590 360 587 q 418 594 397 594 q 486 577 457 594 q 532 531 514 560 q 558 461 549 501 q 566 374 566 420 z "},"ĸ":{"ha":833,"x_min":108,"x_max":819,"o":"m 410 290 l 577 0 l 819 0 l 544 430 l 806 734 l 569 734 l 369 498 l 296 412 l 296 734 l 108 734 l 108 0 l 296 0 l 296 194 l 410 290 z "},"ß":{"ha":833,"x_min":110,"x_max":801,"o":"m 298 0 l 298 727 q 307 809 298 774 q 332 865 316 843 q 369 898 347 887 q 414 908 390 908 q 448 901 431 908 q 478 880 465 893 q 500 845 492 865 q 509 800 509 825 q 499 741 509 766 q 477 695 490 716 q 446 636 460 668 q 431 557 431 604 q 445 479 431 513 q 479 420 458 446 q 522 371 498 393 q 566 328 545 349 q 599 284 585 307 q 612 233 612 261 q 606 192 612 210 q 587 161 600 173 q 560 143 576 149 q 525 137 545 137 q 479 141 501 137 q 437 150 456 144 q 402 162 418 155 q 376 175 387 169 l 339 25 q 375 8 353 16 q 422 -3 397 1 q 476 -12 448 -9 q 530 -14 504 -14 q 645 2 595 -14 q 730 51 696 19 q 783 130 765 83 q 801 237 801 177 q 787 314 801 280 q 754 377 774 349 q 710 429 734 405 q 667 475 687 453 q 633 519 647 497 q 620 564 620 541 q 631 628 620 603 q 656 675 642 652 q 682 728 669 697 q 694 811 694 758 q 672 920 694 873 q 614 998 650 966 q 528 1044 576 1029 q 425 1059 479 1059 q 298 1038 356 1059 q 199 975 240 1017 q 133 871 157 933 q 110 730 110 810 l 110 0 l 298 0 z "},"ə":{"ha":833,"x_min":106,"x_max":772,"o":"m 412 748 q 317 741 361 748 q 237 722 273 733 q 172 694 200 709 q 123 663 143 679 l 176 541 q 220 562 197 552 q 268 580 242 572 q 325 592 294 587 q 394 596 355 596 q 470 583 437 596 q 526 547 503 570 q 562 494 548 524 q 581 429 575 464 q 581 427 581 427 q 581 425 581 426 l 106 425 l 106 318 q 127 182 106 243 q 189 78 148 121 q 291 11 230 35 q 431 -13 351 -13 q 571 15 508 -14 q 679 93 634 43 q 748 211 724 142 q 772 360 772 279 l 772 387 q 747 530 772 464 q 676 644 722 595 q 563 720 629 692 q 412 748 496 748 m 431 138 q 368 149 394 138 q 324 178 341 159 q 299 221 307 196 q 291 277 291 247 l 291 294 l 578 294 q 561 232 572 260 q 530 183 549 203 q 487 150 512 162 q 431 138 462 138 z "},"$":{"ha":833,"x_min":86,"x_max":773,"o":"m 585 259 q 577 212 585 234 q 552 175 568 191 q 505 148 534 157 q 438 138 477 138 q 378 146 408 138 q 327 174 349 154 q 290 225 304 193 q 275 307 275 258 l 86 307 q 111 168 86 226 q 178 72 136 110 q 274 14 220 34 q 386 -12 328 -6 l 386 -144 l 494 -144 l 494 -12 q 609 15 557 -5 q 697 71 661 36 q 753 153 734 105 q 773 260 773 201 q 752 373 773 326 q 691 458 730 421 q 595 521 651 494 q 471 574 540 549 q 395 607 426 591 q 347 640 365 623 q 320 679 328 658 q 312 726 312 699 q 320 774 312 752 q 344 814 328 797 q 386 839 360 830 q 446 848 411 848 q 500 839 475 848 q 543 811 525 829 q 573 758 562 790 q 584 682 584 725 l 772 682 q 754 804 772 749 q 701 899 735 859 q 618 964 667 939 q 508 998 569 989 l 508 1145 l 399 1145 l 399 999 q 286 971 337 993 q 199 914 235 949 q 144 831 163 879 q 124 726 124 783 q 146 612 124 660 q 208 528 168 564 q 303 465 247 492 q 428 414 359 438 q 501 384 471 399 q 550 350 531 368 q 577 310 568 332 q 585 259 585 288 z "},"¢":{"ha":833,"x_min":96,"x_max":752,"o":"m 437 137 q 362 155 392 137 q 316 204 333 174 q 292 274 298 234 q 285 356 285 313 l 285 376 q 292 458 285 418 q 317 528 299 497 q 363 576 334 558 q 437 595 392 595 q 493 584 467 595 q 537 556 519 574 q 565 514 555 538 q 573 463 574 490 l 751 463 q 734 567 752 519 q 684 651 716 614 q 604 710 650 687 q 503 743 558 734 l 503 894 l 368 894 l 368 741 q 250 696 300 729 q 165 615 199 663 q 114 506 131 567 q 96 376 96 445 l 96 356 q 114 227 96 288 q 165 117 131 165 q 250 37 199 69 q 368 -8 300 4 l 368 -166 l 503 -166 l 503 -9 q 601 23 555 0 q 681 80 647 45 q 733 157 714 114 q 751 251 752 201 l 573 251 q 564 204 574 225 q 534 168 553 183 q 490 145 515 153 q 437 137 465 137 z "},"£":{"ha":833,"x_min":78,"x_max":795,"o":"m 380 397 l 585 397 l 585 547 l 374 547 l 368 705 q 377 767 368 740 q 401 811 386 793 q 437 838 416 829 q 483 847 458 847 q 529 841 507 847 q 568 819 551 834 q 595 780 585 804 q 605 722 605 756 l 787 722 q 767 836 787 785 q 709 924 747 888 q 614 981 671 961 q 486 1001 558 1001 q 361 981 418 1001 q 264 924 304 961 q 201 830 223 886 q 178 705 178 775 l 183 547 l 78 547 l 78 397 l 188 397 l 191 283 q 190 242 191 263 q 182 202 188 220 q 166 171 176 184 q 140 153 157 157 l 80 153 l 80 0 l 795 0 l 795 153 l 341 153 q 358 177 351 165 q 370 203 365 189 q 380 245 377 222 q 384 292 384 267 l 380 397 z "},"¥":{"ha":833,"x_min":14,"x_max":830,"o":"m 325 0 l 515 0 l 515 195 l 740 195 l 740 307 l 515 307 l 515 391 l 740 391 l 740 503 l 570 503 l 830 987 l 621 987 l 440 606 l 423 568 l 422 568 l 405 606 l 224 987 l 14 987 l 275 503 l 92 503 l 92 391 l 325 391 l 325 307 l 92 307 l 92 195 l 325 195 l 325 0 z "},"ƒ":{"ha":833,"x_min":100,"x_max":766,"o":"m 641 595 l 641 734 l 501 734 l 501 787 q 510 842 501 818 q 536 882 518 865 q 585 909 555 900 q 656 918 615 918 q 708 913 686 918 q 750 898 731 907 l 766 1044 q 700 1064 732 1056 q 633 1072 667 1072 q 498 1054 557 1072 q 397 999 439 1035 q 334 910 356 963 q 312 787 312 857 l 312 734 l 203 734 l 203 595 l 312 595 l 312 -9 q 304 -75 312 -47 q 278 -120 296 -104 q 248 -138 266 -132 q 208 -144 231 -144 q 158 -138 191 -144 q 111 -121 124 -132 l 100 -271 q 165 -291 133 -286 q 229 -296 197 -296 q 343 -278 293 -296 q 429 -222 394 -259 q 483 -132 464 -186 q 501 -9 501 -79 l 501 595 l 641 595 z "},"₣":{"ha":833,"x_min":0,"x_max":768,"o":"m 715 409 l 715 564 l 292 564 l 292 832 l 768 832 l 768 987 l 101 987 l 101 0 l 292 0 l 292 409 l 715 409 m 469 151 l 469 273 l 0 273 l 0 151 l 469 151 z "},"₤":{"ha":833,"x_min":75,"x_max":791,"o":"m 572 318 l 572 422 l 375 422 l 372 499 l 572 499 l 572 603 l 368 603 l 364 705 q 373 767 364 740 q 397 811 381 793 q 433 838 412 829 q 478 847 454 847 q 525 841 503 847 q 564 819 547 834 q 591 780 581 804 q 601 722 601 756 l 783 722 q 763 836 783 785 q 705 924 743 888 q 610 981 667 961 q 481 1001 554 1001 q 357 981 414 1001 q 260 924 300 961 q 197 830 219 886 q 174 705 174 775 l 177 603 l 75 603 l 75 499 l 180 499 l 182 422 l 75 422 l 75 318 l 186 318 l 187 283 q 185 242 187 263 q 178 202 184 220 q 162 171 172 184 q 136 153 153 157 l 76 153 l 76 0 l 791 0 l 791 153 l 337 153 q 355 179 347 165 q 368 206 363 192 q 378 247 375 225 q 380 292 381 269 l 378 318 l 572 318 z "},"₧":{"ha":833,"x_min":83,"x_max":817,"o":"m 803 632 l 803 734 l 685 734 l 685 910 l 549 910 l 549 734 l 492 734 q 469 836 487 789 q 421 917 451 883 q 350 969 391 950 q 256 987 309 987 l 83 987 l 83 0 l 219 0 l 219 381 l 256 381 q 349 399 308 381 q 420 451 390 418 q 468 530 450 484 q 492 632 486 576 l 549 632 l 549 203 q 562 103 549 144 q 597 36 574 62 q 649 -2 619 9 q 714 -14 680 -14 q 772 -6 743 -14 q 817 15 802 1 l 798 109 q 777 103 791 106 q 749 100 762 100 q 724 104 736 100 q 704 121 713 109 q 690 152 695 132 q 685 203 685 172 l 685 632 l 803 632 m 219 490 l 219 879 l 256 879 q 304 862 284 879 q 336 819 323 846 q 354 755 348 791 q 359 683 359 720 q 354 611 359 646 q 336 550 348 576 q 304 506 323 523 q 256 490 284 490 l 219 490 z "},"¤":{"ha":833,"x_min":56,"x_max":779,"o":"m 613 53 l 683 -18 l 779 80 l 703 157 q 739 244 726 197 q 751 345 751 292 q 738 449 751 399 q 698 541 724 498 l 779 624 l 683 722 l 604 642 q 516 686 564 670 q 416 701 469 701 q 317 686 364 701 q 229 642 270 671 l 152 722 l 56 624 l 135 543 q 95 451 109 501 q 80 345 80 401 q 93 243 80 292 q 130 155 106 195 l 56 80 l 152 -18 l 220 52 q 312 3 262 20 q 416 -14 361 -14 q 522 3 471 -14 q 613 53 572 20 m 206 345 q 222 435 206 393 q 267 507 239 477 q 334 555 296 538 q 416 573 372 573 q 498 555 460 573 q 565 507 536 538 q 610 435 593 477 q 626 345 626 393 q 610 254 626 296 q 565 181 593 212 q 498 132 536 150 q 416 114 460 114 q 334 132 372 114 q 267 181 296 150 q 222 254 239 212 q 206 345 206 296 z "},"!":{"ha":833,"x_min":307,"x_max":526,"o":"m 503 345 l 513 987 l 320 987 l 331 345 l 503 345 m 307 92 q 336 19 307 49 q 416 -10 365 -10 q 496 19 467 -10 q 526 92 526 49 q 496 167 526 137 q 416 197 467 197 q 336 167 365 197 q 307 92 307 137 z "},"¡":{"ha":833,"x_min":327,"x_max":547,"o":"m 349 383 l 337 -258 l 531 -258 l 520 383 l 349 383 m 547 642 q 517 718 547 688 q 437 748 486 748 q 356 718 385 748 q 327 642 327 687 q 356 569 327 599 q 437 540 385 540 q 517 569 486 540 q 547 642 547 598 z "},"?":{"ha":833,"x_min":109,"x_max":747,"o":"m 338 300 l 508 300 q 509 346 508 327 q 516 382 511 366 q 532 414 521 398 q 564 450 544 429 q 630 510 597 479 q 689 575 663 541 q 731 649 715 609 q 747 736 747 688 q 726 851 747 802 q 663 935 704 901 q 562 985 622 968 q 427 1002 503 1002 q 302 985 360 1002 q 202 935 245 968 q 134 849 159 901 q 109 729 109 798 l 298 729 q 310 783 298 760 q 339 819 321 805 q 380 840 357 833 q 427 846 403 846 q 483 840 458 846 q 524 819 507 833 q 549 782 540 804 q 557 728 557 759 q 546 676 557 702 q 516 626 534 650 q 474 577 497 601 q 428 533 451 554 q 378 486 396 508 q 352 438 361 464 q 341 379 343 412 q 338 300 338 347 m 311 94 q 340 21 311 51 q 420 -8 369 -8 q 501 21 471 -8 q 531 94 531 51 q 501 169 531 139 q 420 199 471 199 q 340 169 369 199 q 311 94 311 139 z "},"¿":{"ha":833,"x_min":137,"x_max":744,"o":"m 536 433 l 368 433 q 367 388 367 406 q 361 353 366 369 q 346 323 357 338 q 315 288 336 308 q 251 227 283 258 q 194 161 219 196 q 153 86 168 126 q 137 -1 137 46 q 158 -115 137 -66 q 217 -198 178 -165 q 312 -249 256 -232 q 439 -267 368 -267 q 558 -250 503 -267 q 654 -201 614 -234 q 719 -117 695 -168 q 744 2 743 -66 l 555 2 q 544 -50 554 -28 q 518 -85 534 -72 q 480 -105 502 -99 q 435 -112 459 -112 q 389 -105 410 -112 q 354 -83 368 -98 q 333 -48 340 -69 q 326 -1 326 -28 q 337 55 326 28 q 366 107 349 81 q 406 156 384 132 q 450 203 428 180 q 499 249 482 227 q 525 296 517 271 q 535 354 533 321 q 536 433 536 387 m 365 639 q 384 579 365 604 q 454 554 403 554 q 526 578 505 554 q 546 639 546 603 q 526 704 546 677 q 454 730 505 730 q 384 703 403 730 q 365 639 365 677 z "},",":{"ha":833,"x_min":244,"x_max":482,"o":"m 481 15 l 482 165 l 305 165 l 305 6 q 288 -122 305 -68 q 244 -224 270 -175 l 344 -275 q 443 -142 405 -221 q 481 15 481 -62 z "},".":{"ha":833,"x_min":286,"x_max":548,"o":"m 286 109 q 321 22 286 57 q 417 -14 357 -14 q 512 21 477 -14 q 548 109 548 56 q 513 198 548 162 q 417 234 478 234 q 321 198 355 234 q 286 109 286 161 z "},":":{"ha":833,"x_min":296,"x_max":557,"o":"m 296 109 q 331 22 296 57 q 427 -14 366 -14 q 522 21 486 -14 q 557 109 557 56 q 523 198 557 162 q 427 234 488 234 q 330 198 365 234 q 296 109 296 161 m 296 669 q 331 582 296 617 q 427 547 366 547 q 522 582 486 547 q 557 669 557 616 q 523 758 557 722 q 427 794 488 794 q 330 758 365 794 q 296 669 296 722 z "},";":{"ha":833,"x_min":296,"x_max":584,"o":"m 322 669 q 357 582 322 617 q 453 547 393 547 q 548 582 513 547 q 584 669 584 616 q 549 758 584 722 q 453 794 514 794 q 357 758 391 794 q 322 669 322 722 m 533 15 l 534 165 l 357 165 l 357 6 q 339 -122 357 -68 q 296 -224 321 -175 l 395 -275 q 495 -142 456 -221 q 533 15 533 -62 z "},"…":{"ha":833,"x_min":68,"x_max":869,"o":"m 68 109 q 104 21 68 56 q 199 -14 139 -14 q 295 21 259 -14 q 330 109 330 56 q 295 197 330 161 q 199 233 260 233 q 103 197 138 233 q 68 109 68 161 m 338 109 q 373 21 338 56 q 469 -14 408 -14 q 564 21 528 -14 q 600 109 600 56 q 565 197 600 161 q 469 233 530 233 q 372 197 407 233 q 338 109 338 161 m 607 109 q 642 21 607 56 q 738 -14 677 -14 q 833 21 798 -14 q 869 109 869 56 q 834 197 869 161 q 738 233 799 233 q 642 197 676 233 q 607 109 607 161 z "},"·":{"ha":833,"x_min":335,"x_max":549,"o":"m 335 475 q 364 404 335 433 q 442 374 393 374 q 520 403 490 374 q 549 475 549 431 q 520 548 549 519 q 442 577 490 577 q 364 548 393 577 q 335 475 335 518 z "},"•":{"ha":833,"x_min":274,"x_max":591,"o":"m 274 533 l 274 494 q 285 433 274 460 q 317 385 296 405 q 367 353 337 364 q 433 342 396 342 q 499 353 469 342 q 549 385 528 364 q 581 433 570 405 q 591 494 591 460 l 591 533 q 581 595 591 566 q 549 644 570 623 q 499 675 528 664 q 433 687 469 687 q 366 675 395 687 q 317 644 337 664 q 285 595 296 623 q 274 533 274 566 z "},"_":{"ha":833,"x_min":100,"x_max":719,"o":"m 719 -147 l 719 0 l 100 0 l 100 -147 l 719 -147 z "},"-":{"ha":833,"x_min":191,"x_max":756,"o":"m 756 359 l 756 512 l 191 512 l 191 359 l 756 359 z "},"–":{"ha":833,"x_min":41,"x_max":800,"o":"m 800 408 l 800 562 l 41 562 l 41 408 l 800 408 z "},"—":{"ha":833,"x_min":39,"x_max":797,"o":"m 797 408 l 797 562 l 39 562 l 39 408 l 797 408 z "},"'":{"ha":833,"x_min":310,"x_max":455,"o":"m 455 945 l 455 1042 l 310 1042 l 310 946 l 310 673 l 436 673 l 455 945 z "},"\"":{"ha":833,"x_min":191,"x_max":609,"o":"m 330 968 l 330 1042 l 191 1042 l 191 965 l 191 684 l 311 684 l 330 968 m 609 968 l 609 1042 l 470 1042 l 470 967 l 470 684 l 590 684 l 609 968 z "},"‘":{"ha":833,"x_min":333,"x_max":544,"o":"m 333 806 l 333 686 l 484 686 l 484 806 q 501 923 484 872 q 544 1017 518 973 l 457 1071 q 408 1016 431 1047 q 369 949 386 985 q 342 877 352 914 q 333 806 333 840 z "},"’":{"ha":833,"x_min":316,"x_max":526,"o":"m 526 941 l 526 1058 l 375 1058 l 375 941 q 358 824 375 875 q 316 729 342 773 l 402 675 q 451 731 429 699 q 490 798 473 762 q 517 869 507 832 q 526 941 526 906 z "},"‚":{"ha":833,"x_min":315,"x_max":529,"o":"m 529 44 l 529 182 l 371 182 l 371 43 q 356 -72 371 -22 q 315 -167 340 -122 l 405 -220 q 453 -165 431 -197 q 493 -99 476 -134 q 519 -27 509 -64 q 529 44 529 9 z "},"“":{"ha":833,"x_min":221,"x_max":663,"o":"m 221 806 l 221 686 l 372 686 l 372 806 q 389 923 372 872 q 432 1017 406 973 l 345 1071 q 296 1016 319 1047 q 257 949 274 985 q 231 877 240 914 q 221 806 221 840 m 452 806 l 452 686 l 604 686 l 604 806 q 621 923 604 872 q 663 1017 637 973 l 576 1071 q 528 1016 550 1047 q 488 949 505 985 q 462 877 471 914 q 452 806 452 840 z "},"”":{"ha":833,"x_min":203,"x_max":657,"o":"m 414 941 l 414 1058 l 262 1058 l 262 941 q 246 824 262 875 q 203 729 229 773 l 290 675 q 338 731 316 699 q 378 798 361 762 q 404 869 395 832 q 414 941 414 906 m 657 941 l 657 1058 l 506 1058 l 506 941 q 489 824 506 875 q 447 729 473 773 l 533 675 q 582 731 559 699 q 621 798 604 762 q 648 869 638 832 q 657 941 657 906 z "},"„":{"ha":833,"x_min":218,"x_max":654,"o":"m 431 43 l 431 159 l 274 159 l 274 42 q 259 -74 274 -24 q 218 -168 243 -124 l 312 -222 q 360 -167 338 -199 q 398 -100 382 -136 q 422 -28 414 -65 q 431 43 431 8 m 654 43 l 654 159 l 496 159 l 496 42 q 479 -74 496 -24 q 436 -168 462 -124 l 530 -222 q 579 -167 557 -199 q 618 -100 602 -136 q 644 -28 635 -65 q 654 43 654 8 z "},"′":{"ha":833,"x_min":310,"x_max":455,"o":"m 455 945 l 455 1042 l 310 1042 l 310 946 l 310 673 l 436 673 l 455 945 z "},"″":{"ha":833,"x_min":191,"x_max":609,"o":"m 330 968 l 330 1042 l 191 1042 l 191 965 l 191 684 l 311 684 l 330 968 m 609 968 l 609 1042 l 470 1042 l 470 967 l 470 684 l 590 684 l 609 968 z "},"(":{"ha":833,"x_min":234,"x_max":608,"o":"m 234 401 l 234 387 q 249 206 234 290 q 288 51 263 122 q 347 -80 313 -21 q 418 -184 380 -139 q 495 -261 455 -229 q 572 -310 534 -293 l 608 -208 q 555 -157 582 -188 q 503 -85 528 -127 q 460 3 480 -47 q 425 114 440 54 q 405 229 414 157 q 396 385 396 300 l 396 403 q 406 562 396 489 q 431 696 415 635 q 472 811 448 758 q 522 903 495 864 q 565 956 543 932 q 608 995 587 979 l 572 1098 q 495 1049 534 1081 q 418 972 455 1018 q 347 868 380 927 q 288 738 313 809 q 249 582 263 666 q 234 401 234 497 z "},")":{"ha":833,"x_min":214,"x_max":597,"o":"m 597 387 l 597 401 q 583 577 597 494 q 542 732 568 661 q 482 864 516 804 q 409 970 448 923 q 330 1048 370 1016 q 250 1098 289 1081 l 214 997 q 255 959 235 981 q 296 909 276 937 q 351 810 325 867 q 395 680 377 752 q 418 552 410 621 q 427 403 427 483 l 427 385 q 418 233 427 303 q 395 104 410 162 q 356 -12 378 40 q 308 -104 334 -63 q 262 -164 286 -138 q 214 -208 238 -191 l 250 -310 q 330 -260 289 -293 q 409 -181 370 -228 q 482 -76 448 -135 q 542 56 516 -16 q 583 211 568 127 q 597 387 597 294 z "},"[":{"ha":833,"x_min":271,"x_max":574,"o":"m 574 1000 l 574 1146 l 271 1146 l 271 -227 l 574 -227 l 574 -81 l 459 -81 l 459 1000 l 574 1000 z "},"]":{"ha":833,"x_min":271,"x_max":575,"o":"m 271 1146 l 271 1000 l 387 1000 l 387 -81 l 271 -81 l 271 -227 l 575 -227 l 575 1146 l 271 1146 z "},"{":{"ha":833,"x_min":210,"x_max":661,"o":"m 637 -244 l 661 -137 q 605 -120 627 -138 q 572 -71 584 -101 q 555 -2 559 -40 q 551 72 551 35 l 551 182 q 511 325 551 263 q 388 419 472 387 q 511 514 471 452 q 551 657 551 576 l 551 768 q 552 842 551 804 q 564 910 554 880 q 597 959 574 941 q 661 977 619 978 l 637 1083 q 524 1058 572 1083 q 448 994 477 1033 q 396 887 412 948 q 380 768 380 825 l 380 657 q 338 526 380 566 q 210 487 296 487 l 210 351 q 338 312 296 351 q 380 182 380 273 l 380 72 q 394 -38 380 18 q 441 -140 409 -94 q 521 -215 472 -185 q 637 -244 570 -244 z "},"}":{"ha":833,"x_min":225,"x_max":676,"o":"m 225 -137 l 248 -244 q 365 -215 315 -244 q 444 -140 414 -186 q 490 -38 475 -95 q 506 72 506 19 l 506 182 q 511 240 506 214 q 526 284 516 265 q 583 335 545 319 q 676 351 620 351 l 676 487 q 590 500 626 487 q 535 541 555 513 q 513 590 520 561 q 506 657 506 619 l 506 768 q 493 874 506 819 q 451 975 481 930 q 370 1054 420 1024 q 248 1083 321 1083 l 225 977 q 289 959 267 978 q 321 910 311 941 q 333 842 332 880 q 335 768 335 804 l 335 657 q 348 569 335 610 q 388 493 361 527 q 431 451 406 470 q 489 418 456 432 q 420 377 449 401 q 372 323 391 353 q 344 257 353 292 q 335 182 335 222 l 335 72 q 330 -2 335 35 q 313 -71 326 -40 q 280 -120 301 -101 q 225 -137 258 -138 z "},"‹":{"ha":833,"x_min":266,"x_max":580,"o":"m 416 357 l 580 629 l 457 629 l 266 364 l 266 351 l 457 87 l 580 87 l 416 357 z "},"›":{"ha":833,"x_min":261,"x_max":576,"o":"m 384 628 l 261 628 l 425 357 l 261 86 l 384 86 l 576 351 l 576 363 l 384 628 z "},"+":{"ha":833,"x_min":67,"x_max":744,"o":"m 496 551 l 496 818 l 316 818 l 316 551 l 67 551 l 67 378 l 316 378 l 316 99 l 496 99 l 496 378 l 744 378 l 744 551 l 496 551 z "},"−":{"ha":833,"x_min":101,"x_max":684,"o":"m 684 408 l 684 562 l 101 562 l 101 408 l 684 408 z "},"±":{"ha":833,"x_min":100,"x_max":721,"o":"m 496 633 l 496 871 l 330 871 l 330 633 l 100 633 l 100 475 l 330 475 l 330 224 l 496 224 l 496 475 l 721 475 l 721 633 l 496 633 m 699 0 l 699 154 l 116 154 l 116 0 l 699 0 z "},"×":{"ha":833,"x_min":106,"x_max":747,"o":"m 106 252 l 218 140 l 427 353 l 635 140 l 747 252 l 537 465 l 747 679 l 635 790 l 427 578 l 218 790 l 106 679 l 316 465 l 106 252 z "},"÷":{"ha":833,"x_min":73,"x_max":768,"o":"m 768 389 l 768 543 l 73 543 l 73 389 l 768 389 m 315 739 q 343 670 315 697 q 418 643 371 643 q 494 670 467 643 q 522 739 522 697 q 494 807 522 780 q 418 834 467 834 q 343 807 371 834 q 315 739 315 780 m 314 189 q 342 120 314 147 q 417 93 370 93 q 493 120 465 93 q 521 189 521 147 q 493 257 521 230 q 417 285 465 285 q 342 257 370 285 q 314 189 314 229 z "},"=":{"ha":833,"x_min":107,"x_max":749,"o":"m 749 486 l 749 641 l 107 641 l 107 486 l 749 486 m 749 194 l 749 348 l 107 348 l 107 194 l 749 194 z "},"≠":{"ha":833,"x_min":103,"x_max":745,"o":"m 745 194 l 745 348 l 446 348 l 519 486 l 745 486 l 745 641 l 602 641 l 637 707 l 555 749 l 496 641 l 103 641 l 103 486 l 414 486 l 340 348 l 103 348 l 103 194 l 258 194 l 224 130 l 307 87 l 363 194 l 745 194 z "},"≈":{"ha":833,"x_min":96,"x_max":749,"o":"m 103 598 l 110 455 q 185 528 142 503 q 273 554 229 554 q 362 541 327 555 q 441 505 397 527 q 514 471 481 484 q 597 458 547 458 q 680 484 643 458 q 749 557 717 509 l 742 700 q 671 627 710 653 q 586 601 631 601 q 503 614 535 601 q 430 648 470 627 q 351 684 386 670 q 263 697 317 699 q 176 670 218 697 q 103 598 135 644 m 96 307 l 103 163 q 177 236 136 209 q 263 262 218 262 q 351 250 317 264 q 430 213 386 235 q 503 179 470 193 q 586 166 535 166 q 670 193 631 166 q 742 265 710 219 l 735 408 q 661 336 702 362 q 575 309 620 309 q 492 322 525 309 q 418 356 459 336 q 340 393 374 378 q 252 406 305 407 q 168 379 207 406 q 96 307 130 353 z "},"<":{"ha":833,"x_min":106,"x_max":706,"o":"m 706 98 l 706 281 l 334 406 l 288 422 l 334 439 l 706 565 l 706 748 l 106 499 l 106 347 l 706 98 z "},">":{"ha":833,"x_min":109,"x_max":720,"o":"m 109 97 l 720 346 l 720 500 l 109 748 l 109 566 l 498 437 l 539 424 l 498 410 l 109 280 l 109 97 z "},"≤":{"ha":833,"x_min":115,"x_max":715,"o":"m 715 266 l 715 431 l 344 543 l 298 557 l 344 572 l 715 686 l 715 851 l 115 627 l 115 490 l 715 266 m 706 24 l 706 178 l 123 178 l 123 24 l 706 24 z "},"≥":{"ha":833,"x_min":116,"x_max":726,"o":"m 116 271 l 726 494 l 726 633 l 116 857 l 116 692 l 505 577 l 546 565 l 505 553 l 116 435 l 116 271 m 702 23 l 702 177 l 119 177 l 119 23 l 702 23 z "},"¬":{"ha":833,"x_min":125,"x_max":692,"o":"m 692 254 l 692 546 l 125 546 l 125 430 l 556 430 l 556 254 l 692 254 z "},"/":{"ha":833,"x_min":149,"x_max":694,"o":"m 325 -85 l 694 987 l 519 987 l 149 -85 l 325 -85 z "},"\\":{"ha":833,"x_min":163,"x_max":709,"o":"m 163 987 l 532 -85 l 709 -85 l 339 987 l 163 987 z "},"⁄":{"ha":833,"x_min":190,"x_max":625,"o":"m 279 154 l 625 790 l 536 836 l 190 199 l 279 154 z "},"%":{"ha":833,"x_min":24,"x_max":809,"o":"m 24 811 l 24 759 q 36 686 24 720 q 73 626 48 652 q 133 585 96 600 q 218 570 169 570 q 302 585 267 570 q 362 626 338 600 q 398 686 386 652 q 410 759 410 720 l 410 811 q 398 885 410 850 q 362 945 386 920 q 302 986 338 971 q 216 1002 266 1002 q 132 986 168 1002 q 72 945 96 971 q 36 885 47 920 q 24 811 24 850 m 151 759 l 151 811 q 155 841 151 827 q 166 867 158 856 q 186 885 174 878 q 216 891 198 891 q 248 885 235 891 q 269 867 260 878 q 279 841 276 856 q 283 811 283 827 l 283 759 q 279 729 283 743 q 269 703 276 714 q 249 685 261 692 q 218 679 236 679 q 186 685 199 679 q 166 703 174 692 q 155 729 158 714 q 151 759 151 743 m 422 229 l 422 176 q 435 102 422 137 q 471 42 447 68 q 532 1 495 16 q 617 -14 568 -14 q 702 1 666 -14 q 762 42 738 16 q 798 102 786 68 q 809 176 809 137 l 809 229 q 797 302 809 267 q 762 363 785 336 q 702 404 738 389 q 616 418 665 418 q 531 404 568 418 q 471 363 495 389 q 435 302 447 336 q 422 229 422 267 m 550 176 l 550 229 q 553 258 550 244 q 564 284 557 273 q 585 301 572 295 q 616 308 597 308 q 647 301 634 308 q 667 284 659 295 q 678 258 675 273 q 682 229 682 244 l 682 176 q 680 145 682 159 q 671 120 677 131 q 651 102 664 109 q 617 96 638 96 q 588 102 600 96 q 567 120 575 109 q 554 145 558 131 q 550 176 550 160 m 281 134 l 662 831 l 570 876 l 189 178 l 281 134 z "},"‰":{"ha":833,"x_min":51,"x_max":817,"o":"m 216 201 l 216 176 q 228 102 216 137 q 263 42 240 68 q 319 1 286 16 q 397 -14 353 -14 q 439 -9 419 -14 q 475 3 459 -5 q 498 16 488 8 q 517 32 509 23 q 535 17 526 24 q 557 4 545 9 q 595 -9 574 -5 q 640 -14 616 -14 q 716 1 683 -14 q 772 42 749 16 q 806 102 794 68 q 817 176 817 137 l 817 201 q 806 275 817 240 q 772 336 794 309 q 715 376 749 361 q 638 391 682 391 q 591 386 613 391 q 551 371 570 381 q 533 359 542 366 q 517 345 524 353 q 497 362 508 354 q 474 375 486 370 q 438 387 458 383 q 395 391 418 391 q 319 376 352 391 q 263 336 286 361 q 228 275 240 309 q 216 201 216 240 m 51 810 l 51 786 q 62 713 51 747 q 96 653 73 679 q 149 612 117 627 q 222 597 181 597 q 298 612 265 597 q 355 653 332 627 q 389 713 377 679 q 401 786 401 747 l 401 810 q 389 884 401 850 q 355 945 378 919 q 298 986 332 970 q 221 1001 264 1001 q 148 986 180 1001 q 95 945 117 970 q 62 884 73 919 q 51 810 51 850 m 343 176 l 343 201 q 346 231 343 217 q 354 257 348 245 q 370 274 360 268 q 395 281 380 281 q 420 274 410 281 q 436 257 430 268 q 445 231 442 245 q 448 201 448 217 l 448 176 q 446 145 448 159 q 439 120 445 131 q 424 102 434 109 q 397 96 414 96 q 373 102 383 96 q 357 120 363 109 q 347 145 350 131 q 343 176 343 160 m 169 786 l 169 810 q 171 841 169 826 q 180 867 174 855 q 196 884 186 878 q 221 891 206 891 q 245 884 235 891 q 262 867 256 878 q 271 841 269 855 q 274 810 274 826 l 274 786 q 271 756 274 770 q 262 730 269 741 q 247 712 256 719 q 222 706 237 706 q 197 712 208 706 q 181 730 187 719 q 172 756 174 741 q 169 786 169 770 m 586 176 l 586 201 q 588 231 586 217 q 597 257 591 245 q 613 274 603 268 q 638 281 623 281 q 663 274 652 281 q 679 257 673 268 q 688 231 685 245 q 690 201 690 217 l 690 176 q 689 145 690 159 q 683 120 688 131 q 667 102 677 109 q 640 96 657 96 q 616 102 626 96 q 600 120 606 109 q 589 145 593 131 q 586 176 586 160 m 136 322 l 693 728 l 627 791 l 71 386 l 136 322 z "},"|":{"ha":833,"x_min":361,"x_max":479,"o":"m 479 -278 l 479 987 l 361 987 l 361 -278 l 479 -278 z "},"¦":{"ha":833,"x_min":331,"x_max":503,"o":"m 331 -183 l 503 -183 l 503 356 l 331 356 l 331 -183 m 503 473 l 503 987 l 331 987 l 331 473 l 503 473 z "},"†":{"ha":833,"x_min":72,"x_max":743,"o":"m 743 576 l 743 734 l 500 734 l 500 987 l 311 987 l 311 734 l 72 734 l 72 576 l 311 576 l 311 0 l 500 0 l 500 576 l 743 576 z "},"‡":{"ha":833,"x_min":87,"x_max":758,"o":"m 758 0 l 758 151 l 515 151 l 515 581 l 758 581 l 758 734 l 515 734 l 515 987 l 326 987 l 326 734 l 87 734 l 87 581 l 326 581 l 326 151 l 87 151 l 87 0 l 326 0 l 326 -282 l 515 -282 l 515 0 l 758 0 z "},"©":{"ha":833,"x_min":60,"x_max":783,"o":"m 585 300 l 505 300 q 500 261 505 277 q 487 233 496 244 q 457 215 475 220 q 414 209 439 209 q 372 218 390 209 q 341 245 353 228 q 322 284 328 261 q 316 336 316 308 l 316 398 q 322 449 316 426 q 341 490 328 473 q 372 516 353 507 q 414 526 390 526 q 455 520 437 526 q 484 503 473 515 q 500 475 495 492 q 506 434 506 458 l 585 434 q 575 500 585 471 q 546 549 565 529 q 490 583 524 572 q 414 595 457 595 q 341 580 374 595 q 285 540 308 566 q 250 477 262 513 q 237 397 237 441 l 237 336 q 250 256 237 292 q 285 195 262 220 q 341 155 308 169 q 414 140 374 140 q 490 152 457 140 q 546 186 524 163 q 574 234 564 205 q 585 300 585 262 m 122 368 q 145 492 122 435 q 210 593 169 550 q 305 660 250 635 q 422 684 359 684 q 538 660 484 684 q 633 593 592 635 q 697 492 673 550 q 720 368 720 435 q 697 242 720 300 q 633 141 673 184 q 538 73 592 98 q 422 49 484 49 q 305 73 359 49 q 210 141 250 98 q 145 242 169 184 q 122 368 122 300 m 60 368 q 89 217 60 287 q 167 96 117 148 q 281 16 216 45 q 422 -14 347 -14 q 562 16 496 -14 q 677 96 628 45 q 754 217 726 148 q 783 368 783 287 q 754 517 783 448 q 677 638 726 587 q 562 718 628 689 q 422 747 496 747 q 281 718 347 747 q 167 638 216 689 q 89 517 117 587 q 60 368 60 448 z "},"®":{"ha":833,"x_min":60,"x_max":781,"o":"m 60 367 q 88 217 60 286 q 165 96 117 147 q 280 15 214 44 q 420 -14 346 -14 q 561 15 495 -14 q 675 96 627 44 q 753 217 724 147 q 781 367 781 286 q 753 517 781 448 q 675 638 724 587 q 561 718 627 689 q 420 747 495 747 q 280 718 346 747 q 165 638 214 689 q 88 517 117 587 q 60 367 60 448 m 121 367 q 145 492 121 434 q 209 593 168 550 q 304 660 250 635 q 420 684 359 684 q 537 660 482 684 q 632 593 591 635 q 696 492 673 550 q 720 367 720 434 q 696 242 720 300 q 632 141 673 184 q 537 74 591 98 q 420 50 482 50 q 304 74 359 50 q 209 141 250 98 q 145 242 168 184 q 121 367 121 300 m 347 328 l 428 328 l 507 157 l 586 157 l 487 352 q 555 394 532 368 q 579 458 579 420 q 534 557 579 524 q 414 589 489 589 l 271 589 l 271 157 l 347 157 l 347 328 m 347 397 l 347 522 l 414 522 q 483 507 463 522 q 503 456 503 493 q 496 431 503 441 q 479 412 490 420 q 454 401 468 405 q 425 397 439 397 l 347 397 z "},"™":{"ha":833,"x_min":78,"x_max":770,"o":"m 686 862 l 686 620 l 770 620 l 770 987 l 672 987 l 585 735 l 504 987 l 400 987 l 400 620 l 484 620 l 484 863 l 562 620 l 609 620 l 686 862 m 352 916 l 352 987 l 78 987 l 78 916 l 170 916 l 170 622 l 262 622 l 262 916 l 352 916 z "},"°":{"ha":833,"x_min":242,"x_max":606,"o":"m 242 815 q 257 743 242 777 q 296 685 271 710 q 355 646 321 660 q 426 631 388 631 q 495 646 463 631 q 553 685 528 660 q 591 743 577 710 q 606 815 606 777 q 591 887 606 853 q 553 946 577 920 q 495 986 528 971 q 426 1001 463 1001 q 355 986 388 1001 q 296 946 321 971 q 257 887 271 920 q 242 815 242 853 m 340 815 q 347 849 340 833 q 366 878 354 865 q 393 896 378 889 q 426 902 408 902 q 458 896 443 902 q 484 878 473 889 q 502 849 495 865 q 508 815 508 833 q 502 781 508 797 q 484 755 495 766 q 458 737 473 743 q 426 731 443 731 q 393 738 408 731 q 366 755 378 744 q 347 782 354 766 q 340 815 340 797 z "},"*":{"ha":833,"x_min":104,"x_max":798,"o":"m 370 604 l 182 382 l 303 298 l 446 543 l 589 291 l 710 378 l 528 597 l 798 659 l 753 801 l 501 690 l 528 987 l 379 987 l 404 695 l 149 808 l 104 669 l 370 604 z "},"#":{"ha":833,"x_min":28,"x_max":785,"o":"m 440 278 l 391 0 l 512 0 l 562 278 l 733 278 l 733 393 l 582 393 l 617 589 l 785 589 l 785 705 l 637 705 l 688 987 l 566 987 l 516 705 l 380 705 l 430 987 l 309 987 l 258 705 l 79 705 l 79 589 l 238 589 l 203 393 l 28 393 l 28 278 l 182 278 l 133 0 l 254 0 l 304 278 l 440 278 m 324 393 l 359 589 l 495 589 l 460 393 l 324 393 z "},"&":{"ha":833,"x_min":51,"x_max":838,"o":"m 51 252 q 71 144 51 193 q 130 60 92 96 q 223 5 168 25 q 347 -14 278 -14 q 426 -7 389 -14 q 496 12 463 -1 q 537 32 517 20 q 578 56 558 43 l 623 0 l 838 0 l 711 163 q 788 307 764 227 q 813 480 813 387 l 652 480 q 640 381 652 427 q 606 296 628 335 l 439 511 l 493 555 q 548 600 522 576 q 592 651 573 624 q 622 708 611 677 q 633 773 633 739 q 616 861 633 819 q 571 934 600 902 q 499 983 541 965 q 407 1002 458 1002 q 298 984 347 1002 q 214 932 249 966 q 161 852 180 899 q 142 746 142 804 q 151 677 142 711 q 174 611 159 644 q 198 567 184 589 q 227 520 211 544 l 214 511 q 149 459 178 486 q 99 404 120 433 q 63 334 76 371 q 51 252 51 296 m 355 137 q 308 146 329 137 q 271 173 286 156 q 248 212 256 189 q 240 262 240 235 q 242 293 240 277 q 252 326 245 309 q 273 365 259 344 q 307 402 288 387 l 311 406 l 489 174 q 463 160 476 166 q 436 150 450 155 q 396 140 416 144 q 355 137 376 137 m 313 746 q 319 786 313 767 q 336 819 325 804 q 366 841 348 833 q 407 849 383 849 q 435 842 422 849 q 456 822 448 834 q 470 794 465 810 q 475 762 475 779 q 475 746 475 756 q 471 722 475 735 q 455 694 466 709 q 423 666 444 680 l 360 619 q 343 647 351 633 q 330 675 336 661 q 318 711 322 693 q 313 746 313 728 z "},"@":{"ha":833,"x_min":25,"x_max":796,"o":"m 793 558 q 774 730 796 652 q 707 863 751 807 q 598 948 663 918 q 454 978 534 978 q 285 938 361 978 q 153 827 208 897 q 64 663 96 757 q 28 461 32 568 q 46 267 25 353 q 115 120 68 180 q 233 27 161 60 q 404 -5 305 -5 q 452 -2 427 -5 q 503 7 477 1 q 550 23 528 14 q 591 45 573 33 l 569 137 q 534 122 553 129 q 494 111 515 115 q 450 102 472 105 q 406 100 427 100 q 289 122 340 100 q 204 190 237 144 q 154 302 170 235 q 142 461 138 370 q 167 627 144 551 q 229 758 189 703 q 322 843 267 812 q 447 874 378 874 q 555 855 508 874 q 633 797 602 836 q 679 697 664 758 q 690 553 693 636 q 685 455 690 500 q 668 377 679 410 q 643 326 657 345 q 610 308 628 308 q 597 309 604 308 q 585 316 590 311 q 577 332 580 321 q 576 363 575 343 l 606 720 q 551 756 585 741 q 465 772 517 772 q 372 750 413 772 q 300 690 330 729 q 250 594 269 650 q 223 469 231 538 q 225 362 218 410 q 251 280 232 314 q 300 227 270 245 q 372 209 331 209 q 410 215 392 209 q 445 233 429 222 q 466 252 456 241 q 485 275 476 262 q 502 249 492 260 q 523 229 511 237 q 555 213 537 218 q 592 208 572 208 q 682 238 644 208 q 743 319 719 269 q 779 432 767 369 q 793 558 791 494 m 340 469 q 356 554 345 517 q 382 616 366 591 q 421 655 399 642 q 474 668 444 668 q 487 667 482 668 q 495 666 492 667 l 469 363 l 469 354 q 456 338 463 345 q 444 326 450 331 q 424 316 434 319 q 403 313 413 313 q 373 323 386 313 q 352 354 360 333 q 341 402 345 373 q 340 469 338 431 z "},"§":{"ha":833,"x_min":58,"x_max":793,"o":"m 793 322 q 771 429 793 384 q 709 507 750 473 q 651 544 684 527 q 579 574 618 560 q 527 592 555 584 q 469 608 499 600 q 406 626 433 618 q 356 643 378 635 q 329 655 341 649 q 308 667 317 661 q 277 701 286 682 q 269 745 269 719 q 278 785 269 766 q 307 818 287 804 q 357 841 326 832 q 429 849 387 849 q 499 838 469 849 q 550 809 530 827 q 581 765 570 790 q 591 711 591 740 l 780 711 q 755 835 780 781 q 686 926 731 889 q 576 982 641 963 q 429 1001 511 1001 q 285 983 350 1001 q 175 931 220 964 q 104 849 129 897 q 79 743 79 802 q 90 664 79 699 q 119 600 100 629 q 142 573 130 586 q 171 548 155 559 q 137 525 153 538 q 109 498 121 513 q 73 437 85 471 q 60 363 60 404 q 82 256 60 301 q 146 178 104 212 q 208 139 173 157 q 283 107 242 122 q 371 80 323 93 q 456 54 420 67 q 507 35 485 44 q 544 16 528 25 q 576 -18 567 0 q 586 -58 586 -35 q 579 -91 586 -75 q 561 -118 573 -106 q 508 -147 542 -136 q 426 -157 473 -157 q 361 -152 393 -157 q 304 -131 329 -146 q 262 -91 278 -116 q 247 -25 247 -65 l 58 -26 q 90 -162 58 -107 q 174 -249 121 -216 q 291 -296 225 -282 q 426 -310 357 -310 q 569 -293 505 -310 q 679 -244 633 -277 q 749 -165 724 -212 q 774 -57 774 -118 q 765 19 774 -15 q 739 79 756 52 q 714 110 728 96 q 683 138 700 125 q 713 157 699 146 q 739 180 727 168 q 779 242 765 207 q 793 322 793 278 m 403 450 q 456 433 432 441 q 500 417 481 425 q 536 401 520 409 q 564 384 552 393 q 598 348 588 367 q 608 304 608 329 q 602 268 608 285 q 586 237 596 251 q 569 219 578 227 q 547 205 559 211 q 500 220 524 213 q 449 235 475 227 q 349 268 388 253 q 288 298 310 282 q 257 334 265 315 q 248 380 248 353 q 252 415 248 399 q 264 445 256 431 q 282 465 272 456 q 305 480 292 474 q 352 465 328 472 q 403 450 376 457 z "},"¶":{"ha":833,"x_min":146,"x_max":683,"o":"m 536 0 l 683 0 l 683 987 l 480 987 q 337 963 399 987 q 233 897 275 939 q 168 796 190 854 q 146 670 146 738 q 168 543 146 602 q 233 443 190 485 q 337 376 275 400 q 480 353 399 353 l 536 353 l 536 0 z "},"^":{"ha":833,"x_min":144,"x_max":713,"o":"m 144 466 l 296 466 l 414 774 l 428 831 l 442 774 l 562 466 l 713 466 l 497 987 l 361 987 l 144 466 z "},"~":{"ha":833,"x_min":18,"x_max":776,"o":"m 776 510 l 648 523 q 641 482 648 502 q 621 446 633 462 q 593 421 609 431 q 558 412 576 412 q 528 415 543 412 q 498 425 513 418 q 467 444 483 433 q 434 469 451 454 q 386 507 410 490 q 336 534 361 524 q 283 553 311 547 q 225 559 256 559 q 141 541 179 559 q 75 490 102 522 q 33 411 47 456 q 18 310 18 365 l 140 295 q 148 336 140 316 q 169 371 155 355 q 199 395 182 386 q 234 404 216 404 q 267 400 251 404 q 299 388 283 396 q 329 371 314 381 q 360 347 345 360 q 410 307 386 323 q 460 279 435 290 q 511 262 485 267 q 567 256 537 256 q 652 275 613 256 q 718 328 690 294 q 761 408 745 361 q 776 510 776 455 z "},"Á":{"ha":833,"x_min":19,"x_max":833,"o":"m 574 206 l 632 0 l 833 0 l 515 987 l 342 987 l 19 0 l 220 0 l 278 206 l 574 206 m 325 368 l 429 732 l 530 368 l 325 368 m 477 1236 l 350 1047 l 496 1047 l 684 1236 l 477 1236 z "},"Ă":{"ha":833,"x_min":19,"x_max":833,"o":"m 574 206 l 632 0 l 833 0 l 515 987 l 342 987 l 19 0 l 220 0 l 278 206 l 574 206 m 325 368 l 429 732 l 530 368 l 325 368 m 661 1259 l 524 1259 q 519 1225 524 1242 q 503 1196 514 1208 q 474 1176 492 1183 q 430 1168 456 1168 q 386 1176 404 1168 q 356 1196 368 1183 q 339 1225 345 1208 q 334 1259 334 1242 l 199 1259 q 215 1179 199 1215 q 261 1116 231 1142 q 334 1075 291 1090 q 430 1061 376 1061 q 526 1075 483 1061 q 599 1116 568 1090 q 645 1179 629 1142 q 661 1259 661 1215 z "},"Â":{"ha":833,"x_min":19,"x_max":833,"o":"m 574 206 l 632 0 l 833 0 l 515 987 l 342 987 l 19 0 l 220 0 l 278 206 l 574 206 m 325 368 l 429 732 l 530 368 l 325 368 m 684 1100 l 484 1265 l 375 1265 l 178 1101 l 178 1081 l 326 1081 l 429 1167 l 534 1081 l 684 1081 l 684 1100 z "},"Ä":{"ha":833,"x_min":19,"x_max":833,"o":"m 574 206 l 632 0 l 833 0 l 515 987 l 342 987 l 19 0 l 220 0 l 278 206 l 574 206 m 325 368 l 429 732 l 530 368 l 325 368 m 171 1162 q 197 1102 171 1126 q 263 1078 223 1078 q 329 1102 303 1078 q 355 1162 355 1126 q 330 1222 355 1198 q 263 1247 304 1247 q 197 1222 222 1247 q 171 1162 171 1198 m 496 1162 q 522 1101 496 1126 q 589 1077 548 1077 q 655 1101 629 1077 q 681 1162 681 1126 q 655 1222 681 1197 q 589 1246 630 1246 q 522 1222 547 1246 q 496 1162 496 1197 z "},"À":{"ha":833,"x_min":19,"x_max":833,"o":"m 574 206 l 632 0 l 833 0 l 515 987 l 342 987 l 19 0 l 220 0 l 278 206 l 574 206 m 325 368 l 429 732 l 530 368 l 325 368 m 506 1049 l 386 1238 l 178 1238 l 357 1049 l 506 1049 z "},"Ā":{"ha":833,"x_min":19,"x_max":833,"o":"m 574 206 l 632 0 l 833 0 l 515 987 l 342 987 l 19 0 l 220 0 l 278 206 l 574 206 m 325 368 l 429 732 l 530 368 l 325 368 m 679 1095 l 679 1206 l 184 1206 l 184 1095 l 679 1095 z "},"Ą":{"ha":833,"x_min":19,"x_max":833,"o":"m 515 987 l 342 987 l 19 0 l 220 0 l 278 206 l 574 206 l 629 9 q 592 -23 608 -5 q 564 -58 575 -40 q 544 -102 551 -79 q 537 -147 537 -125 q 549 -208 537 -182 q 581 -252 561 -234 q 629 -278 602 -269 q 688 -288 656 -288 q 765 -278 734 -288 q 814 -258 795 -268 l 782 -153 q 759 -162 772 -157 q 726 -167 745 -167 q 690 -154 701 -167 q 680 -121 680 -140 q 685 -86 680 -102 q 703 -54 690 -69 q 735 -26 715 -39 q 786 0 755 -12 l 833 0 l 515 987 m 325 368 l 429 732 l 530 368 l 325 368 z "},"Å":{"ha":833,"x_min":19,"x_max":833,"o":"m 574 206 l 632 0 l 833 0 l 515 987 l 342 987 l 19 0 l 220 0 l 278 206 l 574 206 m 325 368 l 429 732 l 530 368 l 325 368 m 286 1175 q 297 1122 286 1146 q 328 1081 308 1098 q 374 1054 347 1063 q 430 1044 400 1044 q 486 1054 460 1044 q 530 1081 511 1063 q 560 1122 549 1098 q 571 1175 571 1146 q 560 1227 571 1203 q 530 1270 549 1252 q 486 1297 511 1287 q 430 1308 460 1308 q 374 1297 400 1308 q 328 1270 347 1287 q 297 1227 308 1252 q 286 1175 286 1203 m 363 1175 q 368 1202 363 1190 q 381 1223 373 1214 q 403 1237 390 1232 q 430 1242 416 1242 q 456 1238 444 1242 q 477 1224 468 1233 q 490 1202 485 1215 q 494 1175 494 1190 q 489 1146 494 1159 q 475 1125 484 1134 q 455 1113 467 1117 q 430 1108 444 1108 q 404 1113 416 1108 q 382 1126 391 1118 q 368 1147 374 1135 q 363 1175 363 1160 z "},"Ǻ":{"ha":833,"x_min":19,"x_max":833,"o":"m 574 206 l 632 0 l 833 0 l 515 987 l 342 987 l 19 0 l 220 0 l 278 206 l 574 206 m 325 368 l 429 732 l 530 368 l 325 368 m 505 1447 l 381 1309 l 505 1309 l 683 1447 l 505 1447 m 295 1156 q 306 1107 295 1129 q 334 1068 316 1084 q 377 1043 353 1052 q 430 1034 402 1034 q 482 1042 458 1034 q 524 1067 506 1051 q 552 1106 542 1084 q 562 1156 562 1129 q 552 1206 562 1183 q 524 1246 542 1229 q 482 1272 506 1262 q 430 1281 458 1281 q 377 1272 402 1281 q 334 1246 353 1262 q 306 1206 316 1229 q 295 1156 295 1183 m 370 1156 q 387 1200 370 1183 q 430 1217 404 1217 q 472 1200 456 1217 q 488 1156 488 1183 q 472 1114 488 1131 q 430 1097 456 1097 q 387 1114 404 1097 q 370 1156 370 1131 z "},"Ã":{"ha":833,"x_min":19,"x_max":833,"o":"m 574 206 l 632 0 l 833 0 l 515 987 l 342 987 l 19 0 l 220 0 l 278 206 l 574 206 m 325 368 l 429 732 l 530 368 l 325 368 m 676 1262 l 581 1283 q 577 1257 581 1269 q 565 1237 572 1245 q 545 1222 557 1227 q 520 1217 533 1217 q 471 1226 494 1217 q 426 1247 448 1236 q 379 1267 403 1258 q 328 1276 355 1276 q 268 1261 295 1276 q 222 1223 241 1246 q 193 1169 203 1199 q 182 1109 182 1139 l 277 1089 q 282 1117 277 1105 q 296 1138 287 1130 q 315 1151 304 1147 q 338 1156 326 1156 q 385 1146 364 1156 q 428 1126 406 1137 q 473 1106 449 1115 q 530 1097 497 1097 q 590 1111 563 1097 q 636 1149 616 1125 q 666 1202 655 1172 q 676 1262 676 1232 z "},"Ǽ":{"ha":833,"x_min":33,"x_max":798,"o":"m 798 0 l 798 153 l 616 153 l 616 431 l 763 431 l 763 585 l 616 585 l 616 833 l 784 833 l 784 987 l 357 987 l 33 0 l 224 0 l 288 227 l 435 227 l 435 0 l 798 0 m 333 389 l 435 750 l 435 389 l 333 389 m 542 1236 l 415 1047 l 562 1047 l 749 1236 l 542 1236 z "},"Ć":{"ha":833,"x_min":54,"x_max":775,"o":"m 774 309 l 584 309 q 569 233 581 264 q 536 180 557 201 q 485 151 515 160 q 418 141 455 141 q 367 148 390 141 q 326 168 345 154 q 296 198 309 180 q 273 240 283 216 q 253 321 260 275 q 247 427 247 368 l 247 561 q 251 642 247 604 q 264 711 255 680 q 295 781 275 751 q 342 827 314 811 q 377 842 358 837 q 419 846 397 846 q 491 835 461 846 q 542 802 522 824 q 572 747 562 780 q 585 669 583 713 l 775 669 q 743 808 768 747 q 672 913 717 870 q 564 979 627 956 q 419 1002 500 1002 q 316 988 364 1002 q 229 948 269 974 q 149 873 184 918 q 92 773 113 829 q 63 673 73 727 q 54 559 54 619 l 54 427 q 64 306 54 363 q 94 201 75 249 q 144 115 115 154 q 212 47 174 75 q 305 2 253 18 q 418 -14 357 -14 q 559 8 495 -14 q 669 73 623 31 q 742 175 715 115 q 774 309 770 235 m 511 1236 l 384 1046 l 530 1046 l 718 1236 l 511 1236 z "},"Č":{"ha":833,"x_min":54,"x_max":775,"o":"m 774 309 l 584 309 q 569 233 581 264 q 536 180 557 201 q 485 151 515 160 q 418 141 455 141 q 367 148 390 141 q 326 168 345 154 q 296 198 309 180 q 273 240 283 216 q 253 321 260 275 q 247 427 247 368 l 247 561 q 251 642 247 604 q 264 711 255 680 q 295 781 275 751 q 342 827 314 811 q 377 842 358 837 q 419 846 397 846 q 491 835 461 846 q 542 802 522 824 q 572 747 562 780 q 585 669 583 713 l 775 669 q 743 808 768 747 q 672 913 717 870 q 564 979 627 956 q 419 1002 500 1002 q 316 988 364 1002 q 229 948 269 974 q 149 873 184 918 q 92 773 113 829 q 63 673 73 727 q 54 559 54 619 l 54 427 q 64 306 54 363 q 94 201 75 249 q 144 115 115 154 q 212 47 174 75 q 305 2 253 18 q 418 -14 357 -14 q 559 8 495 -14 q 669 73 623 31 q 742 175 715 115 q 774 309 770 235 m 463 1179 l 363 1265 l 203 1265 l 203 1251 l 404 1080 l 522 1080 l 723 1252 l 723 1265 l 562 1265 l 463 1179 z "},"Ç":{"ha":833,"x_min":54,"x_max":775,"o":"m 774 309 l 584 309 q 569 233 581 264 q 536 180 557 201 q 485 151 515 160 q 418 141 455 141 q 367 148 390 141 q 326 168 345 154 q 296 198 309 180 q 273 240 283 216 q 253 321 260 275 q 247 427 247 368 l 247 561 q 251 642 247 604 q 264 711 255 680 q 295 781 275 751 q 342 827 314 811 q 377 842 358 837 q 419 846 397 846 q 491 835 461 846 q 542 802 522 824 q 572 747 562 780 q 585 669 583 713 l 775 669 q 743 808 768 747 q 672 913 717 870 q 564 979 627 956 q 419 1002 500 1002 q 316 988 364 1002 q 229 948 269 974 q 149 873 184 918 q 92 773 113 829 q 63 673 73 727 q 54 559 54 619 l 54 427 q 64 306 54 363 q 94 201 75 249 q 144 115 115 154 q 212 47 174 75 q 305 2 253 18 q 418 -14 357 -14 q 559 8 495 -14 q 669 73 623 31 q 742 175 715 115 q 774 309 770 235 m 493 7 l 353 7 l 332 -89 q 377 -94 358 -91 q 408 -104 396 -97 q 425 -119 419 -110 q 430 -142 430 -129 q 424 -169 430 -158 q 406 -186 417 -180 q 381 -196 395 -193 q 349 -199 366 -199 l 354 -307 q 455 -296 412 -307 q 528 -263 498 -284 q 572 -214 557 -243 q 587 -149 587 -184 q 578 -99 587 -119 q 555 -64 570 -78 q 523 -42 541 -50 q 486 -31 505 -35 l 493 7 z "},"Ĉ":{"ha":833,"x_min":54,"x_max":775,"o":"m 774 309 l 584 309 q 569 233 581 264 q 536 180 557 201 q 485 151 515 160 q 418 141 455 141 q 367 148 390 141 q 326 168 345 154 q 296 198 309 180 q 273 240 283 216 q 253 321 260 275 q 247 427 247 368 l 247 561 q 251 642 247 604 q 264 711 255 680 q 295 781 275 751 q 342 827 314 811 q 377 842 358 837 q 419 846 397 846 q 491 835 461 846 q 542 802 522 824 q 572 747 562 780 q 585 669 583 713 l 775 669 q 743 808 768 747 q 672 913 717 870 q 564 979 627 956 q 419 1002 500 1002 q 316 988 364 1002 q 229 948 269 974 q 149 873 184 918 q 92 773 113 829 q 63 673 73 727 q 54 559 54 619 l 54 427 q 64 306 54 363 q 94 201 75 249 q 144 115 115 154 q 212 47 174 75 q 305 2 253 18 q 418 -14 357 -14 q 559 8 495 -14 q 669 73 623 31 q 742 175 715 115 q 774 309 770 235 m 718 1099 l 518 1264 l 409 1264 l 212 1101 l 212 1080 l 359 1080 l 463 1166 l 568 1080 l 718 1080 l 718 1099 z "},"Ď":{"ha":833,"x_min":85,"x_max":773,"o":"m 85 0 l 350 0 q 474 16 416 0 q 580 63 532 33 q 656 127 621 89 q 716 211 690 165 q 758 323 743 262 q 773 452 773 384 l 773 534 q 757 668 773 605 q 712 783 741 731 q 653 862 687 826 q 577 924 620 899 q 469 971 528 954 q 340 987 409 987 l 85 987 l 85 0 m 277 833 l 340 833 q 405 825 375 833 q 458 803 434 817 q 514 754 490 784 q 553 686 538 724 q 572 616 566 654 q 578 535 578 578 l 578 452 q 572 368 578 407 q 553 297 566 329 q 518 233 538 260 q 471 188 497 205 q 416 162 446 171 q 350 153 385 153 l 277 153 l 277 833 m 365 1174 l 266 1259 l 105 1259 l 105 1246 l 306 1075 l 425 1075 l 625 1246 l 625 1259 l 465 1259 l 365 1174 z "},"Đ":{"ha":833,"x_min":-28,"x_max":783,"o":"m 95 0 l 360 0 q 532 33 454 0 q 666 127 610 66 q 752 270 722 186 q 783 452 783 353 l 783 534 q 752 717 783 633 q 665 861 722 800 q 529 954 608 920 q 351 987 449 987 l 95 987 l 95 558 l -28 558 l -28 436 l 95 436 l 95 0 m 441 436 l 441 558 l 287 558 l 287 833 l 351 833 q 453 811 409 833 q 528 750 498 789 q 573 656 558 711 q 589 535 589 602 l 589 452 q 573 327 589 382 q 528 233 557 271 q 456 174 498 194 q 360 153 414 153 l 287 153 l 287 436 l 441 436 z "},"É":{"ha":833,"x_min":100,"x_max":765,"o":"m 696 433 l 696 583 l 291 583 l 291 832 l 763 832 l 763 987 l 100 987 l 100 0 l 765 0 l 765 154 l 291 154 l 291 433 l 696 433 m 483 1230 l 356 1041 l 503 1041 l 690 1230 l 483 1230 z "},"Ĕ":{"ha":833,"x_min":100,"x_max":765,"o":"m 696 433 l 696 583 l 291 583 l 291 832 l 763 832 l 763 987 l 100 987 l 100 0 l 765 0 l 765 154 l 291 154 l 291 433 l 696 433 m 667 1253 l 530 1253 q 525 1219 530 1236 q 509 1190 520 1202 q 480 1170 498 1177 q 436 1162 462 1162 q 392 1170 410 1162 q 362 1190 374 1177 q 346 1219 351 1202 q 340 1253 340 1236 l 205 1253 q 221 1173 205 1209 q 267 1110 237 1136 q 340 1069 297 1084 q 436 1055 382 1055 q 532 1069 489 1055 q 605 1110 574 1084 q 651 1173 635 1136 q 667 1253 667 1209 z "},"Ě":{"ha":833,"x_min":100,"x_max":765,"o":"m 696 433 l 696 583 l 291 583 l 291 832 l 763 832 l 763 987 l 100 987 l 100 0 l 765 0 l 765 154 l 291 154 l 291 433 l 696 433 m 435 1174 l 336 1259 l 175 1259 l 175 1246 l 376 1075 l 494 1075 l 695 1246 l 695 1259 l 534 1259 l 435 1174 z "},"Ê":{"ha":833,"x_min":100,"x_max":765,"o":"m 696 433 l 696 583 l 291 583 l 291 832 l 763 832 l 763 987 l 100 987 l 100 0 l 765 0 l 765 154 l 291 154 l 291 433 l 696 433 m 690 1094 l 490 1259 l 381 1259 l 184 1095 l 184 1075 l 332 1075 l 435 1161 l 540 1075 l 690 1075 l 690 1094 z "},"Ë":{"ha":833,"x_min":100,"x_max":765,"o":"m 696 433 l 696 583 l 291 583 l 291 832 l 763 832 l 763 987 l 100 987 l 100 0 l 765 0 l 765 154 l 291 154 l 291 433 l 696 433 m 177 1156 q 203 1096 177 1120 q 269 1072 229 1072 q 335 1096 309 1072 q 361 1156 361 1120 q 336 1216 361 1192 q 269 1241 310 1241 q 203 1216 229 1241 q 177 1156 177 1192 m 503 1156 q 528 1095 503 1120 q 595 1071 554 1071 q 661 1095 635 1071 q 687 1156 687 1120 q 662 1216 687 1191 q 595 1240 636 1240 q 528 1216 553 1240 q 503 1156 503 1191 z "},"Ė":{"ha":833,"x_min":100,"x_max":765,"o":"m 696 433 l 696 583 l 291 583 l 291 832 l 763 832 l 763 987 l 100 987 l 100 0 l 765 0 l 765 154 l 291 154 l 291 433 l 696 433 m 332 1166 q 359 1098 332 1125 q 434 1072 387 1072 q 509 1098 481 1072 q 536 1166 536 1125 q 509 1234 536 1207 q 434 1261 481 1261 q 359 1234 387 1261 q 332 1166 332 1207 z "},"È":{"ha":833,"x_min":100,"x_max":765,"o":"m 696 433 l 696 583 l 291 583 l 291 832 l 763 832 l 763 987 l 100 987 l 100 0 l 765 0 l 765 154 l 291 154 l 291 433 l 696 433 m 512 1043 l 392 1232 l 184 1232 l 363 1043 l 512 1043 z "},"Ē":{"ha":833,"x_min":100,"x_max":765,"o":"m 696 433 l 696 583 l 291 583 l 291 832 l 763 832 l 763 987 l 100 987 l 100 0 l 765 0 l 765 154 l 291 154 l 291 433 l 696 433 m 684 1088 l 684 1200 l 189 1200 l 189 1088 l 684 1088 z "},"Ŋ":{"ha":833,"x_min":100,"x_max":743,"o":"m 743 987 l 552 987 l 552 389 l 292 985 l 291 987 l 100 987 l 100 0 l 291 0 l 291 597 l 552 0 l 552 -26 q 545 -82 552 -59 q 524 -120 538 -106 q 500 -136 513 -131 q 469 -142 486 -142 q 434 -140 452 -142 q 402 -134 417 -138 l 393 -285 q 440 -294 418 -292 q 488 -296 462 -296 q 594 -279 547 -296 q 675 -227 642 -261 q 725 -142 707 -193 q 743 -26 743 -92 l 743 987 z "},"Ę":{"ha":833,"x_min":100,"x_max":765,"o":"m 696 433 l 696 583 l 291 583 l 291 832 l 763 832 l 763 987 l 100 987 l 100 0 l 511 0 q 481 -28 494 -14 q 458 -59 468 -43 q 438 -102 445 -80 q 431 -147 431 -125 q 443 -208 431 -182 q 475 -252 455 -234 q 523 -278 496 -269 q 582 -288 551 -288 q 659 -278 629 -288 q 708 -258 689 -268 l 676 -153 q 653 -162 667 -157 q 620 -167 640 -167 q 585 -154 595 -167 q 574 -121 574 -140 q 579 -86 574 -102 q 597 -54 585 -69 q 629 -26 609 -39 q 680 0 650 -12 l 765 0 l 765 154 l 291 154 l 291 433 l 696 433 z "},"Ð":{"ha":833,"x_min":-28,"x_max":783,"o":"m 95 0 l 360 0 q 532 33 454 0 q 666 127 610 66 q 752 270 722 186 q 783 452 783 353 l 783 534 q 752 717 783 633 q 665 861 722 800 q 529 954 608 920 q 351 987 449 987 l 95 987 l 95 558 l -28 558 l -28 436 l 95 436 l 95 0 m 441 436 l 441 558 l 287 558 l 287 833 l 351 833 q 453 811 409 833 q 528 750 498 789 q 573 656 558 711 q 589 535 589 602 l 589 452 q 573 327 589 382 q 528 233 557 271 q 456 174 498 194 q 360 153 414 153 l 287 153 l 287 436 l 441 436 z "},"Ğ":{"ha":833,"x_min":59,"x_max":768,"o":"m 768 115 l 767 505 l 414 505 l 414 362 l 577 362 l 576 183 q 554 166 569 174 q 521 153 540 159 q 480 143 502 146 q 436 140 458 140 q 371 152 399 140 q 320 184 342 163 q 297 214 307 197 q 278 250 286 231 q 258 328 265 284 q 251 426 251 372 l 251 562 q 256 641 251 604 q 271 707 261 677 q 301 774 283 746 q 343 821 320 803 q 381 840 361 833 q 423 847 401 847 q 492 837 463 847 q 540 805 521 826 q 567 758 557 786 q 581 694 576 730 l 767 694 q 735 823 760 766 q 669 920 711 880 q 564 980 626 959 q 418 1001 502 1001 q 315 986 364 1001 q 225 942 267 971 q 160 881 190 916 q 109 802 131 846 q 72 691 85 752 q 59 560 59 631 l 59 426 q 72 289 59 352 q 111 176 85 226 q 166 95 134 130 q 237 35 198 60 q 325 -1 277 12 q 427 -14 373 -14 q 544 -2 490 -14 q 642 28 598 9 q 718 70 686 47 q 768 115 749 93 m 675 1259 l 538 1259 q 533 1224 538 1241 q 517 1196 528 1208 q 488 1175 506 1183 q 444 1168 470 1168 q 400 1175 418 1168 q 370 1196 382 1183 q 354 1224 359 1208 q 349 1259 349 1241 l 213 1259 q 229 1178 213 1215 q 275 1116 245 1141 q 348 1075 305 1089 q 444 1060 391 1060 q 540 1075 497 1060 q 613 1116 583 1089 q 659 1178 643 1141 q 675 1259 675 1215 z "},"Ĝ":{"ha":833,"x_min":59,"x_max":768,"o":"m 768 115 l 767 505 l 414 505 l 414 362 l 577 362 l 576 183 q 554 166 569 174 q 521 153 540 159 q 480 143 502 146 q 436 140 458 140 q 371 152 399 140 q 320 184 342 163 q 297 214 307 197 q 278 250 286 231 q 258 328 265 284 q 251 426 251 372 l 251 562 q 256 641 251 604 q 271 707 261 677 q 301 774 283 746 q 343 821 320 803 q 381 840 361 833 q 423 847 401 847 q 492 837 463 847 q 540 805 521 826 q 567 758 557 786 q 581 694 576 730 l 767 694 q 735 823 760 766 q 669 920 711 880 q 564 980 626 959 q 418 1001 502 1001 q 315 986 364 1001 q 225 942 267 971 q 160 881 190 916 q 109 802 131 846 q 72 691 85 752 q 59 560 59 631 l 59 426 q 72 289 59 352 q 111 176 85 226 q 166 95 134 130 q 237 35 198 60 q 325 -1 277 12 q 427 -14 373 -14 q 544 -2 490 -14 q 642 28 598 9 q 718 70 686 47 q 768 115 749 93 m 698 1099 l 498 1264 l 389 1264 l 193 1101 l 193 1080 l 340 1080 l 444 1166 l 548 1080 l 698 1080 l 698 1099 z "},"Ģ":{"ha":833,"x_min":59,"x_max":768,"o":"m 768 115 l 767 505 l 414 505 l 414 362 l 577 362 l 576 183 q 554 166 569 174 q 521 153 540 159 q 480 143 502 146 q 436 140 458 140 q 371 152 399 140 q 320 184 342 163 q 297 214 307 197 q 278 250 286 231 q 258 328 265 284 q 251 426 251 372 l 251 562 q 256 641 251 604 q 271 707 261 677 q 301 774 283 746 q 343 821 320 803 q 381 840 361 833 q 423 847 401 847 q 492 837 463 847 q 540 805 521 826 q 567 758 557 786 q 581 694 576 730 l 767 694 q 735 823 760 766 q 669 920 711 880 q 564 980 626 959 q 418 1001 502 1001 q 315 986 364 1001 q 225 942 267 971 q 160 881 190 916 q 109 802 131 846 q 72 691 85 752 q 59 560 59 631 l 59 426 q 72 289 59 352 q 111 176 85 226 q 166 95 134 130 q 237 35 198 60 q 325 -1 277 12 q 427 -14 373 -14 q 544 -2 490 -14 q 642 28 598 9 q 718 70 686 47 q 768 115 749 93 m 519 -96 l 519 -49 l 390 -49 l 390 -98 q 377 -194 390 -149 q 339 -281 365 -238 l 416 -332 q 494 -220 469 -286 q 519 -96 519 -155 z "},"Ħ":{"ha":833,"x_min":16,"x_max":841,"o":"m 706 826 l 706 987 l 517 987 l 517 826 l 238 826 l 238 987 l 49 987 l 49 826 l 16 826 l 16 710 l 49 710 l 49 0 l 238 0 l 238 428 l 517 428 l 517 0 l 706 0 l 706 710 l 841 710 l 841 826 l 706 826 m 238 583 l 238 710 l 517 710 l 517 583 l 238 583 z "},"Ĥ":{"ha":833,"x_min":83,"x_max":741,"o":"m 741 0 l 741 987 l 552 987 l 552 583 l 273 583 l 273 987 l 83 987 l 83 0 l 273 0 l 273 428 l 552 428 l 552 0 l 741 0 m 665 1094 l 466 1259 l 357 1259 l 160 1095 l 160 1075 l 307 1075 l 411 1161 l 515 1075 l 665 1075 l 665 1094 z "},"Í":{"ha":833,"x_min":131,"x_max":702,"o":"m 131 987 l 131 833 l 319 833 l 319 153 l 131 153 l 131 0 l 702 0 l 702 153 l 509 153 l 509 833 l 702 833 l 702 987 l 131 987 m 454 1236 l 328 1047 l 474 1047 l 662 1236 l 454 1236 z "},"Ĭ":{"ha":833,"x_min":131,"x_max":702,"o":"m 131 987 l 131 833 l 319 833 l 319 153 l 131 153 l 131 0 l 702 0 l 702 153 l 509 153 l 509 833 l 702 833 l 702 987 l 131 987 m 639 1259 l 503 1259 q 497 1225 503 1242 q 481 1196 492 1208 q 452 1176 470 1183 q 408 1168 434 1168 q 364 1176 382 1168 q 334 1196 346 1183 q 318 1225 323 1208 q 313 1259 313 1242 l 177 1259 q 193 1179 177 1215 q 239 1116 209 1142 q 312 1075 269 1090 q 408 1061 355 1061 q 504 1075 461 1061 q 577 1116 547 1090 q 623 1179 607 1142 q 639 1259 639 1215 z "},"Î":{"ha":833,"x_min":131,"x_max":702,"o":"m 131 987 l 131 833 l 319 833 l 319 153 l 131 153 l 131 0 l 702 0 l 702 153 l 509 153 l 509 833 l 702 833 l 702 987 l 131 987 m 661 1100 l 462 1265 l 353 1265 l 156 1101 l 156 1081 l 303 1081 l 407 1167 l 511 1081 l 661 1081 l 661 1100 z "},"Ï":{"ha":833,"x_min":131,"x_max":702,"o":"m 131 987 l 131 833 l 319 833 l 319 153 l 131 153 l 131 0 l 702 0 l 702 153 l 509 153 l 509 833 l 702 833 l 702 987 l 131 987 m 149 1162 q 175 1102 149 1126 q 241 1078 201 1078 q 307 1102 281 1078 q 333 1162 333 1126 q 307 1222 333 1198 q 241 1247 281 1247 q 174 1222 200 1247 q 149 1162 149 1198 m 474 1162 q 500 1101 474 1126 q 566 1077 526 1077 q 633 1101 607 1077 q 659 1162 659 1126 q 633 1222 659 1197 q 566 1246 608 1246 q 499 1222 525 1246 q 474 1162 474 1197 z "},"İ":{"ha":833,"x_min":131,"x_max":702,"o":"m 131 987 l 131 833 l 319 833 l 319 153 l 131 153 l 131 0 l 702 0 l 702 153 l 509 153 l 509 833 l 702 833 l 702 987 l 131 987 m 304 1172 q 332 1104 304 1131 q 406 1078 359 1078 q 481 1104 454 1078 q 508 1172 508 1131 q 481 1240 508 1213 q 406 1267 454 1267 q 332 1240 359 1267 q 304 1172 304 1213 z "},"Ì":{"ha":833,"x_min":131,"x_max":702,"o":"m 131 987 l 131 833 l 319 833 l 319 153 l 131 153 l 131 0 l 702 0 l 702 153 l 509 153 l 509 833 l 702 833 l 702 987 l 131 987 m 484 1049 l 363 1238 l 156 1238 l 335 1049 l 484 1049 z "},"Ī":{"ha":833,"x_min":131,"x_max":702,"o":"m 131 987 l 131 833 l 319 833 l 319 153 l 131 153 l 131 0 l 702 0 l 702 153 l 509 153 l 509 833 l 702 833 l 702 987 l 131 987 m 656 1095 l 656 1206 l 161 1206 l 161 1095 l 656 1095 z "},"Į":{"ha":833,"x_min":131,"x_max":702,"o":"m 131 987 l 131 833 l 319 833 l 319 153 l 131 153 l 131 0 l 357 0 q 328 -28 341 -14 q 305 -58 315 -43 q 285 -102 292 -79 q 278 -147 278 -125 q 290 -208 278 -182 q 322 -252 302 -234 q 370 -278 342 -269 q 429 -288 397 -288 q 506 -278 475 -288 q 555 -258 536 -268 l 523 -153 q 500 -162 513 -157 q 467 -167 486 -167 q 431 -154 441 -167 q 421 -121 421 -140 q 426 -86 421 -102 q 444 -54 431 -69 q 476 -26 456 -39 q 527 0 496 -12 l 702 0 l 702 153 l 509 153 l 509 833 l 702 833 l 702 987 l 131 987 z "},"Ĩ":{"ha":833,"x_min":131,"x_max":702,"o":"m 131 987 l 131 833 l 319 833 l 319 153 l 131 153 l 131 0 l 702 0 l 702 153 l 509 153 l 509 833 l 702 833 l 702 987 l 131 987 m 654 1262 l 559 1283 q 554 1257 559 1269 q 543 1237 550 1245 q 523 1222 534 1227 q 498 1217 511 1217 q 449 1226 472 1217 q 404 1247 426 1236 q 357 1267 380 1258 q 306 1276 333 1276 q 246 1261 273 1276 q 200 1223 219 1246 q 171 1169 181 1199 q 160 1109 160 1139 l 255 1089 q 260 1117 255 1105 q 273 1138 264 1130 q 292 1151 281 1147 q 315 1156 303 1156 q 363 1146 342 1156 q 406 1126 384 1137 q 451 1106 427 1115 q 507 1097 475 1097 q 567 1111 541 1097 q 614 1149 594 1125 q 643 1202 633 1172 q 654 1262 654 1232 z "},"Ĵ":{"ha":833,"x_min":75,"x_max":911,"o":"m 555 987 l 555 303 q 544 238 555 269 q 515 186 534 208 q 469 152 496 165 q 409 140 441 140 q 340 151 368 140 q 294 184 311 161 q 273 229 280 202 q 267 290 267 255 l 75 290 q 100 157 76 214 q 169 62 125 100 q 273 5 212 24 q 409 -14 334 -14 q 541 9 479 -14 q 648 75 602 33 q 719 175 693 117 q 746 303 745 233 l 745 987 l 555 987 m 911 1092 l 712 1257 l 603 1257 l 406 1093 l 406 1073 l 553 1073 l 657 1159 l 762 1073 l 911 1073 l 911 1092 z "},"Ķ":{"ha":833,"x_min":87,"x_max":854,"o":"m 383 406 l 627 0 l 854 0 l 509 551 l 842 987 l 608 987 l 368 656 l 279 535 l 279 987 l 87 987 l 87 0 l 279 0 l 279 291 l 383 406 m 484 -102 l 484 -56 l 355 -56 l 355 -104 q 342 -200 355 -156 q 304 -288 330 -245 l 380 -339 q 458 -227 433 -293 q 484 -102 484 -161 z "},"Ĺ":{"ha":833,"x_min":102,"x_max":755,"o":"m 293 154 l 293 987 l 102 987 l 102 0 l 755 0 l 755 154 l 293 154 m 248 1217 l 121 1027 l 268 1027 l 456 1217 l 248 1217 z "},"Ľ":{"ha":833,"x_min":102,"x_max":755,"o":"m 293 154 l 293 987 l 102 987 l 102 0 l 755 0 l 755 154 l 293 154 m 699 871 l 699 988 l 547 988 l 547 871 q 531 754 547 805 q 488 659 514 703 l 574 606 q 623 661 601 629 q 663 728 646 692 q 689 799 680 762 q 699 871 699 836 z "},"Ļ":{"ha":833,"x_min":102,"x_max":755,"o":"m 293 154 l 293 987 l 102 987 l 102 0 l 755 0 l 755 154 l 293 154 m 487 -87 l 487 -40 l 358 -40 l 358 -89 q 346 -185 358 -140 q 307 -272 333 -229 l 384 -323 q 462 -212 437 -277 q 487 -87 487 -146 z "},"Ŀ":{"ha":833,"x_min":102,"x_max":755,"o":"m 293 154 l 293 987 l 102 987 l 102 0 l 755 0 l 755 154 l 293 154 m 416 553 q 444 486 416 513 q 518 459 471 459 q 593 486 566 459 q 620 553 620 513 q 593 622 620 595 q 518 648 566 648 q 444 622 471 648 q 416 553 416 595 z "},"Ł":{"ha":833,"x_min":35,"x_max":775,"o":"m 313 601 l 313 987 l 121 987 l 121 545 l 35 520 l 35 388 l 121 413 l 121 0 l 775 0 l 775 154 l 313 154 l 313 469 l 470 515 l 470 647 l 313 601 z "},"Ń":{"ha":833,"x_min":83,"x_max":740,"o":"m 740 0 l 740 987 l 549 987 l 548 353 l 275 987 l 83 987 l 83 0 l 275 0 l 275 637 l 550 0 l 740 0 m 463 1236 l 336 1047 l 483 1047 l 671 1236 l 463 1236 z "},"Ň":{"ha":833,"x_min":83,"x_max":740,"o":"m 740 0 l 740 987 l 549 987 l 548 353 l 275 987 l 83 987 l 83 0 l 275 0 l 275 637 l 550 0 l 740 0 m 416 1180 l 317 1265 l 156 1265 l 156 1252 l 357 1081 l 475 1081 l 676 1253 l 676 1265 l 515 1265 l 416 1180 z "},"Ņ":{"ha":833,"x_min":83,"x_max":740,"o":"m 740 0 l 740 987 l 549 987 l 548 353 l 275 987 l 83 987 l 83 0 l 275 0 l 275 637 l 550 0 l 740 0 m 487 -92 l 487 -45 l 358 -45 l 358 -94 q 346 -190 358 -145 q 307 -277 333 -234 l 384 -328 q 462 -216 437 -282 q 487 -92 487 -151 z "},"Ñ":{"ha":833,"x_min":83,"x_max":740,"o":"m 740 0 l 740 987 l 549 987 l 548 353 l 275 987 l 83 987 l 83 0 l 275 0 l 275 637 l 550 0 l 740 0 m 663 1262 l 568 1283 q 563 1257 568 1269 q 551 1237 559 1245 q 531 1222 543 1227 q 507 1217 519 1217 q 458 1226 481 1217 q 412 1247 435 1236 q 366 1267 389 1258 q 315 1276 342 1276 q 255 1261 281 1276 q 209 1223 228 1246 q 179 1169 190 1199 q 169 1109 169 1139 l 264 1089 q 269 1117 264 1105 q 282 1138 273 1130 q 301 1151 290 1147 q 324 1156 312 1156 q 372 1146 351 1156 q 414 1126 393 1137 q 459 1106 435 1115 q 516 1097 484 1097 q 576 1111 549 1097 q 623 1149 603 1125 q 652 1202 642 1172 q 663 1262 663 1232 z "},"Ó":{"ha":833,"x_min":54,"x_max":778,"o":"m 778 421 l 778 565 q 765 692 778 632 q 729 802 753 751 q 677 882 707 846 q 607 945 647 919 q 517 986 567 972 q 410 1001 467 1001 q 306 987 354 1001 q 219 946 258 972 q 150 881 180 919 q 98 796 119 843 q 65 688 77 747 q 54 565 54 630 l 54 421 q 64 305 54 360 q 93 203 74 250 q 145 112 114 153 q 216 43 176 72 q 304 1 256 16 q 411 -14 353 -14 q 512 0 465 -14 q 599 37 559 13 q 676 104 642 64 q 733 194 710 145 q 766 300 755 243 q 778 421 778 357 m 585 566 l 585 421 q 581 351 585 385 q 570 288 577 317 q 544 223 560 252 q 505 175 528 194 q 463 151 487 159 q 411 143 439 143 q 358 152 381 143 q 316 177 334 161 q 282 225 296 195 q 260 290 267 254 q 250 352 253 319 q 248 421 248 385 l 248 566 q 251 639 248 604 q 260 703 254 673 q 285 769 269 741 q 324 817 301 798 q 362 836 341 829 q 410 843 384 843 q 461 836 438 843 q 502 814 484 828 q 542 767 525 796 q 569 702 559 739 q 581 638 577 673 q 585 566 585 604 m 465 1251 l 338 1061 l 484 1061 l 672 1251 l 465 1251 z "},"Ŏ":{"ha":833,"x_min":54,"x_max":778,"o":"m 778 421 l 778 565 q 765 692 778 632 q 729 802 753 751 q 677 882 707 846 q 607 945 647 919 q 517 986 567 972 q 410 1001 467 1001 q 306 987 354 1001 q 219 946 258 972 q 150 881 180 919 q 98 796 119 843 q 65 688 77 747 q 54 565 54 630 l 54 421 q 64 305 54 360 q 93 203 74 250 q 145 112 114 153 q 216 43 176 72 q 304 1 256 16 q 411 -14 353 -14 q 512 0 465 -14 q 599 37 559 13 q 676 104 642 64 q 733 194 710 145 q 766 300 755 243 q 778 421 778 357 m 585 566 l 585 421 q 581 351 585 385 q 570 288 577 317 q 544 223 560 252 q 505 175 528 194 q 463 151 487 159 q 411 143 439 143 q 358 152 381 143 q 316 177 334 161 q 282 225 296 195 q 260 290 267 254 q 250 352 253 319 q 248 421 248 385 l 248 566 q 251 639 248 604 q 260 703 254 673 q 285 769 269 741 q 324 817 301 798 q 362 836 341 829 q 410 843 384 843 q 461 836 438 843 q 502 814 484 828 q 542 767 525 796 q 569 702 559 739 q 581 638 577 673 q 585 566 585 604 m 649 1274 l 513 1274 q 508 1239 513 1256 q 492 1211 503 1223 q 462 1190 480 1198 q 418 1183 444 1183 q 374 1190 392 1183 q 345 1211 356 1198 q 328 1239 333 1223 q 323 1274 323 1256 l 187 1274 q 203 1193 187 1230 q 250 1131 219 1156 q 322 1089 279 1104 q 418 1075 365 1075 q 514 1089 471 1075 q 587 1131 557 1104 q 633 1193 617 1156 q 649 1274 649 1230 z "},"Ô":{"ha":833,"x_min":54,"x_max":778,"o":"m 778 421 l 778 565 q 765 692 778 632 q 729 802 753 751 q 677 882 707 846 q 607 945 647 919 q 517 986 567 972 q 410 1001 467 1001 q 306 987 354 1001 q 219 946 258 972 q 150 881 180 919 q 98 796 119 843 q 65 688 77 747 q 54 565 54 630 l 54 421 q 64 305 54 360 q 93 203 74 250 q 145 112 114 153 q 216 43 176 72 q 304 1 256 16 q 411 -14 353 -14 q 512 0 465 -14 q 599 37 559 13 q 676 104 642 64 q 733 194 710 145 q 766 300 755 243 q 778 421 778 357 m 585 566 l 585 421 q 581 351 585 385 q 570 288 577 317 q 544 223 560 252 q 505 175 528 194 q 463 151 487 159 q 411 143 439 143 q 358 152 381 143 q 316 177 334 161 q 282 225 296 195 q 260 290 267 254 q 250 352 253 319 q 248 421 248 385 l 248 566 q 251 639 248 604 q 260 703 254 673 q 285 769 269 741 q 324 817 301 798 q 362 836 341 829 q 410 843 384 843 q 461 836 438 843 q 502 814 484 828 q 542 767 525 796 q 569 702 559 739 q 581 638 577 673 q 585 566 585 604 m 671 1114 l 472 1279 l 363 1279 l 166 1116 l 166 1095 l 313 1095 l 417 1181 l 522 1095 l 671 1095 l 671 1114 z "},"Ö":{"ha":833,"x_min":54,"x_max":778,"o":"m 778 421 l 778 565 q 765 692 778 632 q 729 802 753 751 q 677 882 707 846 q 607 945 647 919 q 517 986 567 972 q 410 1001 467 1001 q 306 987 354 1001 q 219 946 258 972 q 150 881 180 919 q 98 796 119 843 q 65 688 77 747 q 54 565 54 630 l 54 421 q 64 305 54 360 q 93 203 74 250 q 145 112 114 153 q 216 43 176 72 q 304 1 256 16 q 411 -14 353 -14 q 512 0 465 -14 q 599 37 559 13 q 676 104 642 64 q 733 194 710 145 q 766 300 755 243 q 778 421 778 357 m 585 566 l 585 421 q 581 351 585 385 q 570 288 577 317 q 544 223 560 252 q 505 175 528 194 q 463 151 487 159 q 411 143 439 143 q 358 152 381 143 q 316 177 334 161 q 282 225 296 195 q 260 290 267 254 q 250 352 253 319 q 248 421 248 385 l 248 566 q 251 639 248 604 q 260 703 254 673 q 285 769 269 741 q 324 817 301 798 q 362 836 341 829 q 410 843 384 843 q 461 836 438 843 q 502 814 484 828 q 542 767 525 796 q 569 702 559 739 q 581 638 577 673 q 585 566 585 604 m 159 1177 q 185 1117 159 1141 q 251 1093 211 1093 q 317 1117 291 1093 q 343 1177 343 1141 q 317 1237 343 1212 q 251 1261 292 1261 q 184 1237 210 1261 q 159 1177 159 1212 m 484 1177 q 510 1116 484 1140 q 576 1091 536 1091 q 643 1116 617 1091 q 669 1177 669 1140 q 643 1236 669 1211 q 576 1261 618 1261 q 510 1236 535 1261 q 484 1177 484 1211 z "},"Ò":{"ha":833,"x_min":54,"x_max":778,"o":"m 778 421 l 778 565 q 765 692 778 632 q 729 802 753 751 q 677 882 707 846 q 607 945 647 919 q 517 986 567 972 q 410 1001 467 1001 q 306 987 354 1001 q 219 946 258 972 q 150 881 180 919 q 98 796 119 843 q 65 688 77 747 q 54 565 54 630 l 54 421 q 64 305 54 360 q 93 203 74 250 q 145 112 114 153 q 216 43 176 72 q 304 1 256 16 q 411 -14 353 -14 q 512 0 465 -14 q 599 37 559 13 q 676 104 642 64 q 733 194 710 145 q 766 300 755 243 q 778 421 778 357 m 585 566 l 585 421 q 581 351 585 385 q 570 288 577 317 q 544 223 560 252 q 505 175 528 194 q 463 151 487 159 q 411 143 439 143 q 358 152 381 143 q 316 177 334 161 q 282 225 296 195 q 260 290 267 254 q 250 352 253 319 q 248 421 248 385 l 248 566 q 251 639 248 604 q 260 703 254 673 q 285 769 269 741 q 324 817 301 798 q 362 836 341 829 q 410 843 384 843 q 461 836 438 843 q 502 814 484 828 q 542 767 525 796 q 569 702 559 739 q 581 638 577 673 q 585 566 585 604 m 494 1063 l 374 1253 l 166 1253 l 345 1063 l 494 1063 z "},"Ơ":{"ha":833,"x_min":63,"x_max":846,"o":"m 787 421 l 787 565 q 776 685 787 629 q 743 789 765 741 q 789 827 769 804 q 821 880 808 850 q 840 943 833 908 q 846 1019 846 978 l 715 1019 q 713 975 715 996 q 707 938 711 955 q 696 909 703 922 q 681 887 690 896 q 635 930 660 911 q 583 964 610 950 q 506 991 547 982 q 419 1001 465 1001 q 268 968 334 1001 q 156 878 201 936 q 87 740 111 820 q 63 565 63 660 l 63 421 q 87 247 63 326 q 156 109 111 167 q 268 19 201 51 q 420 -14 334 -14 q 573 19 505 -14 q 689 109 642 51 q 762 246 736 166 q 787 421 787 326 m 593 566 l 593 421 q 583 310 593 361 q 553 222 573 259 q 499 164 532 185 q 420 143 466 143 q 342 164 373 143 q 292 222 311 185 q 264 311 273 260 q 256 421 256 361 l 256 566 q 264 677 256 627 q 292 765 273 728 q 342 822 311 802 q 419 843 373 843 q 499 822 466 843 q 553 765 532 802 q 584 677 574 728 q 593 566 593 627 z "},"Ő":{"ha":833,"x_min":54,"x_max":798,"o":"m 778 421 l 778 565 q 765 692 778 632 q 729 802 753 751 q 677 882 707 846 q 607 945 647 919 q 517 986 567 972 q 410 1001 467 1001 q 306 987 354 1001 q 219 946 258 972 q 150 881 180 919 q 98 796 119 843 q 65 688 77 747 q 54 565 54 630 l 54 421 q 64 305 54 360 q 93 203 74 250 q 145 112 114 153 q 216 43 176 72 q 304 1 256 16 q 411 -14 353 -14 q 512 0 465 -14 q 599 37 559 13 q 676 104 642 64 q 733 194 710 145 q 766 300 755 243 q 778 421 778 357 m 585 566 l 585 421 q 581 351 585 385 q 570 288 577 317 q 544 223 560 252 q 505 175 528 194 q 463 151 487 159 q 411 143 439 143 q 358 152 381 143 q 316 177 334 161 q 282 225 296 195 q 260 290 267 254 q 250 352 253 319 q 248 421 248 385 l 248 566 q 251 639 248 604 q 260 703 254 673 q 285 769 269 741 q 324 817 301 798 q 362 836 341 829 q 410 843 384 843 q 461 836 438 843 q 502 814 484 828 q 542 767 525 796 q 569 702 559 739 q 581 638 577 673 q 585 566 585 604 m 613 1280 l 447 1101 l 591 1101 l 798 1280 l 613 1280 m 364 1280 l 227 1101 l 366 1101 l 541 1280 l 364 1280 z "},"Ō":{"ha":833,"x_min":54,"x_max":778,"o":"m 778 421 l 778 565 q 765 692 778 632 q 729 802 753 751 q 677 882 707 846 q 607 945 647 919 q 517 986 567 972 q 410 1001 467 1001 q 306 987 354 1001 q 219 946 258 972 q 150 881 180 919 q 98 796 119 843 q 65 688 77 747 q 54 565 54 630 l 54 421 q 64 305 54 360 q 93 203 74 250 q 145 112 114 153 q 216 43 176 72 q 304 1 256 16 q 411 -14 353 -14 q 512 0 465 -14 q 599 37 559 13 q 676 104 642 64 q 733 194 710 145 q 766 300 755 243 q 778 421 778 357 m 585 566 l 585 421 q 581 351 585 385 q 570 288 577 317 q 544 223 560 252 q 505 175 528 194 q 463 151 487 159 q 411 143 439 143 q 358 152 381 143 q 316 177 334 161 q 282 225 296 195 q 260 290 267 254 q 250 352 253 319 q 248 421 248 385 l 248 566 q 251 639 248 604 q 260 703 254 673 q 285 769 269 741 q 324 817 301 798 q 362 836 341 829 q 410 843 384 843 q 461 836 438 843 q 502 814 484 828 q 542 767 525 796 q 569 702 559 739 q 581 638 577 673 q 585 566 585 604 m 667 1109 l 667 1220 l 172 1220 l 172 1109 l 667 1109 z "},"Ø":{"ha":833,"x_min":33,"x_max":781,"o":"m 781 421 l 781 565 q 757 737 781 659 q 687 873 733 815 l 775 1029 l 650 1029 l 604 948 q 567 969 587 960 q 527 985 547 978 q 473 997 501 993 q 414 1001 444 1001 q 262 968 328 1001 q 151 878 196 936 q 81 740 105 820 q 58 565 58 660 l 58 421 q 63 335 58 376 q 78 256 68 293 q 103 186 88 219 q 139 124 119 153 l 33 -64 l 157 -64 l 218 44 q 307 1 258 16 q 414 -14 356 -14 q 568 19 500 -14 q 684 109 636 51 q 756 246 731 166 q 781 421 781 326 m 251 421 l 251 566 q 259 677 251 627 q 286 765 267 728 q 336 822 305 802 q 414 843 368 843 q 446 840 431 843 q 475 831 462 837 q 499 818 488 826 q 521 800 511 810 l 256 332 q 254 349 255 340 q 253 367 254 358 q 251 393 252 380 q 251 421 251 407 m 588 566 l 588 421 q 578 310 588 361 q 547 222 568 259 q 493 164 526 185 q 414 143 460 143 q 350 157 377 143 q 303 195 323 170 l 577 680 q 585 625 583 654 q 588 566 588 597 z "},"Ǿ":{"ha":833,"x_min":33,"x_max":781,"o":"m 781 421 l 781 565 q 757 737 781 659 q 687 873 733 815 l 775 1029 l 650 1029 l 604 948 q 567 969 587 960 q 527 985 547 978 q 473 997 501 993 q 414 1001 444 1001 q 262 968 328 1001 q 151 878 196 936 q 81 740 105 820 q 58 565 58 660 l 58 421 q 63 335 58 376 q 78 256 68 293 q 103 186 88 219 q 139 124 119 153 l 33 -64 l 157 -64 l 218 44 q 307 1 258 16 q 414 -14 356 -14 q 568 19 500 -14 q 684 109 636 51 q 756 246 731 166 q 781 421 781 326 m 251 421 l 251 566 q 259 677 251 627 q 286 765 267 728 q 336 822 305 802 q 414 843 368 843 q 446 840 431 843 q 475 831 462 837 q 499 818 488 826 q 521 800 511 810 l 256 332 q 254 349 255 340 q 253 367 254 358 q 251 393 252 380 q 251 421 251 407 m 588 566 l 588 421 q 578 310 588 361 q 547 222 568 259 q 493 164 526 185 q 414 143 460 143 q 350 157 377 143 q 303 195 323 170 l 577 680 q 585 625 583 654 q 588 566 588 597 m 465 1278 l 338 1089 l 484 1089 l 672 1278 l 465 1278 z "},"Õ":{"ha":833,"x_min":54,"x_max":778,"o":"m 778 421 l 778 565 q 765 692 778 632 q 729 802 753 751 q 677 882 707 846 q 607 945 647 919 q 517 986 567 972 q 410 1001 467 1001 q 306 987 354 1001 q 219 946 258 972 q 150 881 180 919 q 98 796 119 843 q 65 688 77 747 q 54 565 54 630 l 54 421 q 64 305 54 360 q 93 203 74 250 q 145 112 114 153 q 216 43 176 72 q 304 1 256 16 q 411 -14 353 -14 q 512 0 465 -14 q 599 37 559 13 q 676 104 642 64 q 733 194 710 145 q 766 300 755 243 q 778 421 778 357 m 585 566 l 585 421 q 581 351 585 385 q 570 288 577 317 q 544 223 560 252 q 505 175 528 194 q 463 151 487 159 q 411 143 439 143 q 358 152 381 143 q 316 177 334 161 q 282 225 296 195 q 260 290 267 254 q 250 352 253 319 q 248 421 248 385 l 248 566 q 251 639 248 604 q 260 703 254 673 q 285 769 269 741 q 324 817 301 798 q 362 836 341 829 q 410 843 384 843 q 461 836 438 843 q 502 814 484 828 q 542 767 525 796 q 569 702 559 739 q 581 638 577 673 q 585 566 585 604 m 664 1276 l 569 1297 q 565 1271 569 1283 q 553 1251 560 1259 q 533 1237 545 1242 q 508 1232 521 1232 q 459 1241 482 1232 q 414 1261 436 1250 q 367 1281 391 1272 q 316 1291 343 1291 q 256 1276 283 1291 q 210 1237 229 1261 q 181 1183 191 1213 q 170 1124 170 1154 l 265 1103 q 270 1132 265 1119 q 283 1152 275 1144 q 302 1165 292 1161 q 326 1170 313 1170 q 373 1161 352 1170 q 416 1141 394 1152 q 461 1120 437 1129 q 517 1111 485 1111 q 577 1125 551 1111 q 624 1163 604 1139 q 653 1216 643 1186 q 664 1276 664 1246 z "},"Ŕ":{"ha":833,"x_min":89,"x_max":814,"o":"m 424 369 l 610 0 l 814 0 l 814 9 l 602 416 q 675 460 642 435 q 732 519 708 485 q 767 594 755 552 q 780 690 780 637 q 754 819 780 763 q 682 911 729 874 q 568 968 635 949 q 420 987 502 987 l 89 987 l 89 0 l 279 0 l 279 369 l 424 369 m 279 524 l 279 833 l 420 833 q 490 823 459 833 q 541 796 520 814 q 577 746 565 777 q 589 677 589 716 q 579 618 589 644 q 553 572 570 591 q 498 536 532 549 q 420 524 465 524 l 279 524 m 450 1228 l 323 1039 l 470 1039 l 658 1228 l 450 1228 z "},"Ř":{"ha":833,"x_min":89,"x_max":814,"o":"m 424 369 l 610 0 l 814 0 l 814 9 l 602 416 q 675 460 642 435 q 732 519 708 485 q 767 594 755 552 q 780 690 780 637 q 754 819 780 763 q 682 911 729 874 q 568 968 635 949 q 420 987 502 987 l 89 987 l 89 0 l 279 0 l 279 369 l 424 369 m 279 524 l 279 833 l 420 833 q 490 823 459 833 q 541 796 520 814 q 577 746 565 777 q 589 677 589 716 q 579 618 589 644 q 553 572 570 591 q 498 536 532 549 q 420 524 465 524 l 279 524 m 403 1172 l 304 1257 l 143 1257 l 143 1244 l 344 1073 l 463 1073 l 663 1244 l 663 1257 l 503 1257 l 403 1172 z "},"Ŗ":{"ha":833,"x_min":89,"x_max":814,"o":"m 424 369 l 610 0 l 814 0 l 814 9 l 602 416 q 675 460 642 435 q 732 519 708 485 q 767 594 755 552 q 780 690 780 637 q 754 819 780 763 q 682 911 729 874 q 568 968 635 949 q 420 987 502 987 l 89 987 l 89 0 l 279 0 l 279 369 l 424 369 m 279 524 l 279 833 l 420 833 q 490 823 459 833 q 541 796 520 814 q 577 746 565 777 q 589 677 589 716 q 579 618 589 644 q 553 572 570 591 q 498 536 532 549 q 420 524 465 524 l 279 524 m 479 -87 l 479 -40 l 351 -40 l 351 -89 q 338 -185 351 -140 q 300 -272 326 -229 l 376 -323 q 454 -212 429 -277 q 479 -87 479 -146 z "},"Ś":{"ha":833,"x_min":60,"x_max":789,"o":"m 602 258 q 591 209 602 231 q 559 172 580 187 q 510 147 539 156 q 442 138 480 138 q 364 148 399 138 q 303 178 328 157 q 263 230 277 198 q 248 307 249 262 l 60 307 q 90 173 60 230 q 170 74 119 116 q 296 9 224 31 q 442 -13 368 -13 q 581 5 517 -13 q 691 58 645 23 q 763 143 737 93 q 789 259 789 194 q 755 392 789 334 q 662 493 720 450 q 577 540 623 519 q 480 574 531 560 q 395 602 433 587 q 331 635 357 617 q 291 675 304 653 q 277 726 277 698 q 287 775 277 752 q 318 814 298 798 q 368 840 338 831 q 435 849 397 849 q 508 838 477 849 q 559 807 538 827 q 590 759 580 787 q 602 698 601 731 l 788 698 q 762 820 788 764 q 690 916 736 876 q 580 979 644 956 q 439 1001 516 1001 q 300 982 364 1001 q 190 926 237 962 q 117 840 143 890 q 90 726 90 789 q 110 626 90 672 q 170 542 130 580 q 271 472 209 504 q 415 418 333 440 q 504 387 468 404 q 562 351 539 370 q 592 307 583 330 q 602 258 602 284 m 486 1251 l 359 1061 l 505 1061 l 693 1251 l 486 1251 z "},"Š":{"ha":833,"x_min":60,"x_max":789,"o":"m 602 258 q 591 209 602 231 q 559 172 580 187 q 510 147 539 156 q 442 138 480 138 q 364 148 399 138 q 303 178 328 157 q 263 230 277 198 q 248 307 249 262 l 60 307 q 90 173 60 230 q 170 74 119 116 q 296 9 224 31 q 442 -13 368 -13 q 581 5 517 -13 q 691 58 645 23 q 763 143 737 93 q 789 259 789 194 q 755 392 789 334 q 662 493 720 450 q 577 540 623 519 q 480 574 531 560 q 395 602 433 587 q 331 635 357 617 q 291 675 304 653 q 277 726 277 698 q 287 775 277 752 q 318 814 298 798 q 368 840 338 831 q 435 849 397 849 q 508 838 477 849 q 559 807 538 827 q 590 759 580 787 q 602 698 601 731 l 788 698 q 762 820 788 764 q 690 916 736 876 q 580 979 644 956 q 439 1001 516 1001 q 300 982 364 1001 q 190 926 237 962 q 117 840 143 890 q 90 726 90 789 q 110 626 90 672 q 170 542 130 580 q 271 472 209 504 q 415 418 333 440 q 504 387 468 404 q 562 351 539 370 q 592 307 583 330 q 602 258 602 284 m 437 1194 l 338 1280 l 178 1280 l 178 1266 l 378 1095 l 497 1095 l 698 1267 l 698 1280 l 537 1280 l 437 1194 z "},"Ş":{"ha":833,"x_min":60,"x_max":789,"o":"m 602 258 q 591 209 602 231 q 559 172 580 187 q 510 147 539 156 q 442 138 480 138 q 364 148 399 138 q 303 178 328 157 q 263 230 277 198 q 248 307 249 262 l 60 307 q 90 173 60 230 q 170 74 119 116 q 296 9 224 31 q 442 -13 368 -13 q 581 5 517 -13 q 691 58 645 23 q 763 143 737 93 q 789 259 789 194 q 755 392 789 334 q 662 493 720 450 q 577 540 623 519 q 480 574 531 560 q 395 602 433 587 q 331 635 357 617 q 291 675 304 653 q 277 726 277 698 q 287 775 277 752 q 318 814 298 798 q 368 840 338 831 q 435 849 397 849 q 508 838 477 849 q 559 807 538 827 q 590 759 580 787 q 602 698 601 731 l 788 698 q 762 820 788 764 q 690 916 736 876 q 580 979 644 956 q 439 1001 516 1001 q 300 982 364 1001 q 190 926 237 962 q 117 840 143 890 q 90 726 90 789 q 110 626 90 672 q 170 542 130 580 q 271 472 209 504 q 415 418 333 440 q 504 387 468 404 q 562 351 539 370 q 592 307 583 330 q 602 258 602 284 m 517 -3 l 376 -3 l 355 -98 q 401 -103 382 -100 q 431 -113 420 -106 q 448 -129 443 -119 q 454 -152 454 -138 q 447 -178 454 -168 q 430 -196 441 -189 q 405 -205 419 -202 q 373 -208 390 -208 l 378 -317 q 479 -305 435 -317 q 552 -273 522 -294 q 596 -223 581 -252 q 611 -158 611 -194 q 602 -108 611 -129 q 579 -73 593 -87 q 547 -52 565 -60 q 509 -41 528 -44 l 517 -3 z "},"Ŝ":{"ha":833,"x_min":60,"x_max":789,"o":"m 602 258 q 591 209 602 231 q 559 172 580 187 q 510 147 539 156 q 442 138 480 138 q 364 148 399 138 q 303 178 328 157 q 263 230 277 198 q 248 307 249 262 l 60 307 q 90 173 60 230 q 170 74 119 116 q 296 9 224 31 q 442 -13 368 -13 q 581 5 517 -13 q 691 58 645 23 q 763 143 737 93 q 789 259 789 194 q 755 392 789 334 q 662 493 720 450 q 577 540 623 519 q 480 574 531 560 q 395 602 433 587 q 331 635 357 617 q 291 675 304 653 q 277 726 277 698 q 287 775 277 752 q 318 814 298 798 q 368 840 338 831 q 435 849 397 849 q 508 838 477 849 q 559 807 538 827 q 590 759 580 787 q 602 698 601 731 l 788 698 q 762 820 788 764 q 690 916 736 876 q 580 979 644 956 q 439 1001 516 1001 q 300 982 364 1001 q 190 926 237 962 q 117 840 143 890 q 90 726 90 789 q 110 626 90 672 q 170 542 130 580 q 271 472 209 504 q 415 418 333 440 q 504 387 468 404 q 562 351 539 370 q 592 307 583 330 q 602 258 602 284 m 692 1114 l 493 1279 l 384 1279 l 187 1116 l 187 1095 l 334 1095 l 438 1181 l 543 1095 l 692 1095 l 692 1114 z "},"Ŧ":{"ha":833,"x_min":18,"x_max":814,"o":"m 666 513 l 666 635 l 510 635 l 510 832 l 814 832 l 814 987 l 18 987 l 18 832 l 319 832 l 319 635 l 163 635 l 163 513 l 319 513 l 319 0 l 510 0 l 510 513 l 666 513 z "},"Ť":{"ha":833,"x_min":18,"x_max":814,"o":"m 814 832 l 814 987 l 18 987 l 18 832 l 319 832 l 319 0 l 510 0 l 510 832 l 814 832 m 416 1178 l 317 1263 l 157 1263 l 157 1250 l 357 1079 l 476 1079 l 677 1251 l 677 1263 l 516 1263 l 416 1178 z "},"Ú":{"ha":833,"x_min":85,"x_max":747,"o":"m 747 987 l 557 987 l 557 333 q 547 248 556 285 q 518 187 537 212 q 474 152 500 163 q 412 140 447 140 q 356 151 380 140 q 315 184 332 162 q 287 246 296 209 q 277 333 278 283 l 277 987 l 86 987 l 85 333 q 109 185 85 250 q 175 77 132 121 q 278 9 218 33 q 412 -14 338 -14 q 554 9 492 -14 q 659 77 616 33 q 725 186 702 121 q 747 333 747 250 l 747 987 m 470 1234 l 343 1045 l 490 1045 l 677 1234 l 470 1234 z "},"Ŭ":{"ha":833,"x_min":85,"x_max":747,"o":"m 747 987 l 557 987 l 557 333 q 547 248 556 285 q 518 187 537 212 q 474 152 500 163 q 412 140 447 140 q 356 151 380 140 q 315 184 332 162 q 287 246 296 209 q 277 333 278 283 l 277 987 l 86 987 l 85 333 q 109 185 85 250 q 175 77 132 121 q 278 9 218 33 q 412 -14 338 -14 q 554 9 492 -14 q 659 77 616 33 q 725 186 702 121 q 747 333 747 250 l 747 987 m 654 1257 l 518 1257 q 513 1223 518 1240 q 497 1194 508 1206 q 468 1174 486 1181 q 424 1166 450 1166 q 379 1174 397 1166 q 350 1194 361 1181 q 333 1223 338 1206 q 328 1257 328 1240 l 193 1257 q 209 1177 193 1213 q 255 1114 224 1140 q 328 1073 285 1088 q 424 1059 370 1059 q 519 1073 477 1059 q 593 1114 562 1088 q 638 1177 623 1140 q 654 1257 654 1213 z "},"Û":{"ha":833,"x_min":85,"x_max":747,"o":"m 747 987 l 557 987 l 557 333 q 547 248 556 285 q 518 187 537 212 q 474 152 500 163 q 412 140 447 140 q 356 151 380 140 q 315 184 332 162 q 287 246 296 209 q 277 333 278 283 l 277 987 l 86 987 l 85 333 q 109 185 85 250 q 175 77 132 121 q 278 9 218 33 q 412 -14 338 -14 q 554 9 492 -14 q 659 77 616 33 q 725 186 702 121 q 747 333 747 250 l 747 987 m 677 1098 l 477 1263 l 368 1263 l 172 1099 l 172 1079 l 319 1079 l 422 1165 l 527 1079 l 677 1079 l 677 1098 z "},"Ü":{"ha":833,"x_min":85,"x_max":747,"o":"m 747 987 l 557 987 l 557 333 q 547 248 556 285 q 518 187 537 212 q 474 152 500 163 q 412 140 447 140 q 356 151 380 140 q 315 184 332 162 q 287 246 296 209 q 277 333 278 283 l 277 987 l 86 987 l 85 333 q 109 185 85 250 q 175 77 132 121 q 278 9 218 33 q 412 -14 338 -14 q 554 9 492 -14 q 659 77 616 33 q 725 186 702 121 q 747 333 747 250 l 747 987 m 164 1160 q 190 1100 164 1124 q 256 1076 216 1076 q 322 1100 296 1076 q 349 1160 349 1124 q 323 1220 349 1196 q 256 1245 297 1245 q 190 1220 216 1245 q 164 1160 164 1196 m 490 1160 q 515 1099 490 1124 q 582 1075 541 1075 q 648 1099 623 1075 q 674 1160 674 1124 q 649 1220 674 1195 q 582 1244 623 1244 q 515 1220 541 1244 q 490 1160 490 1195 z "},"Ù":{"ha":833,"x_min":85,"x_max":747,"o":"m 747 987 l 557 987 l 557 333 q 547 248 556 285 q 518 187 537 212 q 474 152 500 163 q 412 140 447 140 q 356 151 380 140 q 315 184 332 162 q 287 246 296 209 q 277 333 278 283 l 277 987 l 86 987 l 85 333 q 109 185 85 250 q 175 77 132 121 q 278 9 218 33 q 412 -14 338 -14 q 554 9 492 -14 q 659 77 616 33 q 725 186 702 121 q 747 333 747 250 l 747 987 m 499 1047 l 379 1236 l 172 1236 l 351 1047 l 499 1047 z "},"Ư":{"ha":833,"x_min":90,"x_max":992,"o":"m 751 987 l 562 987 l 562 333 q 551 246 561 283 q 522 185 541 209 q 477 151 503 163 q 417 140 451 140 q 355 154 382 140 q 312 196 329 168 q 290 254 298 220 q 282 333 282 289 l 281 987 l 91 987 l 90 333 q 114 185 90 250 q 180 77 137 121 q 282 9 222 33 q 417 -14 342 -14 q 558 9 496 -14 q 664 77 621 33 q 729 186 707 121 q 751 333 751 250 l 751 748 q 862 768 817 750 q 937 821 908 787 q 979 906 966 855 q 992 1023 992 956 l 857 1023 q 853 952 857 983 q 840 901 850 921 q 808 868 829 880 q 751 854 787 857 l 751 987 z "},"Ű":{"ha":833,"x_min":85,"x_max":804,"o":"m 747 987 l 557 987 l 557 333 q 547 248 556 285 q 518 187 537 212 q 474 152 500 163 q 412 140 447 140 q 356 151 380 140 q 315 184 332 162 q 287 246 296 209 q 277 333 278 283 l 277 987 l 86 987 l 85 333 q 109 185 85 250 q 175 77 132 121 q 278 9 218 33 q 412 -14 338 -14 q 554 9 492 -14 q 659 77 616 33 q 725 186 702 121 q 747 333 747 250 l 747 987 m 618 1264 l 452 1084 l 596 1084 l 804 1264 l 618 1264 m 370 1264 l 232 1084 l 372 1084 l 547 1264 l 370 1264 z "},"Ū":{"ha":833,"x_min":85,"x_max":747,"o":"m 747 987 l 557 987 l 557 333 q 547 248 556 285 q 518 187 537 212 q 474 152 500 163 q 412 140 447 140 q 356 151 380 140 q 315 184 332 162 q 287 246 296 209 q 277 333 278 283 l 277 987 l 86 987 l 85 333 q 109 185 85 250 q 175 77 132 121 q 278 9 218 33 q 412 -14 338 -14 q 554 9 492 -14 q 659 77 616 33 q 725 186 702 121 q 747 333 747 250 l 747 987 m 672 1093 l 672 1204 l 177 1204 l 177 1093 l 672 1093 z "},"Ų":{"ha":833,"x_min":85,"x_max":747,"o":"m 747 987 l 557 987 l 557 333 q 547 250 557 286 q 520 189 538 214 q 475 152 502 165 q 412 140 448 140 q 354 152 379 140 q 311 190 328 165 q 286 250 295 214 q 277 333 277 286 l 277 987 l 86 987 l 85 333 q 108 189 85 252 q 171 81 130 125 q 266 15 210 39 q 391 -13 322 -9 q 394 -13 392 -13 q 398 -13 396 -13 q 387 -33 392 -22 q 379 -52 382 -43 q 373 -78 375 -65 q 370 -103 370 -90 q 382 -164 370 -138 q 414 -208 394 -190 q 462 -234 435 -225 q 521 -243 490 -243 q 598 -234 568 -243 q 647 -214 628 -224 l 615 -109 q 592 -118 606 -113 q 559 -123 578 -123 q 524 -110 534 -123 q 513 -77 513 -96 q 516 -51 513 -63 q 524 -27 519 -39 q 538 -7 530 -17 q 559 12 547 3 q 634 54 601 28 q 690 115 667 80 q 733 212 718 157 q 747 333 747 267 l 747 987 z "},"Ů":{"ha":833,"x_min":85,"x_max":747,"o":"m 747 987 l 557 987 l 557 333 q 547 248 556 285 q 518 187 537 212 q 474 152 500 163 q 412 140 447 140 q 356 151 380 140 q 315 184 332 162 q 287 246 296 209 q 277 333 278 283 l 277 987 l 86 987 l 85 333 q 109 185 85 250 q 175 77 132 121 q 278 9 218 33 q 412 -14 338 -14 q 554 9 492 -14 q 659 77 616 33 q 725 186 702 121 q 747 333 747 250 l 747 987 m 279 1173 q 290 1120 279 1144 q 321 1079 301 1096 q 367 1052 340 1061 q 423 1042 393 1042 q 479 1052 453 1042 q 524 1079 505 1061 q 553 1120 543 1096 q 564 1173 564 1144 q 553 1225 564 1201 q 524 1267 543 1250 q 479 1295 505 1285 q 423 1305 453 1305 q 367 1295 393 1305 q 321 1267 340 1285 q 290 1225 301 1250 q 279 1173 279 1201 m 356 1173 q 361 1200 356 1187 q 374 1221 366 1212 q 396 1235 383 1230 q 423 1240 409 1240 q 449 1236 437 1240 q 470 1222 461 1231 q 483 1200 478 1213 q 488 1173 488 1187 q 483 1144 488 1157 q 468 1123 477 1132 q 448 1111 460 1115 q 423 1106 437 1106 q 397 1111 409 1106 q 376 1124 385 1116 q 361 1145 367 1133 q 356 1173 356 1158 z "},"Ũ":{"ha":833,"x_min":85,"x_max":747,"o":"m 747 987 l 557 987 l 557 333 q 547 248 556 285 q 518 187 537 212 q 474 152 500 163 q 412 140 447 140 q 356 151 380 140 q 315 184 332 162 q 287 246 296 209 q 277 333 278 283 l 277 987 l 86 987 l 85 333 q 109 185 85 250 q 175 77 132 121 q 278 9 218 33 q 412 -14 338 -14 q 554 9 492 -14 q 659 77 616 33 q 725 186 702 121 q 747 333 747 250 l 747 987 m 669 1260 l 574 1281 q 570 1255 574 1267 q 558 1235 566 1243 q 538 1220 550 1225 q 513 1215 526 1215 q 465 1224 488 1215 q 419 1245 441 1234 q 372 1265 396 1256 q 321 1274 349 1274 q 261 1259 288 1274 q 216 1221 235 1244 q 186 1167 197 1197 q 176 1107 176 1137 l 271 1087 q 275 1115 271 1103 q 289 1136 280 1128 q 308 1149 297 1145 q 331 1154 319 1154 q 378 1144 357 1154 q 421 1124 399 1135 q 466 1104 442 1113 q 523 1095 490 1095 q 583 1109 556 1095 q 629 1147 610 1123 q 659 1200 648 1170 q 669 1260 669 1230 z "},"Ẃ":{"ha":833,"x_min":18,"x_max":819,"o":"m 153 0 l 326 0 l 408 533 l 416 583 l 423 533 l 509 0 l 682 0 l 819 987 l 644 987 l 576 434 l 572 393 l 566 433 l 483 987 l 347 987 l 269 437 l 262 397 l 258 435 l 192 987 l 18 987 l 153 0 m 460 1236 l 333 1047 l 479 1047 l 667 1236 l 460 1236 z "},"Ŵ":{"ha":833,"x_min":18,"x_max":819,"o":"m 153 0 l 326 0 l 408 533 l 416 583 l 423 533 l 509 0 l 682 0 l 819 987 l 644 987 l 576 434 l 572 393 l 566 433 l 483 987 l 347 987 l 269 437 l 262 397 l 258 435 l 192 987 l 18 987 l 153 0 m 667 1100 l 467 1265 l 358 1265 l 161 1101 l 161 1081 l 309 1081 l 412 1167 l 517 1081 l 667 1081 l 667 1100 z "},"Ẅ":{"ha":833,"x_min":18,"x_max":819,"o":"m 153 0 l 326 0 l 408 533 l 416 583 l 423 533 l 509 0 l 682 0 l 819 987 l 644 987 l 576 434 l 572 393 l 566 433 l 483 987 l 347 987 l 269 437 l 262 397 l 258 435 l 192 987 l 18 987 l 153 0 m 154 1162 q 180 1102 154 1126 q 246 1078 206 1078 q 312 1102 286 1078 q 338 1162 338 1126 q 313 1222 338 1198 q 246 1247 287 1247 q 180 1222 205 1247 q 154 1162 154 1198 m 479 1162 q 505 1101 479 1126 q 572 1077 531 1077 q 638 1101 612 1077 q 664 1162 664 1126 q 638 1222 664 1197 q 572 1246 613 1246 q 505 1222 530 1246 q 479 1162 479 1197 z "},"Ẁ":{"ha":833,"x_min":18,"x_max":819,"o":"m 153 0 l 326 0 l 408 533 l 416 583 l 423 533 l 509 0 l 682 0 l 819 987 l 644 987 l 576 434 l 572 393 l 566 433 l 483 987 l 347 987 l 269 437 l 262 397 l 258 435 l 192 987 l 18 987 l 153 0 m 489 1049 l 369 1238 l 161 1238 l 340 1049 l 489 1049 z "},"Ý":{"ha":833,"x_min":22,"x_max":830,"o":"m 426 532 l 231 987 l 22 987 l 328 350 l 329 0 l 519 0 l 519 342 l 830 987 l 621 987 l 426 532 m 473 1236 l 346 1047 l 492 1047 l 680 1236 l 473 1236 z "},"Ŷ":{"ha":833,"x_min":22,"x_max":830,"o":"m 426 532 l 231 987 l 22 987 l 328 350 l 329 0 l 519 0 l 519 342 l 830 987 l 621 987 l 426 532 m 680 1100 l 480 1265 l 371 1265 l 174 1101 l 174 1081 l 321 1081 l 425 1167 l 530 1081 l 680 1081 l 680 1100 z "},"Ÿ":{"ha":833,"x_min":22,"x_max":830,"o":"m 426 532 l 231 987 l 22 987 l 328 350 l 329 0 l 519 0 l 519 342 l 830 987 l 621 987 l 426 532 m 167 1162 q 193 1102 167 1126 q 259 1078 219 1078 q 325 1102 299 1078 q 351 1162 351 1126 q 326 1222 351 1198 q 259 1247 300 1247 q 193 1222 218 1247 q 167 1162 167 1198 m 492 1162 q 518 1101 492 1126 q 585 1077 544 1077 q 651 1101 625 1077 q 677 1162 677 1126 q 651 1222 677 1197 q 585 1246 626 1246 q 518 1222 543 1246 q 492 1162 492 1197 z "},"Ỳ":{"ha":833,"x_min":22,"x_max":830,"o":"m 426 532 l 231 987 l 22 987 l 328 350 l 329 0 l 519 0 l 519 342 l 830 987 l 621 987 l 426 532 m 502 1049 l 382 1238 l 174 1238 l 353 1049 l 502 1049 z "},"Ź":{"ha":833,"x_min":60,"x_max":782,"o":"m 292 154 l 770 874 l 770 987 l 62 987 l 62 832 l 539 832 l 60 117 l 60 0 l 782 0 l 782 154 l 292 154 m 474 1234 l 347 1045 l 494 1045 l 682 1234 l 474 1234 z "},"Ž":{"ha":833,"x_min":60,"x_max":782,"o":"m 292 154 l 770 874 l 770 987 l 62 987 l 62 832 l 539 832 l 60 117 l 60 0 l 782 0 l 782 154 l 292 154 m 427 1178 l 328 1263 l 167 1263 l 167 1250 l 368 1079 l 486 1079 l 687 1251 l 687 1263 l 526 1263 l 427 1178 z "},"Ż":{"ha":833,"x_min":60,"x_max":782,"o":"m 292 154 l 770 874 l 770 987 l 62 987 l 62 832 l 539 832 l 60 117 l 60 0 l 782 0 l 782 154 l 292 154 m 323 1170 q 351 1102 323 1129 q 425 1076 378 1076 q 500 1102 473 1076 q 527 1170 527 1129 q 500 1238 527 1211 q 425 1265 473 1265 q 351 1238 378 1265 q 323 1170 323 1211 z "},"á":{"ha":833,"x_min":78,"x_max":745,"o":"m 554 0 l 745 0 l 745 12 q 724 78 731 39 q 716 176 716 117 l 716 490 q 692 603 716 554 q 627 683 669 651 q 527 731 585 715 q 404 747 470 747 q 272 729 330 747 q 176 678 215 710 q 115 604 136 646 q 94 515 94 562 l 283 515 q 289 551 283 535 q 307 579 294 568 q 342 599 320 592 q 393 606 363 606 q 453 598 427 606 q 495 574 478 589 q 519 538 511 559 q 528 492 528 517 l 528 448 l 422 448 q 278 434 341 448 q 173 391 216 419 q 102 314 125 361 q 78 205 78 267 q 97 118 78 158 q 150 48 116 77 q 231 3 184 19 q 334 -14 278 -14 q 399 -7 369 -14 q 454 11 429 -1 q 498 37 478 22 q 534 68 519 52 q 543 31 538 49 q 554 0 547 14 m 374 132 q 328 139 348 132 q 294 156 308 145 q 274 184 281 168 q 267 220 267 201 q 276 267 267 245 q 305 304 286 288 q 356 327 325 319 q 431 336 387 336 l 528 336 l 528 210 q 505 181 519 195 q 471 157 491 168 q 427 139 452 146 q 374 132 403 132 m 452 1018 l 325 829 l 471 829 l 659 1018 l 452 1018 z "},"ă":{"ha":833,"x_min":78,"x_max":745,"o":"m 554 0 l 745 0 l 745 12 q 724 78 731 39 q 716 176 716 117 l 716 490 q 692 603 716 554 q 627 683 669 651 q 527 731 585 715 q 404 747 470 747 q 272 729 330 747 q 176 678 215 710 q 115 604 136 646 q 94 515 94 562 l 283 515 q 289 551 283 535 q 307 579 294 568 q 342 599 320 592 q 393 606 363 606 q 453 598 427 606 q 495 574 478 589 q 519 538 511 559 q 528 492 528 517 l 528 448 l 422 448 q 278 434 341 448 q 173 391 216 419 q 102 314 125 361 q 78 205 78 267 q 97 118 78 158 q 150 48 116 77 q 231 3 184 19 q 334 -14 278 -14 q 399 -7 369 -14 q 454 11 429 -1 q 498 37 478 22 q 534 68 519 52 q 543 31 538 49 q 554 0 547 14 m 374 132 q 328 139 348 132 q 294 156 308 145 q 274 184 281 168 q 267 220 267 201 q 276 267 267 245 q 305 304 286 288 q 356 327 325 319 q 431 336 387 336 l 528 336 l 528 210 q 505 181 519 195 q 471 157 491 168 q 427 139 452 146 q 374 132 403 132 m 636 1041 l 500 1041 q 495 1007 500 1023 q 479 978 490 990 q 449 958 467 965 q 406 950 431 950 q 361 958 379 950 q 332 978 343 965 q 315 1007 320 990 q 310 1041 310 1023 l 174 1041 q 190 960 174 997 q 237 898 206 924 q 309 857 267 871 q 406 842 352 842 q 501 857 458 842 q 574 898 544 871 q 620 960 604 924 q 636 1041 636 997 z "},"â":{"ha":833,"x_min":78,"x_max":745,"o":"m 554 0 l 745 0 l 745 12 q 724 78 731 39 q 716 176 716 117 l 716 490 q 692 603 716 554 q 627 683 669 651 q 527 731 585 715 q 404 747 470 747 q 272 729 330 747 q 176 678 215 710 q 115 604 136 646 q 94 515 94 562 l 283 515 q 289 551 283 535 q 307 579 294 568 q 342 599 320 592 q 393 606 363 606 q 453 598 427 606 q 495 574 478 589 q 519 538 511 559 q 528 492 528 517 l 528 448 l 422 448 q 278 434 341 448 q 173 391 216 419 q 102 314 125 361 q 78 205 78 267 q 97 118 78 158 q 150 48 116 77 q 231 3 184 19 q 334 -14 278 -14 q 399 -7 369 -14 q 454 11 429 -1 q 498 37 478 22 q 534 68 519 52 q 543 31 538 49 q 554 0 547 14 m 374 132 q 328 139 348 132 q 294 156 308 145 q 274 184 281 168 q 267 220 267 201 q 276 267 267 245 q 305 304 286 288 q 356 327 325 319 q 431 336 387 336 l 528 336 l 528 210 q 505 181 519 195 q 471 157 491 168 q 427 139 452 146 q 374 132 403 132 m 659 882 l 459 1046 l 350 1046 l 153 883 l 153 863 l 300 863 l 404 949 l 509 863 l 659 863 l 659 882 z "},"ä":{"ha":833,"x_min":78,"x_max":745,"o":"m 554 0 l 745 0 l 745 12 q 724 78 731 39 q 716 176 716 117 l 716 490 q 692 603 716 554 q 627 683 669 651 q 527 731 585 715 q 404 747 470 747 q 272 729 330 747 q 176 678 215 710 q 115 604 136 646 q 94 515 94 562 l 283 515 q 289 551 283 535 q 307 579 294 568 q 342 599 320 592 q 393 606 363 606 q 453 598 427 606 q 495 574 478 589 q 519 538 511 559 q 528 492 528 517 l 528 448 l 422 448 q 278 434 341 448 q 173 391 216 419 q 102 314 125 361 q 78 205 78 267 q 97 118 78 158 q 150 48 116 77 q 231 3 184 19 q 334 -14 278 -14 q 399 -7 369 -14 q 454 11 429 -1 q 498 37 478 22 q 534 68 519 52 q 543 31 538 49 q 554 0 547 14 m 374 132 q 328 139 348 132 q 294 156 308 145 q 274 184 281 168 q 267 220 267 201 q 276 267 267 245 q 305 304 286 288 q 356 327 325 319 q 431 336 387 336 l 528 336 l 528 210 q 505 181 519 195 q 471 157 491 168 q 427 139 452 146 q 374 132 403 132 m 146 944 q 172 884 146 908 q 238 860 198 860 q 304 884 278 860 q 330 944 330 908 q 304 1004 330 979 q 238 1029 279 1029 q 172 1004 197 1029 q 146 944 146 979 m 471 944 q 497 883 471 907 q 564 859 523 859 q 630 883 604 859 q 656 944 656 907 q 630 1003 656 979 q 564 1028 605 1028 q 497 1003 522 1028 q 471 944 471 979 z "},"à":{"ha":833,"x_min":78,"x_max":745,"o":"m 554 0 l 745 0 l 745 12 q 724 78 731 39 q 716 176 716 117 l 716 490 q 692 603 716 554 q 627 683 669 651 q 527 731 585 715 q 404 747 470 747 q 272 729 330 747 q 176 678 215 710 q 115 604 136 646 q 94 515 94 562 l 283 515 q 289 551 283 535 q 307 579 294 568 q 342 599 320 592 q 393 606 363 606 q 453 598 427 606 q 495 574 478 589 q 519 538 511 559 q 528 492 528 517 l 528 448 l 422 448 q 278 434 341 448 q 173 391 216 419 q 102 314 125 361 q 78 205 78 267 q 97 118 78 158 q 150 48 116 77 q 231 3 184 19 q 334 -14 278 -14 q 399 -7 369 -14 q 454 11 429 -1 q 498 37 478 22 q 534 68 519 52 q 543 31 538 49 q 554 0 547 14 m 374 132 q 328 139 348 132 q 294 156 308 145 q 274 184 281 168 q 267 220 267 201 q 276 267 267 245 q 305 304 286 288 q 356 327 325 319 q 431 336 387 336 l 528 336 l 528 210 q 505 181 519 195 q 471 157 491 168 q 427 139 452 146 q 374 132 403 132 m 481 831 l 361 1020 l 153 1020 l 332 831 l 481 831 z "},"ā":{"ha":833,"x_min":78,"x_max":745,"o":"m 554 0 l 745 0 l 745 12 q 724 78 731 39 q 716 176 716 117 l 716 490 q 692 603 716 554 q 627 683 669 651 q 527 731 585 715 q 404 747 470 747 q 272 729 330 747 q 176 678 215 710 q 115 604 136 646 q 94 515 94 562 l 283 515 q 289 551 283 535 q 307 579 294 568 q 342 599 320 592 q 393 606 363 606 q 453 598 427 606 q 495 574 478 589 q 519 538 511 559 q 528 492 528 517 l 528 448 l 422 448 q 278 434 341 448 q 173 391 216 419 q 102 314 125 361 q 78 205 78 267 q 97 118 78 158 q 150 48 116 77 q 231 3 184 19 q 334 -14 278 -14 q 399 -7 369 -14 q 454 11 429 -1 q 498 37 478 22 q 534 68 519 52 q 543 31 538 49 q 554 0 547 14 m 374 132 q 328 139 348 132 q 294 156 308 145 q 274 184 281 168 q 267 220 267 201 q 276 267 267 245 q 305 304 286 288 q 356 327 325 319 q 431 336 387 336 l 528 336 l 528 210 q 505 181 519 195 q 471 157 491 168 q 427 139 452 146 q 374 132 403 132 m 654 876 l 654 987 l 159 987 l 159 876 l 654 876 z "},"ą":{"ha":833,"x_min":78,"x_max":745,"o":"m 551 7 q 516 -24 531 -7 q 490 -57 500 -40 q 469 -101 476 -79 q 462 -147 462 -124 q 474 -208 462 -182 q 506 -252 486 -234 q 554 -278 526 -269 q 612 -288 581 -288 q 689 -278 659 -288 q 739 -258 720 -268 l 707 -153 q 684 -162 697 -157 q 650 -167 670 -167 q 615 -154 625 -167 q 605 -121 605 -140 q 610 -86 605 -102 q 627 -54 615 -69 q 660 -26 640 -39 q 711 0 680 -12 l 745 0 l 745 12 q 724 78 731 39 q 716 176 716 117 l 716 490 q 692 603 716 554 q 627 683 669 651 q 527 731 585 715 q 404 747 470 747 q 272 729 330 747 q 176 678 215 710 q 115 604 136 646 q 94 515 94 562 l 283 515 q 291 556 283 538 q 314 586 298 574 q 347 601 328 595 q 393 606 367 606 q 456 596 429 606 q 500 569 483 587 q 520 535 513 555 q 528 492 528 515 l 528 448 l 422 448 q 286 435 346 448 q 182 397 225 422 q 104 318 131 367 q 78 205 78 269 q 97 118 78 158 q 150 48 116 77 q 231 3 184 19 q 334 -14 278 -14 q 399 -7 369 -14 q 454 11 429 -1 q 498 37 478 22 q 534 68 519 52 q 542 35 538 51 q 551 7 545 20 m 374 132 q 323 140 345 132 q 288 161 302 148 q 272 188 277 173 q 267 220 267 203 q 276 267 267 245 q 305 304 286 288 q 356 327 325 319 q 431 336 387 336 l 528 336 l 528 210 q 505 181 519 195 q 471 157 491 168 q 427 139 452 146 q 374 132 403 132 z "},"å":{"ha":833,"x_min":78,"x_max":745,"o":"m 554 0 l 745 0 l 745 12 q 724 78 731 39 q 716 176 716 117 l 716 490 q 692 603 716 554 q 627 683 669 651 q 527 731 585 715 q 404 747 470 747 q 272 729 330 747 q 176 678 215 710 q 115 604 136 646 q 94 515 94 562 l 283 515 q 289 551 283 535 q 307 579 294 568 q 342 599 320 592 q 393 606 363 606 q 453 598 427 606 q 495 574 478 589 q 519 538 511 559 q 528 492 528 517 l 528 448 l 422 448 q 278 434 341 448 q 173 391 216 419 q 102 314 125 361 q 78 205 78 267 q 97 118 78 158 q 150 48 116 77 q 231 3 184 19 q 334 -14 278 -14 q 399 -7 369 -14 q 454 11 429 -1 q 498 37 478 22 q 534 68 519 52 q 543 31 538 49 q 554 0 547 14 m 374 132 q 328 139 348 132 q 294 156 308 145 q 274 184 281 168 q 267 220 267 201 q 276 267 267 245 q 305 304 286 288 q 356 327 325 319 q 431 336 387 336 l 528 336 l 528 210 q 505 181 519 195 q 471 157 491 168 q 427 139 452 146 q 374 132 403 132 m 261 956 q 272 904 261 928 q 303 863 283 880 q 349 836 323 845 q 406 826 376 826 q 461 836 435 826 q 506 863 487 845 q 536 904 525 880 q 547 956 547 928 q 536 1009 547 985 q 506 1051 525 1034 q 461 1079 487 1069 q 406 1089 435 1089 q 349 1079 376 1089 q 303 1051 323 1069 q 272 1009 283 1034 q 261 956 261 985 m 338 956 q 343 983 338 971 q 357 1004 349 996 q 378 1019 366 1014 q 406 1024 391 1024 q 432 1019 420 1024 q 452 1006 444 1015 q 465 984 460 997 q 470 956 470 971 q 465 928 470 941 q 450 907 460 916 q 431 894 442 899 q 406 890 419 890 q 379 895 391 890 q 358 907 367 899 q 344 929 349 916 q 338 956 338 941 z "},"ǻ":{"ha":833,"x_min":78,"x_max":745,"o":"m 554 0 l 745 0 l 745 12 q 724 78 731 39 q 716 176 716 117 l 716 490 q 692 603 716 554 q 627 683 669 651 q 527 731 585 715 q 404 747 470 747 q 272 729 330 747 q 176 678 215 710 q 115 604 136 646 q 94 515 94 562 l 283 515 q 289 551 283 535 q 307 579 294 568 q 342 599 320 592 q 393 606 363 606 q 453 598 427 606 q 495 574 478 589 q 519 538 511 559 q 528 492 528 517 l 528 448 l 422 448 q 278 434 341 448 q 173 391 216 419 q 102 314 125 361 q 78 205 78 267 q 97 118 78 158 q 150 48 116 77 q 231 3 184 19 q 334 -14 278 -14 q 399 -7 369 -14 q 454 11 429 -1 q 498 37 478 22 q 534 68 519 52 q 543 31 538 49 q 554 0 547 14 m 374 132 q 328 139 348 132 q 294 156 308 145 q 274 184 281 168 q 267 220 267 201 q 276 267 267 245 q 305 304 286 288 q 356 327 325 319 q 431 336 387 336 l 528 336 l 528 210 q 505 181 519 195 q 471 157 491 168 q 427 139 452 146 q 374 132 403 132 m 479 1229 l 356 1090 l 479 1090 l 658 1229 l 479 1229 m 270 938 q 280 888 270 911 q 309 850 291 866 q 352 824 328 833 q 405 815 377 815 q 457 824 433 815 q 499 849 481 833 q 527 888 517 865 q 537 938 537 911 q 527 987 537 964 q 499 1027 517 1010 q 457 1053 481 1044 q 405 1063 433 1063 q 352 1053 377 1063 q 309 1027 328 1044 q 280 987 291 1010 q 270 938 270 964 m 345 938 q 362 982 345 965 q 405 999 379 999 q 447 982 431 999 q 463 938 463 965 q 447 895 463 912 q 405 878 431 878 q 362 895 379 878 q 345 938 345 912 z "},"ã":{"ha":833,"x_min":78,"x_max":745,"o":"m 554 0 l 745 0 l 745 12 q 724 78 731 39 q 716 176 716 117 l 716 490 q 692 603 716 554 q 627 683 669 651 q 527 731 585 715 q 404 747 470 747 q 272 729 330 747 q 176 678 215 710 q 115 604 136 646 q 94 515 94 562 l 283 515 q 289 551 283 535 q 307 579 294 568 q 342 599 320 592 q 393 606 363 606 q 453 598 427 606 q 495 574 478 589 q 519 538 511 559 q 528 492 528 517 l 528 448 l 422 448 q 278 434 341 448 q 173 391 216 419 q 102 314 125 361 q 78 205 78 267 q 97 118 78 158 q 150 48 116 77 q 231 3 184 19 q 334 -14 278 -14 q 399 -7 369 -14 q 454 11 429 -1 q 498 37 478 22 q 534 68 519 52 q 543 31 538 49 q 554 0 547 14 m 374 132 q 328 139 348 132 q 294 156 308 145 q 274 184 281 168 q 267 220 267 201 q 276 267 267 245 q 305 304 286 288 q 356 327 325 319 q 431 336 387 336 l 528 336 l 528 210 q 505 181 519 195 q 471 157 491 168 q 427 139 452 146 q 374 132 403 132 m 651 1044 l 556 1065 q 552 1039 556 1050 q 540 1019 547 1027 q 520 1004 532 1009 q 495 999 508 999 q 446 1008 469 999 q 401 1029 423 1017 q 354 1049 378 1040 q 303 1058 330 1058 q 243 1043 270 1058 q 197 1004 216 1028 q 168 951 178 981 q 157 891 157 921 l 252 871 q 257 899 252 886 q 271 920 262 911 q 290 933 279 928 q 313 937 300 937 q 360 928 339 937 q 403 908 381 919 q 448 887 424 897 q 505 878 472 878 q 565 892 538 878 q 611 930 591 907 q 641 983 630 954 q 651 1044 651 1013 z "},"ǽ":{"ha":833,"x_min":31,"x_max":810,"o":"m 589 -14 q 653 -9 623 -14 q 710 3 684 -5 q 756 20 736 10 q 791 41 777 30 l 753 171 q 726 159 739 165 q 697 149 712 153 q 663 141 682 144 q 622 138 645 138 q 583 141 600 138 q 553 151 566 144 q 529 169 538 159 q 513 193 519 180 q 506 218 509 204 q 504 246 504 231 l 504 308 l 810 308 l 810 474 q 794 588 810 537 q 749 674 778 639 q 679 728 720 709 q 588 747 638 747 q 534 743 559 748 q 488 730 509 739 q 459 715 473 724 q 434 696 446 707 q 410 714 422 707 q 383 728 397 722 q 334 743 361 738 q 277 747 307 747 q 181 732 223 747 q 109 689 138 717 q 63 621 79 661 q 47 532 47 581 l 224 526 q 227 554 224 543 q 235 574 229 566 q 256 590 243 585 q 286 595 269 595 q 306 592 298 595 q 321 582 315 589 q 335 557 330 573 q 339 520 339 542 l 339 439 l 337 439 q 189 419 252 439 q 89 361 127 399 q 46 291 60 332 q 31 201 31 251 q 45 113 31 153 q 87 45 60 73 q 155 2 115 17 q 247 -14 195 -14 q 298 -7 275 -14 q 342 10 321 -1 q 377 36 361 21 q 406 67 393 51 q 433 39 418 52 q 465 16 448 26 q 521 -6 490 1 q 589 -14 552 -14 m 294 125 q 260 131 275 125 q 237 146 245 136 q 223 169 228 156 q 219 199 219 182 q 227 243 219 222 q 250 280 235 264 q 287 305 265 296 q 338 315 309 315 l 339 315 q 339 274 339 291 q 339 239 339 257 q 339 196 339 214 q 339 145 339 178 q 332 138 336 142 q 323 133 328 135 q 309 127 317 130 q 294 125 301 125 m 636 436 l 504 436 l 504 477 q 505 505 504 492 q 507 530 505 518 q 516 561 510 547 q 533 583 522 575 q 551 592 541 589 q 574 595 561 595 q 602 589 591 595 q 621 574 614 584 q 632 547 629 563 q 636 512 636 532 l 636 436 m 492 1019 l 366 829 l 512 829 l 700 1019 l 492 1019 z "},"ć":{"ha":833,"x_min":79,"x_max":735,"o":"m 420 137 q 346 155 375 137 q 299 204 316 174 q 275 274 281 234 q 268 356 268 313 l 268 376 q 275 458 268 418 q 300 528 282 497 q 346 576 317 558 q 420 595 375 595 q 476 584 450 595 q 520 556 502 574 q 548 514 538 538 q 556 463 557 490 l 734 463 q 712 580 735 528 q 648 670 689 633 q 548 727 606 707 q 422 747 490 747 q 274 718 338 747 q 166 639 210 689 q 101 521 123 589 q 79 376 79 454 l 79 356 q 101 211 79 279 q 167 94 123 144 q 274 15 210 43 q 424 -14 338 -14 q 544 6 487 -14 q 643 61 600 26 q 710 145 686 96 q 734 251 735 194 l 556 251 q 547 204 557 225 q 517 168 536 183 q 473 145 498 153 q 420 137 448 137 m 473 1018 l 347 829 l 493 829 l 681 1018 l 473 1018 z "},"č":{"ha":833,"x_min":79,"x_max":735,"o":"m 420 137 q 346 155 375 137 q 299 204 316 174 q 275 274 281 234 q 268 356 268 313 l 268 376 q 275 458 268 418 q 300 528 282 497 q 346 576 317 558 q 420 595 375 595 q 476 584 450 595 q 520 556 502 574 q 548 514 538 538 q 556 463 557 490 l 734 463 q 712 580 735 528 q 648 670 689 633 q 548 727 606 707 q 422 747 490 747 q 274 718 338 747 q 166 639 210 689 q 101 521 123 589 q 79 376 79 454 l 79 356 q 101 211 79 279 q 167 94 123 144 q 274 15 210 43 q 424 -14 338 -14 q 544 6 487 -14 q 643 61 600 26 q 710 145 686 96 q 734 251 735 194 l 556 251 q 547 204 557 225 q 517 168 536 183 q 473 145 498 153 q 420 137 448 137 m 426 962 l 327 1047 l 166 1047 l 166 1034 l 367 863 l 486 863 l 686 1034 l 686 1047 l 526 1047 l 426 962 z "},"ç":{"ha":833,"x_min":79,"x_max":735,"o":"m 420 137 q 346 155 375 137 q 299 204 316 174 q 275 274 281 234 q 268 356 268 313 l 268 376 q 275 458 268 418 q 300 528 282 497 q 346 576 317 558 q 420 595 375 595 q 476 584 450 595 q 520 556 502 574 q 548 514 538 538 q 556 463 557 490 l 734 463 q 712 580 735 528 q 648 670 689 633 q 548 727 606 707 q 422 747 490 747 q 274 718 338 747 q 166 639 210 689 q 101 521 123 589 q 79 376 79 454 l 79 356 q 101 211 79 279 q 167 94 123 144 q 274 15 210 43 q 424 -14 338 -14 q 544 6 487 -14 q 643 61 600 26 q 710 145 686 96 q 734 251 735 194 l 556 251 q 547 204 557 225 q 517 168 536 183 q 473 145 498 153 q 420 137 448 137 m 493 7 l 353 7 l 332 -89 q 377 -94 358 -91 q 408 -104 396 -97 q 425 -119 419 -110 q 430 -142 430 -129 q 424 -169 430 -158 q 406 -186 417 -180 q 381 -196 395 -193 q 349 -199 366 -199 l 354 -307 q 455 -296 412 -307 q 528 -263 498 -284 q 572 -214 557 -243 q 587 -149 587 -184 q 578 -99 587 -119 q 555 -64 570 -78 q 523 -42 541 -50 q 486 -31 505 -35 l 493 7 z "},"ĉ":{"ha":833,"x_min":79,"x_max":735,"o":"m 420 137 q 346 155 375 137 q 299 204 316 174 q 275 274 281 234 q 268 356 268 313 l 268 376 q 275 458 268 418 q 300 528 282 497 q 346 576 317 558 q 420 595 375 595 q 476 584 450 595 q 520 556 502 574 q 548 514 538 538 q 556 463 557 490 l 734 463 q 712 580 735 528 q 648 670 689 633 q 548 727 606 707 q 422 747 490 747 q 274 718 338 747 q 166 639 210 689 q 101 521 123 589 q 79 376 79 454 l 79 356 q 101 211 79 279 q 167 94 123 144 q 274 15 210 43 q 424 -14 338 -14 q 544 6 487 -14 q 643 61 600 26 q 710 145 686 96 q 734 251 735 194 l 556 251 q 547 204 557 225 q 517 168 536 183 q 473 145 498 153 q 420 137 448 137 m 680 882 l 481 1046 l 372 1046 l 175 883 l 175 863 l 322 863 l 426 949 l 530 863 l 680 863 l 680 882 z "},"ď":{"ha":833,"x_min":27,"x_max":951,"o":"m 27 372 l 27 358 q 47 210 27 278 q 104 92 66 142 q 194 15 140 43 q 314 -14 247 -14 q 422 10 376 -14 q 504 77 469 34 l 513 0 l 684 0 l 684 1042 l 494 1042 l 494 668 q 417 727 460 706 q 315 747 373 747 q 194 720 247 747 q 103 644 140 693 q 46 525 66 594 q 27 372 27 456 m 216 358 l 216 372 q 224 459 216 418 q 250 530 232 499 q 295 577 267 559 q 363 594 323 594 q 444 573 412 594 q 494 515 475 553 l 494 218 q 443 161 475 182 q 362 140 411 140 q 294 157 322 140 q 249 203 267 174 q 223 272 231 233 q 216 358 216 312 m 951 941 l 951 1058 l 800 1058 l 800 941 q 783 824 800 875 q 741 729 766 773 l 827 675 q 876 731 853 699 q 915 798 898 762 q 941 869 932 832 q 951 941 951 906 z "},"đ":{"ha":833,"x_min":66,"x_max":837,"o":"m 837 827 l 837 949 l 722 949 l 722 1042 l 533 1042 l 533 949 l 368 949 l 368 827 l 533 827 l 533 668 q 509 692 522 681 q 484 711 496 703 q 424 738 456 729 q 354 747 392 747 q 232 720 286 747 q 142 644 179 693 q 85 525 104 594 q 66 372 66 456 l 66 358 q 85 210 66 278 q 142 92 105 142 q 232 15 179 43 q 353 -14 286 -14 q 421 -5 390 -14 q 479 20 453 4 q 513 45 497 31 q 543 77 529 60 l 552 0 l 722 0 l 722 827 l 837 827 m 254 358 l 254 372 q 262 459 254 418 q 288 530 271 499 q 334 577 306 559 q 402 594 362 594 q 444 589 425 594 q 477 576 463 585 q 509 551 496 566 q 533 515 523 535 l 533 218 q 511 186 524 201 q 484 161 499 172 q 447 145 467 151 q 401 140 426 140 q 333 157 361 140 q 288 203 305 174 q 262 272 270 233 q 254 358 254 312 z "},"é":{"ha":833,"x_min":76,"x_max":765,"o":"m 452 -14 q 636 28 558 -14 q 750 120 714 69 l 656 222 q 571 159 623 180 q 463 138 519 138 q 391 150 424 138 q 332 184 357 162 q 292 233 307 206 q 267 304 277 260 l 267 306 l 765 306 l 765 386 q 743 533 765 467 q 677 648 720 600 q 572 721 634 695 q 431 747 510 747 q 289 720 354 747 q 176 642 224 692 q 102 522 129 591 q 76 368 76 452 l 76 341 q 103 202 76 267 q 179 90 130 138 q 298 14 229 42 q 452 -14 367 -14 m 429 595 q 493 584 465 595 q 539 553 520 572 q 569 507 558 534 q 580 451 580 481 l 580 436 l 271 436 q 291 501 277 472 q 325 551 304 530 q 371 584 345 572 q 429 595 397 595 m 455 1019 l 328 829 l 475 829 l 663 1019 l 455 1019 z "},"ĕ":{"ha":833,"x_min":76,"x_max":765,"o":"m 452 -14 q 636 28 558 -14 q 750 120 714 69 l 656 222 q 571 159 623 180 q 463 138 519 138 q 391 150 424 138 q 332 184 357 162 q 292 233 307 206 q 267 304 277 260 l 267 306 l 765 306 l 765 386 q 743 533 765 467 q 677 648 720 600 q 572 721 634 695 q 431 747 510 747 q 289 720 354 747 q 176 642 224 692 q 102 522 129 591 q 76 368 76 452 l 76 341 q 103 202 76 267 q 179 90 130 138 q 298 14 229 42 q 452 -14 367 -14 m 429 595 q 493 584 465 595 q 539 553 520 572 q 569 507 558 534 q 580 451 580 481 l 580 436 l 271 436 q 291 501 277 472 q 325 551 304 530 q 371 584 345 572 q 429 595 397 595 m 640 1042 l 503 1042 q 498 1007 503 1024 q 482 979 493 991 q 453 958 471 966 q 409 951 435 951 q 365 958 382 951 q 335 979 347 966 q 318 1007 323 991 q 313 1042 313 1024 l 178 1042 q 194 961 178 998 q 240 899 210 924 q 313 858 270 872 q 409 843 355 843 q 505 858 462 843 q 578 899 547 872 q 624 961 608 924 q 640 1042 640 998 z "},"ě":{"ha":833,"x_min":76,"x_max":765,"o":"m 452 -14 q 636 28 558 -14 q 750 120 714 69 l 656 222 q 571 159 623 180 q 463 138 519 138 q 391 150 424 138 q 332 184 357 162 q 292 233 307 206 q 267 304 277 260 l 267 306 l 765 306 l 765 386 q 743 533 765 467 q 677 648 720 600 q 572 721 634 695 q 431 747 510 747 q 289 720 354 747 q 176 642 224 692 q 102 522 129 591 q 76 368 76 452 l 76 341 q 103 202 76 267 q 179 90 130 138 q 298 14 229 42 q 452 -14 367 -14 m 429 595 q 493 584 465 595 q 539 553 520 572 q 569 507 558 534 q 580 451 580 481 l 580 436 l 271 436 q 291 501 277 472 q 325 551 304 530 q 371 584 345 572 q 429 595 397 595 m 408 962 l 309 1048 l 148 1048 l 148 1034 l 349 863 l 467 863 l 668 1035 l 668 1048 l 507 1048 l 408 962 z "},"ê":{"ha":833,"x_min":76,"x_max":765,"o":"m 452 -14 q 636 28 558 -14 q 750 120 714 69 l 656 222 q 571 159 623 180 q 463 138 519 138 q 391 150 424 138 q 332 184 357 162 q 292 233 307 206 q 267 304 277 260 l 267 306 l 765 306 l 765 386 q 743 533 765 467 q 677 648 720 600 q 572 721 634 695 q 431 747 510 747 q 289 720 354 747 q 176 642 224 692 q 102 522 129 591 q 76 368 76 452 l 76 341 q 103 202 76 267 q 179 90 130 138 q 298 14 229 42 q 452 -14 367 -14 m 429 595 q 493 584 465 595 q 539 553 520 572 q 569 507 558 534 q 580 451 580 481 l 580 436 l 271 436 q 291 501 277 472 q 325 551 304 530 q 371 584 345 572 q 429 595 397 595 m 662 882 l 463 1047 l 353 1047 l 157 884 l 157 863 l 304 863 l 408 949 l 512 863 l 662 863 l 662 882 z "},"ë":{"ha":833,"x_min":76,"x_max":765,"o":"m 452 -14 q 636 28 558 -14 q 750 120 714 69 l 656 222 q 571 159 623 180 q 463 138 519 138 q 391 150 424 138 q 332 184 357 162 q 292 233 307 206 q 267 304 277 260 l 267 306 l 765 306 l 765 386 q 743 533 765 467 q 677 648 720 600 q 572 721 634 695 q 431 747 510 747 q 289 720 354 747 q 176 642 224 692 q 102 522 129 591 q 76 368 76 452 l 76 341 q 103 202 76 267 q 179 90 130 138 q 298 14 229 42 q 452 -14 367 -14 m 429 595 q 493 584 465 595 q 539 553 520 572 q 569 507 558 534 q 580 451 580 481 l 580 436 l 271 436 q 291 501 277 472 q 325 551 304 530 q 371 584 345 572 q 429 595 397 595 m 149 945 q 175 885 149 909 q 241 861 201 861 q 308 885 281 861 q 334 945 334 909 q 308 1005 334 980 q 241 1029 282 1029 q 175 1005 201 1029 q 149 945 149 980 m 475 945 q 500 884 475 908 q 567 859 526 859 q 633 884 608 859 q 659 945 659 908 q 634 1004 659 979 q 567 1029 608 1029 q 500 1004 526 1029 q 475 945 475 979 z "},"ė":{"ha":833,"x_min":76,"x_max":765,"o":"m 452 -14 q 636 28 558 -14 q 750 120 714 69 l 656 222 q 571 159 623 180 q 463 138 519 138 q 391 150 424 138 q 332 184 357 162 q 292 233 307 206 q 267 304 277 260 l 267 306 l 765 306 l 765 386 q 743 533 765 467 q 677 648 720 600 q 572 721 634 695 q 431 747 510 747 q 289 720 354 747 q 176 642 224 692 q 102 522 129 591 q 76 368 76 452 l 76 341 q 103 202 76 267 q 179 90 130 138 q 298 14 229 42 q 452 -14 367 -14 m 429 595 q 493 584 465 595 q 539 553 520 572 q 569 507 558 534 q 580 451 580 481 l 580 436 l 271 436 q 291 501 277 472 q 325 551 304 530 q 371 584 345 572 q 429 595 397 595 m 305 954 q 332 887 305 913 q 407 860 359 860 q 481 887 454 860 q 509 954 509 913 q 481 1022 509 996 q 407 1049 454 1049 q 332 1022 359 1049 q 305 954 305 996 z "},"è":{"ha":833,"x_min":76,"x_max":765,"o":"m 452 -14 q 636 28 558 -14 q 750 120 714 69 l 656 222 q 571 159 623 180 q 463 138 519 138 q 391 150 424 138 q 332 184 357 162 q 292 233 307 206 q 267 304 277 260 l 267 306 l 765 306 l 765 386 q 743 533 765 467 q 677 648 720 600 q 572 721 634 695 q 431 747 510 747 q 289 720 354 747 q 176 642 224 692 q 102 522 129 591 q 76 368 76 452 l 76 341 q 103 202 76 267 q 179 90 130 138 q 298 14 229 42 q 452 -14 367 -14 m 429 595 q 493 584 465 595 q 539 553 520 572 q 569 507 558 534 q 580 451 580 481 l 580 436 l 271 436 q 291 501 277 472 q 325 551 304 530 q 371 584 345 572 q 429 595 397 595 m 484 831 l 364 1021 l 157 1021 l 336 831 l 484 831 z "},"ē":{"ha":833,"x_min":76,"x_max":765,"o":"m 452 -14 q 636 28 558 -14 q 750 120 714 69 l 656 222 q 571 159 623 180 q 463 138 519 138 q 391 150 424 138 q 332 184 357 162 q 292 233 307 206 q 267 304 277 260 l 267 306 l 765 306 l 765 386 q 743 533 765 467 q 677 648 720 600 q 572 721 634 695 q 431 747 510 747 q 289 720 354 747 q 176 642 224 692 q 102 522 129 591 q 76 368 76 452 l 76 341 q 103 202 76 267 q 179 90 130 138 q 298 14 229 42 q 452 -14 367 -14 m 429 595 q 493 584 465 595 q 539 553 520 572 q 569 507 558 534 q 580 451 580 481 l 580 436 l 271 436 q 291 501 277 472 q 325 551 304 530 q 371 584 345 572 q 429 595 397 595 m 657 877 l 657 988 l 162 988 l 162 877 l 657 877 z "},"ŋ":{"ha":833,"x_min":101,"x_max":732,"o":"m 101 0 l 290 0 l 290 532 q 310 554 298 544 q 335 572 321 564 q 376 588 353 583 q 426 594 399 594 q 476 587 454 594 q 513 562 498 579 q 535 517 527 545 q 543 449 543 490 l 543 -27 q 536 -80 543 -58 q 518 -117 530 -103 q 493 -135 507 -129 q 461 -141 479 -141 q 426 -139 444 -141 q 393 -133 408 -137 l 384 -285 q 431 -294 409 -292 q 478 -296 453 -296 q 584 -279 537 -296 q 665 -227 631 -261 q 715 -143 697 -193 q 732 -27 732 -92 l 732 450 q 715 587 732 530 q 667 680 698 644 q 592 731 635 715 q 494 747 548 747 q 421 737 456 747 q 359 707 387 727 q 319 674 338 693 q 285 631 300 654 l 284 639 l 276 734 l 101 734 l 101 0 z "},"ę":{"ha":833,"x_min":76,"x_max":765,"o":"m 76 341 q 100 211 76 272 q 168 102 123 149 q 273 25 211 55 q 407 -12 335 -5 q 412 -13 410 -12 q 415 -13 413 -13 q 373 -71 386 -39 q 360 -132 360 -102 q 372 -192 360 -166 q 404 -236 384 -218 q 452 -263 425 -254 q 511 -272 479 -272 q 588 -262 557 -272 q 637 -242 618 -252 l 605 -138 q 582 -146 595 -142 q 549 -151 568 -151 q 513 -138 524 -151 q 503 -105 503 -125 q 508 -70 503 -87 q 526 -39 513 -54 q 557 -10 538 -24 q 607 15 576 4 q 693 62 656 33 q 750 120 729 90 l 656 222 q 571 159 623 180 q 463 138 519 138 q 391 150 424 138 q 332 184 357 162 q 289 237 306 207 q 267 302 273 268 l 267 306 l 765 306 l 765 386 q 743 533 765 467 q 677 648 720 600 q 572 721 634 695 q 431 747 510 747 q 289 720 354 747 q 176 642 224 692 q 102 522 129 591 q 76 368 76 452 l 76 341 m 429 595 q 493 584 465 595 q 539 553 520 572 q 568 507 558 534 q 580 451 578 481 l 580 436 l 271 436 q 291 501 277 472 q 325 551 304 530 q 371 584 345 572 q 429 595 397 595 z "},"ğ":{"ha":833,"x_min":77,"x_max":743,"o":"m 77 372 l 77 358 q 97 210 77 278 q 157 92 118 142 q 250 15 195 43 q 373 -14 304 -14 q 438 -6 408 -14 q 493 15 468 1 q 525 37 510 24 q 553 64 540 49 l 553 22 q 543 -45 553 -16 q 513 -96 532 -75 q 459 -130 491 -118 q 385 -141 427 -141 q 335 -136 359 -141 q 289 -121 311 -131 q 245 -95 266 -111 q 205 -58 224 -79 l 121 -172 q 178 -225 144 -203 q 248 -261 211 -247 q 323 -282 286 -275 q 395 -289 361 -289 q 536 -268 472 -289 q 646 -208 600 -248 q 717 -109 692 -168 q 743 24 743 -51 l 743 734 l 571 734 l 564 664 q 534 695 550 681 q 498 719 517 709 q 443 740 473 733 q 374 747 412 747 q 250 720 305 747 q 157 644 195 693 q 97 525 118 594 q 77 372 77 456 m 266 358 l 266 372 q 275 459 266 418 q 304 530 285 499 q 353 577 323 559 q 422 594 382 594 q 462 590 444 594 q 496 578 481 586 q 529 555 515 570 q 553 522 543 541 l 553 212 q 531 181 544 195 q 501 158 518 168 q 465 144 485 149 q 420 140 445 140 q 351 157 380 140 q 303 203 322 174 q 275 272 284 233 q 266 358 266 312 m 638 1041 l 502 1041 q 497 1007 502 1023 q 481 978 492 990 q 451 958 469 965 q 408 950 433 950 q 363 958 381 950 q 334 978 345 965 q 317 1007 322 990 q 312 1041 312 1023 l 176 1041 q 192 960 176 997 q 239 898 208 924 q 311 857 269 871 q 408 842 354 842 q 503 857 460 842 q 576 898 546 871 q 622 960 606 924 q 638 1041 638 997 z "},"ĝ":{"ha":833,"x_min":77,"x_max":743,"o":"m 77 372 l 77 358 q 97 210 77 278 q 157 92 118 142 q 250 15 195 43 q 373 -14 304 -14 q 438 -6 408 -14 q 493 15 468 1 q 525 37 510 24 q 553 64 540 49 l 553 22 q 543 -45 553 -16 q 513 -96 532 -75 q 459 -130 491 -118 q 385 -141 427 -141 q 335 -136 359 -141 q 289 -121 311 -131 q 245 -95 266 -111 q 205 -58 224 -79 l 121 -172 q 178 -225 144 -203 q 248 -261 211 -247 q 323 -282 286 -275 q 395 -289 361 -289 q 536 -268 472 -289 q 646 -208 600 -248 q 717 -109 692 -168 q 743 24 743 -51 l 743 734 l 571 734 l 564 664 q 534 695 550 681 q 498 719 517 709 q 443 740 473 733 q 374 747 412 747 q 250 720 305 747 q 157 644 195 693 q 97 525 118 594 q 77 372 77 456 m 266 358 l 266 372 q 275 459 266 418 q 304 530 285 499 q 353 577 323 559 q 422 594 382 594 q 462 590 444 594 q 496 578 481 586 q 529 555 515 570 q 553 522 543 541 l 553 212 q 531 181 544 195 q 501 158 518 168 q 465 144 485 149 q 420 140 445 140 q 351 157 380 140 q 303 203 322 174 q 275 272 284 233 q 266 358 266 312 m 661 882 l 461 1046 l 352 1046 l 155 883 l 155 863 l 302 863 l 406 949 l 511 863 l 661 863 l 661 882 z "},"ģ":{"ha":833,"x_min":77,"x_max":743,"o":"m 77 372 l 77 358 q 97 210 77 278 q 157 92 118 142 q 250 15 195 43 q 373 -14 304 -14 q 438 -6 408 -14 q 493 15 468 1 q 525 37 510 24 q 553 64 540 49 l 553 22 q 543 -45 553 -16 q 513 -96 532 -75 q 459 -130 491 -118 q 385 -141 427 -141 q 335 -136 359 -141 q 289 -121 311 -131 q 245 -95 266 -111 q 205 -58 224 -79 l 121 -172 q 178 -225 144 -203 q 248 -261 211 -247 q 323 -282 286 -275 q 395 -289 361 -289 q 536 -268 472 -289 q 646 -208 600 -248 q 717 -109 692 -168 q 743 24 743 -51 l 743 734 l 571 734 l 564 664 q 534 695 550 681 q 498 719 517 709 q 443 740 473 733 q 374 747 412 747 q 250 720 305 747 q 157 644 195 693 q 97 525 118 594 q 77 372 77 456 m 266 358 l 266 372 q 275 459 266 418 q 304 530 285 499 q 353 577 323 559 q 422 594 382 594 q 462 590 444 594 q 496 578 481 586 q 529 555 515 570 q 553 522 543 541 l 553 212 q 531 181 544 195 q 501 158 518 168 q 465 144 485 149 q 420 140 445 140 q 351 157 380 140 q 303 203 322 174 q 275 272 284 233 q 266 358 266 312 m 328 945 l 328 852 l 477 852 l 479 937 q 492 1034 479 990 q 524 1110 506 1077 l 426 1163 q 356 1075 384 1135 q 328 945 328 1015 z "},"ħ":{"ha":833,"x_min":-3,"x_max":763,"o":"m 467 825 l 467 947 l 294 947 l 294 1042 l 106 1042 l 106 947 l -3 947 l -3 825 l 106 825 l 106 0 l 294 0 l 294 530 q 324 560 307 547 q 361 581 340 573 q 395 591 376 587 q 434 594 413 594 q 492 586 467 594 q 536 559 518 577 q 565 513 555 542 q 574 446 574 485 l 574 0 l 763 0 l 763 444 q 744 582 763 525 q 690 676 724 640 q 607 730 655 713 q 501 747 559 747 q 429 736 463 747 q 366 706 395 726 q 328 674 346 692 q 294 633 309 655 l 294 825 l 467 825 z "},"ĥ":{"ha":833,"x_min":-63,"x_max":753,"o":"m 284 633 l 284 1042 l 96 1042 l 96 0 l 284 0 l 284 530 q 308 555 295 544 q 338 575 321 567 q 377 589 355 585 q 424 594 399 594 q 482 586 456 594 q 526 559 508 577 q 554 513 545 542 q 564 446 564 485 l 564 0 l 753 0 l 753 444 q 733 582 753 525 q 680 676 714 640 q 597 730 645 713 q 491 747 549 747 q 416 736 452 747 q 352 703 381 724 q 316 672 333 690 q 284 633 298 654 m 442 1164 l 243 1329 l 134 1329 l -63 1166 l -63 1145 l 84 1145 l 188 1232 l 292 1145 l 442 1145 l 442 1164 z "},"í":{"ha":833,"x_min":135,"x_max":755,"o":"m 135 734 l 135 580 l 355 580 l 355 153 l 135 153 l 135 0 l 755 0 l 755 153 l 545 153 l 545 734 l 135 734 m 500 1001 l 373 812 l 519 812 l 707 1001 l 500 1001 z "},"ĭ":{"ha":833,"x_min":135,"x_max":755,"o":"m 135 734 l 135 580 l 355 580 l 355 153 l 135 153 l 135 0 l 755 0 l 755 153 l 545 153 l 545 734 l 135 734 m 684 1023 l 547 1023 q 542 989 547 1006 q 526 960 537 972 q 497 940 515 947 q 453 932 479 932 q 409 940 427 932 q 379 960 391 947 q 362 989 368 972 q 357 1023 357 1006 l 222 1023 q 238 943 222 979 q 284 880 254 906 q 357 839 314 854 q 453 825 399 825 q 549 839 506 825 q 622 880 591 854 q 668 943 652 906 q 684 1023 684 979 z "},"î":{"ha":833,"x_min":135,"x_max":755,"o":"m 135 734 l 135 580 l 355 580 l 355 153 l 135 153 l 135 0 l 755 0 l 755 153 l 545 153 l 545 734 l 135 734 m 707 864 l 507 1029 l 398 1029 l 201 865 l 201 845 l 349 845 l 452 931 l 557 845 l 707 845 l 707 864 z "},"ï":{"ha":833,"x_min":135,"x_max":755,"o":"m 135 734 l 135 580 l 355 580 l 355 153 l 135 153 l 135 0 l 755 0 l 755 153 l 545 153 l 545 734 l 135 734 m 193 926 q 219 866 193 890 q 286 842 245 842 q 352 866 326 842 q 378 926 378 890 q 352 986 378 962 q 286 1011 326 1011 q 219 986 245 1011 q 193 926 193 962 m 519 926 q 545 865 519 890 q 611 841 570 841 q 677 865 652 841 q 703 926 703 890 q 678 986 703 961 q 611 1010 652 1010 q 544 986 570 1010 q 519 926 519 961 z "},"ì":{"ha":833,"x_min":135,"x_max":755,"o":"m 135 734 l 135 580 l 355 580 l 355 153 l 135 153 l 135 0 l 755 0 l 755 153 l 545 153 l 545 734 l 135 734 m 529 813 l 409 1002 l 201 1002 l 380 813 l 529 813 z "},"ī":{"ha":833,"x_min":135,"x_max":755,"o":"m 135 734 l 135 580 l 355 580 l 355 153 l 135 153 l 135 0 l 755 0 l 755 153 l 545 153 l 545 734 l 135 734 m 701 859 l 701 970 l 206 970 l 206 859 l 701 859 z "},"į":{"ha":833,"x_min":146,"x_max":744,"o":"m 146 734 l 146 580 l 355 580 l 355 153 l 146 153 l 146 0 l 349 0 q 320 -27 333 -13 q 298 -56 308 -41 q 276 -101 283 -77 q 269 -147 269 -124 q 281 -208 269 -182 q 313 -252 293 -234 q 361 -278 334 -269 q 420 -288 389 -288 q 497 -278 467 -288 q 546 -258 527 -268 l 514 -153 q 491 -162 505 -157 q 458 -167 477 -167 q 422 -154 433 -167 q 412 -121 412 -140 q 417 -86 412 -102 q 435 -54 422 -69 q 467 -26 447 -39 q 518 0 488 -12 l 744 0 l 744 153 l 545 153 l 545 734 l 146 734 m 341 922 q 371 849 341 878 q 450 821 401 821 q 529 849 500 821 q 559 922 559 878 q 529 994 559 966 q 450 1022 500 1022 q 371 993 400 1022 q 341 922 341 964 z "},"ĩ":{"ha":833,"x_min":135,"x_max":755,"o":"m 135 734 l 135 580 l 355 580 l 355 153 l 135 153 l 135 0 l 755 0 l 755 153 l 545 153 l 545 734 l 135 734 m 699 1026 l 604 1047 q 600 1021 604 1033 q 588 1001 595 1009 q 568 986 580 991 q 543 981 556 981 q 494 990 517 981 q 449 1011 471 1000 q 402 1031 426 1022 q 351 1040 378 1040 q 291 1025 318 1040 q 245 987 264 1010 q 216 933 227 963 q 205 873 205 903 l 300 853 q 305 881 300 869 q 319 902 310 894 q 338 915 327 911 q 361 920 349 920 q 408 910 387 920 q 451 890 429 901 q 496 870 472 879 q 553 861 520 861 q 613 875 586 861 q 659 913 640 889 q 689 966 678 936 q 699 1026 699 996 z "},"ĵ":{"ha":833,"x_min":153,"x_max":752,"o":"m 210 734 l 210 580 l 396 580 l 396 -17 q 386 -76 396 -52 q 358 -113 376 -99 q 317 -134 340 -127 q 266 -140 293 -140 q 245 -139 258 -140 q 216 -138 231 -139 q 185 -135 200 -137 q 163 -132 171 -134 l 153 -285 q 180 -290 167 -288 q 208 -294 194 -292 q 242 -296 225 -295 q 275 -296 259 -296 q 407 -280 349 -296 q 505 -229 465 -264 q 565 -143 544 -195 q 586 -17 586 -90 l 586 734 l 210 734 m 752 854 l 553 1019 l 444 1019 l 247 856 l 247 836 l 394 836 l 498 922 l 602 836 l 752 836 l 752 854 z "},"ķ":{"ha":833,"x_min":98,"x_max":811,"o":"m 372 303 l 580 0 l 811 0 l 496 428 l 772 734 l 546 734 l 343 511 l 286 446 l 286 1042 l 98 1042 l 98 0 l 286 0 l 286 224 l 372 303 m 469 -102 l 469 -55 l 340 -55 l 340 -104 q 327 -200 340 -155 q 289 -287 315 -244 l 366 -338 q 444 -227 418 -292 q 469 -102 469 -161 z "},"ĺ":{"ha":833,"x_min":135,"x_max":755,"o":"m 135 1042 l 135 888 l 355 888 l 355 153 l 135 153 l 135 0 l 755 0 l 755 153 l 545 153 l 545 1042 l 135 1042 m 497 1284 l 370 1095 l 517 1095 l 705 1284 l 497 1284 z "},"ľ":{"ha":833,"x_min":87,"x_max":817,"o":"m 87 1042 l 87 888 l 307 888 l 307 153 l 87 153 l 87 0 l 708 0 l 708 153 l 498 153 l 498 1042 l 87 1042 m 817 928 l 817 1045 l 666 1045 l 666 928 q 649 811 666 862 q 607 716 633 760 l 693 663 q 742 718 720 686 q 781 785 764 749 q 808 856 798 819 q 817 928 817 893 z "},"ļ":{"ha":833,"x_min":135,"x_max":755,"o":"m 135 1042 l 135 888 l 355 888 l 355 153 l 135 153 l 135 0 l 755 0 l 755 153 l 545 153 l 545 1042 l 135 1042 m 522 -86 l 522 -39 l 393 -39 l 393 -88 q 381 -184 393 -140 q 342 -271 368 -229 l 419 -323 q 497 -211 472 -277 q 522 -86 522 -145 z "},"ŀ":{"ha":833,"x_min":87,"x_max":764,"o":"m 87 1042 l 87 888 l 307 888 l 307 153 l 87 153 l 87 0 l 708 0 l 708 153 l 498 153 l 498 1042 l 87 1042 m 560 551 q 587 483 560 510 q 662 456 614 456 q 736 483 709 456 q 764 551 764 510 q 736 619 764 592 q 662 646 709 646 q 587 619 614 646 q 560 551 560 592 z "},"ł":{"ha":833,"x_min":144,"x_max":765,"o":"m 555 691 l 555 1042 l 144 1042 l 144 888 l 364 888 l 364 607 l 153 513 l 153 381 l 364 475 l 364 153 l 144 153 l 144 0 l 765 0 l 765 153 l 555 153 l 555 559 l 745 644 l 745 776 l 555 691 z "},"ń":{"ha":833,"x_min":96,"x_max":751,"o":"m 96 0 l 285 0 l 285 522 q 306 549 294 536 q 332 570 317 561 q 372 588 349 582 q 422 594 395 594 q 480 588 454 594 q 524 565 506 581 q 552 520 543 549 q 562 449 562 492 l 562 0 l 751 0 l 751 452 q 732 588 751 532 q 680 680 713 644 q 600 731 646 715 q 498 747 554 747 q 416 735 455 747 q 345 700 378 723 q 309 669 326 686 q 278 632 292 652 l 267 734 l 96 734 l 96 0 m 459 1018 l 332 829 l 479 829 l 667 1018 l 459 1018 z "},"ň":{"ha":833,"x_min":96,"x_max":751,"o":"m 96 0 l 285 0 l 285 522 q 306 549 294 536 q 332 570 317 561 q 372 588 349 582 q 422 594 395 594 q 480 588 454 594 q 524 565 506 581 q 552 520 543 549 q 562 449 562 492 l 562 0 l 751 0 l 751 452 q 732 588 751 532 q 680 680 713 644 q 600 731 646 715 q 498 747 554 747 q 416 735 455 747 q 345 700 378 723 q 309 669 326 686 q 278 632 292 652 l 267 734 l 96 734 l 96 0 m 412 962 l 313 1047 l 152 1047 l 152 1034 l 353 863 l 471 863 l 672 1034 l 672 1047 l 511 1047 l 412 962 z "},"ņ":{"ha":833,"x_min":96,"x_max":751,"o":"m 96 0 l 285 0 l 285 522 q 306 549 294 536 q 332 570 317 561 q 372 588 349 582 q 422 594 395 594 q 480 588 454 594 q 524 565 506 581 q 552 520 543 549 q 562 449 562 492 l 562 0 l 751 0 l 751 452 q 732 588 751 532 q 680 680 713 644 q 600 731 646 715 q 498 747 554 747 q 416 735 455 747 q 345 700 378 723 q 309 669 326 686 q 278 632 292 652 l 267 734 l 96 734 l 96 0 m 485 -87 l 485 -40 l 356 -40 l 356 -89 q 343 -185 356 -140 q 305 -272 331 -229 l 382 -323 q 460 -212 435 -277 q 485 -87 485 -146 z "},"ñ":{"ha":833,"x_min":96,"x_max":751,"o":"m 96 0 l 285 0 l 285 522 q 306 549 294 536 q 332 570 317 561 q 372 588 349 582 q 422 594 395 594 q 480 588 454 594 q 524 565 506 581 q 552 520 543 549 q 562 449 562 492 l 562 0 l 751 0 l 751 452 q 732 588 751 532 q 680 680 713 644 q 600 731 646 715 q 498 747 554 747 q 416 735 455 747 q 345 700 378 723 q 309 669 326 686 q 278 632 292 652 l 267 734 l 96 734 l 96 0 m 659 1044 l 564 1065 q 559 1039 564 1050 q 547 1019 555 1027 q 527 1004 539 1009 q 503 999 515 999 q 454 1008 477 999 q 408 1029 431 1017 q 361 1049 385 1040 q 311 1058 338 1058 q 251 1043 277 1058 q 205 1004 224 1028 q 175 951 186 981 q 165 891 165 921 l 260 871 q 264 899 260 886 q 278 920 269 911 q 297 933 286 928 q 320 937 308 937 q 368 928 347 937 q 410 908 389 919 q 455 887 431 897 q 512 878 479 878 q 572 892 545 878 q 618 930 599 907 q 648 983 637 954 q 659 1044 659 1013 z "},"ó":{"ha":833,"x_min":70,"x_max":762,"o":"m 70 374 l 70 359 q 93 211 70 279 q 161 92 116 142 q 270 14 205 42 q 417 -14 334 -14 q 564 14 499 -14 q 672 92 628 42 q 739 211 716 142 q 762 359 762 279 l 762 374 q 739 522 762 454 q 672 640 716 590 q 563 719 627 690 q 416 747 498 747 q 269 719 333 747 q 161 640 205 690 q 93 522 116 590 q 70 374 70 454 m 258 359 l 258 374 q 267 458 258 418 q 295 529 276 498 q 344 577 314 559 q 416 595 374 595 q 488 577 458 595 q 537 529 518 559 q 564 458 555 498 q 573 374 573 418 l 573 359 q 564 273 573 313 q 537 203 555 233 q 488 155 518 172 q 417 137 458 137 q 344 155 374 137 q 295 203 314 172 q 267 273 276 233 q 258 359 258 313 m 468 1018 l 341 829 l 488 829 l 675 1018 l 468 1018 z "},"ŏ":{"ha":833,"x_min":70,"x_max":762,"o":"m 70 374 l 70 359 q 93 211 70 279 q 161 92 116 142 q 270 14 205 42 q 417 -14 334 -14 q 564 14 499 -14 q 672 92 628 42 q 739 211 716 142 q 762 359 762 279 l 762 374 q 739 522 762 454 q 672 640 716 590 q 563 719 627 690 q 416 747 498 747 q 269 719 333 747 q 161 640 205 690 q 93 522 116 590 q 70 374 70 454 m 258 359 l 258 374 q 267 458 258 418 q 295 529 276 498 q 344 577 314 559 q 416 595 374 595 q 488 577 458 595 q 537 529 518 559 q 564 458 555 498 q 573 374 573 418 l 573 359 q 564 273 573 313 q 537 203 555 233 q 488 155 518 172 q 417 137 458 137 q 344 155 374 137 q 295 203 314 172 q 267 273 276 233 q 258 359 258 313 m 652 1041 l 516 1041 q 511 1007 516 1023 q 495 978 506 990 q 466 958 484 965 q 422 950 448 950 q 377 958 395 950 q 348 978 359 965 q 331 1007 336 990 q 326 1041 326 1023 l 191 1041 q 207 960 191 997 q 253 898 222 924 q 326 857 283 871 q 422 842 368 842 q 517 857 475 842 q 591 898 560 871 q 636 960 621 924 q 652 1041 652 997 z "},"ô":{"ha":833,"x_min":70,"x_max":762,"o":"m 70 374 l 70 359 q 93 211 70 279 q 161 92 116 142 q 270 14 205 42 q 417 -14 334 -14 q 564 14 499 -14 q 672 92 628 42 q 739 211 716 142 q 762 359 762 279 l 762 374 q 739 522 762 454 q 672 640 716 590 q 563 719 627 690 q 416 747 498 747 q 269 719 333 747 q 161 640 205 690 q 93 522 116 590 q 70 374 70 454 m 258 359 l 258 374 q 267 458 258 418 q 295 529 276 498 q 344 577 314 559 q 416 595 374 595 q 488 577 458 595 q 537 529 518 559 q 564 458 555 498 q 573 374 573 418 l 573 359 q 564 273 573 313 q 537 203 555 233 q 488 155 518 172 q 417 137 458 137 q 344 155 374 137 q 295 203 314 172 q 267 273 276 233 q 258 359 258 313 m 675 882 l 475 1046 l 366 1046 l 170 883 l 170 863 l 317 863 l 420 949 l 525 863 l 675 863 l 675 882 z "},"ö":{"ha":833,"x_min":70,"x_max":762,"o":"m 70 374 l 70 359 q 93 211 70 279 q 161 92 116 142 q 270 14 205 42 q 417 -14 334 -14 q 564 14 499 -14 q 672 92 628 42 q 739 211 716 142 q 762 359 762 279 l 762 374 q 739 522 762 454 q 672 640 716 590 q 563 719 627 690 q 416 747 498 747 q 269 719 333 747 q 161 640 205 690 q 93 522 116 590 q 70 374 70 454 m 258 359 l 258 374 q 267 458 258 418 q 295 529 276 498 q 344 577 314 559 q 416 595 374 595 q 488 577 458 595 q 537 529 518 559 q 564 458 555 498 q 573 374 573 418 l 573 359 q 564 273 573 313 q 537 203 555 233 q 488 155 518 172 q 417 137 458 137 q 344 155 374 137 q 295 203 314 172 q 267 273 276 233 q 258 359 258 313 m 162 944 q 188 884 162 908 q 254 860 214 860 q 320 884 294 860 q 347 944 347 908 q 321 1004 347 979 q 254 1029 295 1029 q 188 1004 214 1029 q 162 944 162 979 m 488 944 q 513 883 488 907 q 580 859 539 859 q 646 883 621 859 q 672 944 672 907 q 647 1003 672 979 q 580 1028 621 1028 q 513 1003 538 1028 q 488 944 488 979 z "},"ò":{"ha":833,"x_min":70,"x_max":762,"o":"m 70 374 l 70 359 q 93 211 70 279 q 161 92 116 142 q 270 14 205 42 q 417 -14 334 -14 q 564 14 499 -14 q 672 92 628 42 q 739 211 716 142 q 762 359 762 279 l 762 374 q 739 522 762 454 q 672 640 716 590 q 563 719 627 690 q 416 747 498 747 q 269 719 333 747 q 161 640 205 690 q 93 522 116 590 q 70 374 70 454 m 258 359 l 258 374 q 267 458 258 418 q 295 529 276 498 q 344 577 314 559 q 416 595 374 595 q 488 577 458 595 q 537 529 518 559 q 564 458 555 498 q 573 374 573 418 l 573 359 q 564 273 573 313 q 537 203 555 233 q 488 155 518 172 q 417 137 458 137 q 344 155 374 137 q 295 203 314 172 q 267 273 276 233 q 258 359 258 313 m 497 831 l 377 1020 l 170 1020 l 349 831 l 497 831 z "},"ơ":{"ha":833,"x_min":64,"x_max":807,"o":"m 64 374 l 64 359 q 87 211 64 279 q 155 92 111 142 q 264 14 199 42 q 412 -14 329 -14 q 558 14 494 -14 q 667 92 623 42 q 734 211 711 142 q 757 359 757 279 l 757 374 q 744 486 757 433 q 706 584 731 539 q 749 620 730 599 q 781 668 768 642 q 800 728 793 695 q 807 800 807 761 l 676 800 q 673 753 676 774 q 664 715 670 732 q 651 691 659 702 q 635 671 644 680 q 536 727 593 707 q 410 747 480 747 q 263 719 328 747 q 155 640 199 690 q 87 522 111 590 q 64 374 64 454 m 253 359 l 253 374 q 262 458 253 418 q 290 529 271 498 q 338 577 309 559 q 410 595 368 595 q 483 577 453 595 q 532 529 513 559 q 559 458 550 498 q 568 374 568 418 l 568 359 q 559 273 568 313 q 532 203 550 233 q 483 155 513 172 q 412 137 453 137 q 339 155 369 137 q 290 203 309 172 q 262 273 271 233 q 253 359 253 313 z "},"ő":{"ha":833,"x_min":70,"x_max":802,"o":"m 70 374 l 70 359 q 93 211 70 279 q 161 92 116 142 q 270 14 205 42 q 417 -14 334 -14 q 564 14 499 -14 q 672 92 628 42 q 739 211 716 142 q 762 359 762 279 l 762 374 q 739 522 762 454 q 672 640 716 590 q 563 719 627 690 q 416 747 498 747 q 269 719 333 747 q 161 640 205 690 q 93 522 116 590 q 70 374 70 454 m 258 359 l 258 374 q 267 458 258 418 q 295 529 276 498 q 344 577 314 559 q 416 595 374 595 q 488 577 458 595 q 537 529 518 559 q 564 458 555 498 q 573 374 573 418 l 573 359 q 564 273 573 313 q 537 203 555 233 q 488 155 518 172 q 417 137 458 137 q 344 155 374 137 q 295 203 314 172 q 267 273 276 233 q 258 359 258 313 m 616 1048 l 450 868 l 594 868 l 802 1048 l 616 1048 m 368 1048 l 230 868 l 370 868 l 545 1048 l 368 1048 z "},"ō":{"ha":833,"x_min":70,"x_max":762,"o":"m 70 374 l 70 359 q 93 211 70 279 q 161 92 116 142 q 270 14 205 42 q 417 -14 334 -14 q 564 14 499 -14 q 672 92 628 42 q 739 211 716 142 q 762 359 762 279 l 762 374 q 739 522 762 454 q 672 640 716 590 q 563 719 627 690 q 416 747 498 747 q 269 719 333 747 q 161 640 205 690 q 93 522 116 590 q 70 374 70 454 m 258 359 l 258 374 q 267 458 258 418 q 295 529 276 498 q 344 577 314 559 q 416 595 374 595 q 488 577 458 595 q 537 529 518 559 q 564 458 555 498 q 573 374 573 418 l 573 359 q 564 273 573 313 q 537 203 555 233 q 488 155 518 172 q 417 137 458 137 q 344 155 374 137 q 295 203 314 172 q 267 273 276 233 q 258 359 258 313 m 670 876 l 670 987 l 175 987 l 175 876 l 670 876 z "},"ø":{"ha":833,"x_min":70,"x_max":762,"o":"m 70 374 l 70 359 q 106 176 70 258 q 213 45 143 94 l 144 -96 l 250 -96 l 298 3 q 356 -10 326 -5 q 417 -14 385 -14 q 564 14 499 -14 q 672 92 628 42 q 739 211 716 142 q 762 359 762 279 l 762 374 q 751 479 762 429 q 719 571 741 529 q 680 630 703 603 q 629 680 658 658 l 700 824 l 593 824 l 545 726 q 484 742 516 736 q 416 747 451 747 q 269 719 333 747 q 161 640 205 690 q 93 522 116 590 q 70 374 70 454 m 258 359 l 258 374 q 267 458 258 418 q 295 529 276 498 q 344 577 314 559 q 416 595 374 595 q 448 592 433 595 q 475 583 463 589 l 292 207 q 266 276 274 237 q 258 359 258 315 m 573 374 l 573 359 q 564 273 573 313 q 537 203 555 233 q 488 155 518 172 q 417 137 458 137 q 392 139 404 137 q 368 144 380 141 l 547 511 q 557 483 553 498 q 566 452 562 468 q 571 414 570 434 q 573 374 573 395 z "},"ǿ":{"ha":833,"x_min":70,"x_max":762,"o":"m 70 374 l 70 359 q 106 176 70 258 q 213 45 143 94 l 144 -96 l 250 -96 l 298 3 q 356 -10 326 -5 q 417 -14 385 -14 q 564 14 499 -14 q 672 92 628 42 q 739 211 716 142 q 762 359 762 279 l 762 374 q 751 479 762 429 q 719 571 741 529 q 680 630 703 603 q 629 680 658 658 l 700 824 l 593 824 l 545 726 q 484 742 516 736 q 416 747 451 747 q 269 719 333 747 q 161 640 205 690 q 93 522 116 590 q 70 374 70 454 m 258 359 l 258 374 q 267 458 258 418 q 295 529 276 498 q 344 577 314 559 q 416 595 374 595 q 448 592 433 595 q 475 583 463 589 l 292 207 q 266 276 274 237 q 258 359 258 315 m 573 374 l 573 359 q 564 273 573 313 q 537 203 555 233 q 488 155 518 172 q 417 137 458 137 q 392 139 404 137 q 368 144 380 141 l 547 511 q 557 483 553 498 q 566 452 562 468 q 571 414 570 434 q 573 374 573 395 m 439 1015 l 313 826 l 459 826 l 647 1015 l 439 1015 z "},"õ":{"ha":833,"x_min":70,"x_max":762,"o":"m 70 374 l 70 359 q 93 211 70 279 q 161 92 116 142 q 270 14 205 42 q 417 -14 334 -14 q 564 14 499 -14 q 672 92 628 42 q 739 211 716 142 q 762 359 762 279 l 762 374 q 739 522 762 454 q 672 640 716 590 q 563 719 627 690 q 416 747 498 747 q 269 719 333 747 q 161 640 205 690 q 93 522 116 590 q 70 374 70 454 m 258 359 l 258 374 q 267 458 258 418 q 295 529 276 498 q 344 577 314 559 q 416 595 374 595 q 488 577 458 595 q 537 529 518 559 q 564 458 555 498 q 573 374 573 418 l 573 359 q 564 273 573 313 q 537 203 555 233 q 488 155 518 172 q 417 137 458 137 q 344 155 374 137 q 295 203 314 172 q 267 273 276 233 q 258 359 258 313 m 667 1044 l 572 1065 q 568 1039 572 1050 q 556 1019 564 1027 q 536 1004 548 1009 q 511 999 524 999 q 463 1008 486 999 q 417 1029 439 1017 q 370 1049 394 1040 q 319 1058 347 1058 q 259 1043 286 1058 q 214 1004 233 1028 q 184 951 195 981 q 174 891 174 921 l 269 871 q 273 899 269 886 q 287 920 278 911 q 306 933 295 928 q 329 937 317 937 q 376 928 355 937 q 419 908 397 919 q 464 887 440 897 q 521 878 488 878 q 581 892 554 878 q 627 930 608 907 q 657 983 646 954 q 667 1044 667 1013 z "},"ŕ":{"ha":833,"x_min":195,"x_max":760,"o":"m 623 747 q 486 712 549 747 q 379 614 424 676 l 378 630 l 370 734 l 195 734 l 195 0 l 383 0 l 383 441 q 416 495 396 472 q 463 533 435 518 q 516 552 486 546 q 582 559 545 559 q 656 554 617 559 q 732 541 695 550 l 760 729 q 702 742 738 736 q 623 747 665 747 m 441 1018 l 314 829 l 460 829 l 648 1018 l 441 1018 z "},"ř":{"ha":833,"x_min":134,"x_max":760,"o":"m 623 747 q 486 712 549 747 q 379 614 424 676 l 378 630 l 370 734 l 195 734 l 195 0 l 383 0 l 383 441 q 416 495 396 472 q 463 533 435 518 q 516 552 486 546 q 582 559 545 559 q 656 554 617 559 q 732 541 695 550 l 760 729 q 702 742 738 736 q 623 747 665 747 m 393 962 l 294 1047 l 134 1047 l 134 1034 l 334 863 l 453 863 l 654 1034 l 654 1047 l 493 1047 l 393 962 z "},"ŗ":{"ha":833,"x_min":181,"x_max":760,"o":"m 623 747 q 486 712 549 747 q 379 614 424 676 l 378 630 l 370 734 l 195 734 l 195 0 l 383 0 l 383 441 q 416 495 396 472 q 463 533 435 518 q 516 552 486 546 q 582 559 545 559 q 656 554 617 559 q 732 541 695 550 l 760 729 q 702 742 738 736 q 623 747 665 747 m 361 -87 l 361 -40 l 232 -40 l 232 -89 q 219 -185 232 -140 q 181 -272 207 -229 l 258 -323 q 336 -212 311 -277 q 361 -87 361 -146 z "},"ś":{"ha":833,"x_min":83,"x_max":752,"o":"m 569 201 q 561 170 569 184 q 535 145 552 156 q 490 128 517 134 q 426 121 463 121 q 367 127 395 121 q 315 147 338 134 q 279 181 293 160 q 262 233 264 203 l 83 233 q 105 143 83 188 q 170 64 127 99 q 276 7 212 29 q 422 -14 339 -14 q 558 2 497 -14 q 663 49 619 19 q 729 120 705 79 q 752 210 752 161 q 729 301 752 262 q 664 366 705 339 q 566 410 623 393 q 442 437 509 427 q 366 453 396 444 q 319 474 336 463 q 295 499 302 485 q 288 529 288 513 q 296 560 288 545 q 319 585 304 574 q 361 604 335 597 q 421 611 387 611 q 491 601 462 611 q 536 574 519 591 q 555 545 549 561 q 561 511 561 529 l 749 511 q 727 605 749 562 q 663 680 705 648 q 559 729 620 711 q 421 747 498 747 q 290 729 348 747 q 191 680 231 711 q 128 607 150 648 q 106 520 106 566 q 128 437 106 473 q 187 374 149 401 q 278 327 225 347 q 396 295 332 308 q 480 276 447 286 q 534 256 513 267 q 561 231 553 244 q 569 201 569 218 m 448 1018 l 321 829 l 468 829 l 656 1018 l 448 1018 z "},"š":{"ha":833,"x_min":83,"x_max":752,"o":"m 569 201 q 561 170 569 184 q 535 145 552 156 q 490 128 517 134 q 426 121 463 121 q 367 127 395 121 q 315 147 338 134 q 279 181 293 160 q 262 233 264 203 l 83 233 q 105 143 83 188 q 170 64 127 99 q 276 7 212 29 q 422 -14 339 -14 q 558 2 497 -14 q 663 49 619 19 q 729 120 705 79 q 752 210 752 161 q 729 301 752 262 q 664 366 705 339 q 566 410 623 393 q 442 437 509 427 q 366 453 396 444 q 319 474 336 463 q 295 499 302 485 q 288 529 288 513 q 296 560 288 545 q 319 585 304 574 q 361 604 335 597 q 421 611 387 611 q 491 601 462 611 q 536 574 519 591 q 555 545 549 561 q 561 511 561 529 l 749 511 q 727 605 749 562 q 663 680 705 648 q 559 729 620 711 q 421 747 498 747 q 290 729 348 747 q 191 680 231 711 q 128 607 150 648 q 106 520 106 566 q 128 437 106 473 q 187 374 149 401 q 278 327 225 347 q 396 295 332 308 q 480 276 447 286 q 534 256 513 267 q 561 231 553 244 q 569 201 569 218 m 401 962 l 302 1047 l 141 1047 l 141 1034 l 342 863 l 460 863 l 661 1034 l 661 1047 l 500 1047 l 401 962 z "},"ş":{"ha":833,"x_min":83,"x_max":752,"o":"m 569 201 q 561 170 569 184 q 535 145 552 156 q 490 128 517 134 q 426 121 463 121 q 367 127 395 121 q 315 147 338 134 q 279 181 293 160 q 262 233 264 203 l 83 233 q 105 143 83 188 q 170 64 127 99 q 276 7 212 29 q 422 -14 339 -14 q 558 2 497 -14 q 663 49 619 19 q 729 120 705 79 q 752 210 752 161 q 729 301 752 262 q 664 366 705 339 q 566 410 623 393 q 442 437 509 427 q 366 453 396 444 q 319 474 336 463 q 295 499 302 485 q 288 529 288 513 q 296 560 288 545 q 319 585 304 574 q 361 604 335 597 q 421 611 387 611 q 491 601 462 611 q 536 574 519 591 q 555 545 549 561 q 561 511 561 529 l 749 511 q 727 605 749 562 q 663 680 705 648 q 559 729 620 711 q 421 747 498 747 q 290 729 348 747 q 191 680 231 711 q 128 607 150 648 q 106 520 106 566 q 128 437 106 473 q 187 374 149 401 q 278 327 225 347 q 396 295 332 308 q 480 276 447 286 q 534 256 513 267 q 561 231 553 244 q 569 201 569 218 m 473 -3 l 333 -3 l 312 -98 q 357 -103 338 -100 q 388 -113 376 -106 q 405 -129 399 -119 q 410 -152 410 -138 q 404 -178 410 -168 q 387 -196 397 -189 q 361 -205 376 -202 q 330 -208 347 -208 l 334 -317 q 435 -305 392 -317 q 509 -273 479 -294 q 553 -223 538 -252 q 568 -158 568 -194 q 559 -108 568 -129 q 536 -73 550 -87 q 503 -52 522 -60 q 466 -41 485 -44 l 473 -3 z "},"ŝ":{"ha":833,"x_min":83,"x_max":752,"o":"m 569 201 q 561 170 569 184 q 535 145 552 156 q 490 128 517 134 q 426 121 463 121 q 367 127 395 121 q 315 147 338 134 q 279 181 293 160 q 262 233 264 203 l 83 233 q 105 143 83 188 q 170 64 127 99 q 276 7 212 29 q 422 -14 339 -14 q 558 2 497 -14 q 663 49 619 19 q 729 120 705 79 q 752 210 752 161 q 729 301 752 262 q 664 366 705 339 q 566 410 623 393 q 442 437 509 427 q 366 453 396 444 q 319 474 336 463 q 295 499 302 485 q 288 529 288 513 q 296 560 288 545 q 319 585 304 574 q 361 604 335 597 q 421 611 387 611 q 491 601 462 611 q 536 574 519 591 q 555 545 549 561 q 561 511 561 529 l 749 511 q 727 605 749 562 q 663 680 705 648 q 559 729 620 711 q 421 747 498 747 q 290 729 348 747 q 191 680 231 711 q 128 607 150 648 q 106 520 106 566 q 128 437 106 473 q 187 374 149 401 q 278 327 225 347 q 396 295 332 308 q 480 276 447 286 q 534 256 513 267 q 561 231 553 244 q 569 201 569 218 m 655 882 l 456 1046 l 347 1046 l 150 883 l 150 863 l 297 863 l 401 949 l 505 863 l 655 863 l 655 882 z "},"ŧ":{"ha":833,"x_min":85,"x_max":747,"o":"m 441 913 l 253 913 l 253 734 l 85 734 l 85 595 l 253 595 l 253 488 l 121 488 l 121 366 l 253 366 l 253 261 q 272 137 253 189 q 326 52 291 85 q 410 2 361 18 q 519 -14 459 -14 q 583 -11 551 -14 q 645 -3 615 -8 q 701 11 675 3 q 747 31 728 20 l 729 161 q 698 154 716 157 q 660 148 680 151 q 616 142 639 144 q 572 140 593 140 q 518 147 542 140 q 477 170 494 154 q 451 213 460 186 q 441 279 441 239 l 441 366 l 590 366 l 590 488 l 441 488 l 441 595 l 715 595 l 715 734 l 441 734 l 441 913 z "},"ť":{"ha":833,"x_min":70,"x_max":819,"o":"m 426 911 l 237 911 l 237 732 l 70 732 l 70 593 l 237 593 l 237 259 q 256 135 237 186 q 311 50 275 83 q 394 0 345 16 q 504 -16 444 -16 q 567 -13 535 -16 q 629 -5 600 -10 q 686 9 659 1 q 732 29 712 18 l 713 159 q 683 152 701 155 q 644 146 665 149 q 601 140 623 142 q 556 138 578 138 q 502 145 526 138 q 461 168 478 152 q 435 211 444 184 q 426 277 426 237 l 426 593 l 700 593 l 700 732 l 426 732 l 426 911 m 819 1049 l 819 1166 l 667 1166 l 667 1049 q 651 932 667 983 q 608 838 634 882 l 694 784 q 743 839 721 808 q 783 906 766 871 q 809 978 800 941 q 819 1049 819 1015 z "},"ú":{"ha":833,"x_min":102,"x_max":745,"o":"m 574 0 l 745 0 l 745 734 l 556 734 l 556 219 q 535 187 547 201 q 507 163 523 173 q 465 145 489 151 q 411 139 441 139 q 355 147 378 139 q 317 174 332 155 q 297 223 303 193 q 290 298 290 254 l 290 734 l 102 734 l 102 300 q 120 157 102 216 q 173 60 139 98 q 254 3 207 21 q 359 -14 302 -14 q 474 17 421 -14 q 564 103 526 48 l 574 0 m 469 1004 l 342 814 l 489 814 l 677 1004 l 469 1004 z "},"ŭ":{"ha":833,"x_min":102,"x_max":745,"o":"m 574 0 l 745 0 l 745 734 l 556 734 l 556 219 q 535 187 547 201 q 507 163 523 173 q 465 145 489 151 q 411 139 441 139 q 355 147 378 139 q 317 174 332 155 q 297 223 303 193 q 290 298 290 254 l 290 734 l 102 734 l 102 300 q 120 157 102 216 q 173 60 139 98 q 254 3 207 21 q 359 -14 302 -14 q 474 17 421 -14 q 564 103 526 48 l 574 0 m 654 1027 l 517 1027 q 512 992 517 1009 q 496 964 507 976 q 467 943 485 951 q 423 936 449 936 q 379 943 397 936 q 349 964 361 951 q 333 992 338 976 q 328 1027 328 1009 l 192 1027 q 208 946 192 983 q 254 884 224 909 q 327 843 284 857 q 423 828 370 828 q 519 843 476 828 q 592 884 562 857 q 638 946 622 909 q 654 1027 654 983 z "},"û":{"ha":833,"x_min":102,"x_max":745,"o":"m 574 0 l 745 0 l 745 734 l 556 734 l 556 219 q 535 187 547 201 q 507 163 523 173 q 465 145 489 151 q 411 139 441 139 q 355 147 378 139 q 317 174 332 155 q 297 223 303 193 q 290 298 290 254 l 290 734 l 102 734 l 102 300 q 120 157 102 216 q 173 60 139 98 q 254 3 207 21 q 359 -14 302 -14 q 474 17 421 -14 q 564 103 526 48 l 574 0 m 676 867 l 477 1032 l 368 1032 l 171 869 l 171 848 l 318 848 l 422 935 l 526 848 l 676 848 l 676 867 z "},"ü":{"ha":833,"x_min":102,"x_max":745,"o":"m 574 0 l 745 0 l 745 734 l 556 734 l 556 219 q 535 187 547 201 q 507 163 523 173 q 465 145 489 151 q 411 139 441 139 q 355 147 378 139 q 317 174 332 155 q 297 223 303 193 q 290 298 290 254 l 290 734 l 102 734 l 102 300 q 120 157 102 216 q 173 60 139 98 q 254 3 207 21 q 359 -14 302 -14 q 474 17 421 -14 q 564 103 526 48 l 574 0 m 163 930 q 190 870 163 894 q 256 846 216 846 q 322 870 296 846 q 348 930 348 894 q 322 990 348 965 q 256 1015 296 1015 q 189 990 215 1015 q 163 930 163 965 m 489 930 q 515 869 489 893 q 581 844 541 844 q 648 869 622 844 q 673 930 673 893 q 648 989 673 964 q 581 1014 623 1014 q 514 989 540 1014 q 489 930 489 964 z "},"ù":{"ha":833,"x_min":102,"x_max":745,"o":"m 574 0 l 745 0 l 745 734 l 556 734 l 556 219 q 535 187 547 201 q 507 163 523 173 q 465 145 489 151 q 411 139 441 139 q 355 147 378 139 q 317 174 332 155 q 297 223 303 193 q 290 298 290 254 l 290 734 l 102 734 l 102 300 q 120 157 102 216 q 173 60 139 98 q 254 3 207 21 q 359 -14 302 -14 q 474 17 421 -14 q 564 103 526 48 l 574 0 m 498 817 l 378 1006 l 171 1006 l 350 817 l 498 817 z "},"ư":{"ha":833,"x_min":80,"x_max":932,"o":"m 932 799 l 798 799 q 792 730 798 760 q 774 678 787 700 q 752 653 765 664 q 724 635 740 643 l 724 734 l 534 734 l 534 219 q 515 189 526 203 q 489 165 504 176 q 446 146 471 153 q 389 139 420 139 q 333 147 356 139 q 296 174 310 155 q 275 223 281 193 q 269 298 269 254 l 269 734 l 80 734 l 80 300 q 99 157 80 216 q 151 60 117 98 q 233 3 185 21 q 337 -14 280 -14 q 452 17 399 -14 q 542 103 505 48 l 553 0 l 724 0 l 724 521 q 881 606 829 538 q 932 799 932 674 z "},"ű":{"ha":833,"x_min":102,"x_max":803,"o":"m 574 0 l 745 0 l 745 734 l 556 734 l 556 219 q 535 187 547 201 q 507 163 523 173 q 465 145 489 151 q 411 139 441 139 q 355 147 378 139 q 317 174 332 155 q 297 223 303 193 q 290 298 290 254 l 290 734 l 102 734 l 102 300 q 120 157 102 216 q 173 60 139 98 q 254 3 207 21 q 359 -14 302 -14 q 474 17 421 -14 q 564 103 526 48 l 574 0 m 618 1034 l 452 854 l 595 854 l 803 1034 l 618 1034 m 369 1034 l 231 854 l 371 854 l 546 1034 l 369 1034 z "},"ū":{"ha":833,"x_min":102,"x_max":745,"o":"m 574 0 l 745 0 l 745 734 l 556 734 l 556 219 q 535 187 547 201 q 507 163 523 173 q 465 145 489 151 q 411 139 441 139 q 355 147 378 139 q 317 174 332 155 q 297 223 303 193 q 290 298 290 254 l 290 734 l 102 734 l 102 300 q 120 157 102 216 q 173 60 139 98 q 254 3 207 21 q 359 -14 302 -14 q 474 17 421 -14 q 564 103 526 48 l 574 0 m 671 863 l 671 974 l 176 974 l 176 863 l 671 863 z "},"ų":{"ha":833,"x_min":102,"x_max":760,"o":"m 732 0 l 745 0 l 745 734 l 556 734 l 556 219 q 537 190 548 203 q 512 166 526 176 q 468 146 493 153 q 411 139 443 139 q 355 147 378 139 q 317 174 332 155 q 297 223 303 193 q 290 298 290 254 l 290 734 l 102 734 l 102 300 q 120 157 102 216 q 173 60 139 98 q 254 3 207 21 q 359 -14 302 -14 q 474 17 421 -14 q 564 103 526 48 l 574 8 q 541 -20 555 -5 q 515 -50 526 -35 q 492 -98 500 -73 q 484 -147 484 -123 q 495 -208 484 -182 q 528 -252 507 -234 q 575 -278 548 -269 q 634 -288 603 -288 q 711 -278 681 -288 q 760 -258 741 -268 l 728 -153 q 705 -162 719 -157 q 672 -167 692 -167 q 637 -154 647 -167 q 627 -121 627 -140 q 632 -86 627 -102 q 649 -54 637 -69 q 682 -26 661 -39 q 732 0 702 -12 z "},"ů":{"ha":833,"x_min":102,"x_max":745,"o":"m 574 0 l 745 0 l 745 734 l 556 734 l 556 219 q 535 187 547 201 q 507 163 523 173 q 465 145 489 151 q 411 139 441 139 q 355 147 378 139 q 317 174 332 155 q 297 223 303 193 q 290 298 290 254 l 290 734 l 102 734 l 102 300 q 120 157 102 216 q 173 60 139 98 q 254 3 207 21 q 359 -14 302 -14 q 474 17 421 -14 q 564 103 526 48 l 574 0 m 278 942 q 289 889 278 913 q 320 848 300 865 q 366 821 340 831 q 422 812 393 812 q 478 821 452 812 q 523 848 504 831 q 553 889 542 865 q 564 942 564 913 q 553 995 564 970 q 523 1037 542 1019 q 478 1065 504 1055 q 422 1075 452 1075 q 366 1065 393 1075 q 320 1037 340 1055 q 289 995 300 1019 q 278 942 278 970 m 355 942 q 360 969 355 957 q 374 990 366 981 q 395 1005 382 1000 q 422 1010 408 1010 q 449 1005 437 1010 q 469 991 460 1000 q 482 970 477 983 q 487 942 487 957 q 482 914 487 926 q 467 892 477 901 q 448 880 459 884 q 422 876 436 876 q 396 880 408 876 q 375 893 384 885 q 361 915 366 902 q 355 942 355 927 z "},"ũ":{"ha":833,"x_min":102,"x_max":745,"o":"m 574 0 l 745 0 l 745 734 l 556 734 l 556 219 q 535 187 547 201 q 507 163 523 173 q 465 145 489 151 q 411 139 441 139 q 355 147 378 139 q 317 174 332 155 q 297 223 303 193 q 290 298 290 254 l 290 734 l 102 734 l 102 300 q 120 157 102 216 q 173 60 139 98 q 254 3 207 21 q 359 -14 302 -14 q 474 17 421 -14 q 564 103 526 48 l 574 0 m 669 1029 l 574 1050 q 569 1024 574 1036 q 557 1004 565 1013 q 537 990 549 995 q 513 985 526 985 q 464 994 487 985 q 418 1015 441 1003 q 372 1035 395 1025 q 321 1044 348 1044 q 261 1029 288 1044 q 215 990 234 1014 q 185 937 196 966 q 175 877 175 907 l 270 857 q 275 885 270 872 q 288 905 279 897 q 307 919 296 914 q 330 923 318 923 q 378 914 357 923 q 420 894 399 905 q 466 873 441 882 q 522 864 490 864 q 582 878 555 864 q 629 916 609 892 q 658 969 648 939 q 669 1029 669 999 z "},"ẃ":{"ha":833,"x_min":18,"x_max":802,"o":"m 150 0 l 315 0 l 393 392 l 408 467 l 424 392 l 505 0 l 670 0 l 802 734 l 629 734 l 574 301 l 565 230 l 552 300 l 473 734 l 347 734 l 267 298 l 254 228 l 245 298 l 191 734 l 18 734 l 150 0 m 456 1004 l 330 814 l 476 814 l 664 1004 l 456 1004 z "},"ŵ":{"ha":833,"x_min":18,"x_max":802,"o":"m 150 0 l 315 0 l 393 392 l 408 467 l 424 392 l 505 0 l 670 0 l 802 734 l 629 734 l 574 301 l 565 230 l 552 300 l 473 734 l 347 734 l 267 298 l 254 228 l 245 298 l 191 734 l 18 734 l 150 0 m 663 867 l 464 1032 l 355 1032 l 158 869 l 158 848 l 305 848 l 409 935 l 513 848 l 663 848 l 663 867 z "},"ẅ":{"ha":833,"x_min":18,"x_max":802,"o":"m 150 0 l 315 0 l 393 392 l 408 467 l 424 392 l 505 0 l 670 0 l 802 734 l 629 734 l 574 301 l 565 230 l 552 300 l 473 734 l 347 734 l 267 298 l 254 228 l 245 298 l 191 734 l 18 734 l 150 0 m 151 930 q 177 870 151 894 q 243 846 203 846 q 309 870 283 846 q 335 930 335 894 q 309 990 335 965 q 243 1015 283 1015 q 176 990 202 1015 q 151 930 151 965 m 476 930 q 502 869 476 893 q 568 844 528 844 q 635 869 609 844 q 661 930 661 893 q 635 989 661 964 q 568 1014 610 1014 q 502 989 527 1014 q 476 930 476 964 z "},"ẁ":{"ha":833,"x_min":18,"x_max":802,"o":"m 150 0 l 315 0 l 393 392 l 408 467 l 424 392 l 505 0 l 670 0 l 802 734 l 629 734 l 574 301 l 565 230 l 552 300 l 473 734 l 347 734 l 267 298 l 254 228 l 245 298 l 191 734 l 18 734 l 150 0 m 486 817 l 366 1006 l 158 1006 l 337 817 l 486 817 z "},"ý":{"ha":833,"x_min":35,"x_max":833,"o":"m 212 -296 q 310 -277 269 -296 q 381 -231 352 -258 q 430 -170 410 -203 q 461 -110 449 -138 l 833 734 l 625 734 l 458 302 l 430 229 l 410 304 l 241 734 l 35 734 l 346 31 l 302 -50 q 289 -73 294 -64 q 271 -97 283 -81 q 241 -127 258 -113 q 201 -141 224 -141 q 173 -140 191 -141 q 143 -139 155 -139 l 120 -283 q 164 -293 144 -290 q 212 -296 184 -296 m 486 1004 l 359 814 l 505 814 l 693 1004 l 486 1004 z "},"ŷ":{"ha":833,"x_min":35,"x_max":833,"o":"m 212 -296 q 310 -277 269 -296 q 381 -231 352 -258 q 430 -170 410 -203 q 461 -110 449 -138 l 833 734 l 625 734 l 458 302 l 430 229 l 410 304 l 241 734 l 35 734 l 346 31 l 302 -50 q 289 -73 294 -64 q 271 -97 283 -81 q 241 -127 258 -113 q 201 -141 224 -141 q 173 -140 191 -141 q 143 -139 155 -139 l 120 -283 q 164 -293 144 -290 q 212 -296 184 -296 m 692 867 l 493 1032 l 384 1032 l 187 869 l 187 848 l 334 848 l 438 935 l 543 848 l 692 848 l 692 867 z "},"ÿ":{"ha":833,"x_min":35,"x_max":833,"o":"m 212 -296 q 310 -277 269 -296 q 381 -231 352 -258 q 430 -170 410 -203 q 461 -110 449 -138 l 833 734 l 625 734 l 458 302 l 430 229 l 410 304 l 241 734 l 35 734 l 346 31 l 302 -50 q 289 -73 294 -64 q 271 -97 283 -81 q 241 -127 258 -113 q 201 -141 224 -141 q 173 -140 191 -141 q 143 -139 155 -139 l 120 -283 q 164 -293 144 -290 q 212 -296 184 -296 m 180 930 q 206 870 180 894 q 272 846 232 846 q 338 870 312 846 q 364 930 364 894 q 338 990 364 965 q 272 1015 313 1015 q 205 990 231 1015 q 180 930 180 965 m 505 930 q 531 869 505 893 q 597 844 557 844 q 664 869 638 844 q 690 930 690 893 q 664 989 690 964 q 597 1014 639 1014 q 531 989 556 1014 q 505 930 505 964 z "},"ỳ":{"ha":833,"x_min":35,"x_max":833,"o":"m 212 -296 q 310 -277 269 -296 q 381 -231 352 -258 q 430 -170 410 -203 q 461 -110 449 -138 l 833 734 l 625 734 l 458 302 l 430 229 l 410 304 l 241 734 l 35 734 l 346 31 l 302 -50 q 289 -73 294 -64 q 271 -97 283 -81 q 241 -127 258 -113 q 201 -141 224 -141 q 173 -140 191 -141 q 143 -139 155 -139 l 120 -283 q 164 -293 144 -290 q 212 -296 184 -296 m 515 817 l 395 1006 l 187 1006 l 366 817 l 515 817 z "},"ź":{"ha":833,"x_min":80,"x_max":770,"o":"m 338 151 l 753 621 l 753 734 l 90 734 l 90 581 l 491 581 l 80 117 l 80 0 l 770 0 l 770 151 l 338 151 m 493 1004 l 366 814 l 513 814 l 701 1004 l 493 1004 z "},"ž":{"ha":833,"x_min":80,"x_max":770,"o":"m 338 151 l 753 621 l 753 734 l 90 734 l 90 581 l 491 581 l 80 117 l 80 0 l 770 0 l 770 151 l 338 151 m 445 947 l 346 1033 l 185 1033 l 185 1019 l 386 848 l 505 848 l 705 1020 l 705 1033 l 545 1033 l 445 947 z "},"ż":{"ha":833,"x_min":80,"x_max":770,"o":"m 338 151 l 753 621 l 753 734 l 90 734 l 90 581 l 491 581 l 80 117 l 80 0 l 770 0 l 770 151 l 338 151 m 342 939 q 370 872 342 899 q 444 845 397 845 q 519 872 492 845 q 546 939 546 899 q 519 1007 546 981 q 444 1034 492 1034 q 370 1007 397 1034 q 342 939 342 981 z "},"`":{"ha":833,"x_min":279,"x_max":606,"o":"m 606 813 l 486 1002 l 279 1002 l 458 813 l 606 813 z "},"´":{"ha":833,"x_min":259,"x_max":593,"o":"m 386 1002 l 259 813 l 406 813 l 593 1002 l 386 1002 z "},"ˆ":{"ha":833,"x_min":87,"x_max":593,"o":"m 593 863 l 393 1028 l 284 1028 l 87 865 l 87 844 l 235 844 l 338 930 l 443 844 l 593 844 l 593 863 z "},"˜":{"ha":833,"x_min":87,"x_max":581,"o":"m 581 1025 l 486 1046 q 481 1020 486 1031 q 469 1000 477 1008 q 449 985 461 990 q 425 980 437 980 q 376 989 399 980 q 330 1010 353 998 q 283 1030 307 1021 q 233 1039 260 1039 q 173 1024 199 1039 q 127 985 146 1009 q 97 932 108 962 q 87 872 87 902 l 182 852 q 186 880 182 867 q 200 901 191 892 q 219 914 208 909 q 242 918 230 918 q 290 909 269 918 q 332 889 311 900 q 377 868 353 878 q 434 859 401 859 q 494 873 467 859 q 541 911 521 888 q 570 964 559 935 q 581 1025 581 994 z "},"¯":{"ha":833,"x_min":185,"x_max":680,"o":"m 680 876 l 680 987 l 185 987 l 185 876 l 680 876 z "},"˘":{"ha":833,"x_min":199,"x_max":661,"o":"m 661 978 l 524 978 q 519 944 524 960 q 503 915 514 927 q 474 895 492 902 q 430 887 456 887 q 386 895 404 887 q 356 915 368 902 q 339 944 345 927 q 334 978 334 960 l 199 978 q 215 897 199 934 q 261 835 231 861 q 334 794 291 808 q 430 779 376 779 q 526 794 483 779 q 599 835 568 808 q 645 897 629 861 q 661 978 661 934 z "},"˙":{"ha":833,"x_min":320,"x_max":524,"o":"m 320 924 q 347 857 320 884 q 422 830 374 830 q 496 857 469 830 q 524 924 524 884 q 496 992 524 966 q 422 1019 469 1019 q 347 992 374 1019 q 320 924 320 966 z "},"¨":{"ha":833,"x_min":180,"x_max":690,"o":"m 180 926 q 206 866 180 890 q 272 842 232 842 q 338 866 312 842 q 364 926 364 890 q 338 986 364 961 q 272 1010 313 1010 q 205 986 231 1010 q 180 926 180 961 m 505 926 q 531 865 505 889 q 597 840 557 840 q 664 865 638 840 q 690 926 690 889 q 664 985 690 960 q 597 1010 639 1010 q 531 985 556 1010 q 505 926 505 960 z "},"˚":{"ha":833,"x_min":273,"x_max":559,"o":"m 273 835 q 284 782 273 806 q 315 741 296 758 q 361 714 335 724 q 418 705 388 705 q 473 714 448 705 q 518 741 499 724 q 548 782 537 758 q 559 835 559 806 q 548 888 559 863 q 518 930 537 912 q 473 958 499 947 q 418 968 448 968 q 361 958 388 968 q 315 930 335 947 q 284 888 296 912 q 273 835 273 863 m 351 835 q 356 862 351 850 q 369 883 361 874 q 391 898 378 892 q 418 903 404 903 q 444 898 432 903 q 465 884 456 893 q 477 863 473 876 q 482 835 482 850 q 477 807 482 819 q 463 785 472 794 q 443 773 454 777 q 418 768 431 768 q 391 773 404 768 q 370 786 379 778 q 356 807 361 795 q 351 835 351 820 z "},"˝":{"ha":833,"x_min":142,"x_max":714,"o":"m 529 1029 l 363 850 l 507 850 l 714 1029 l 529 1029 m 280 1029 l 142 850 l 282 850 l 457 1029 l 280 1029 z "},"ˇ":{"ha":833,"x_min":169,"x_max":689,"o":"m 429 943 l 330 1029 l 169 1029 l 169 1015 l 370 844 l 488 844 l 689 1016 l 689 1029 l 528 1029 l 429 943 z "},"̣":{"ha":833,"x_min":-512,"x_max":-292,"o":"m -512 -152 q -483 -220 -512 -193 q -402 -247 -454 -247 q -322 -220 -352 -247 q -292 -152 -292 -193 q -322 -84 -292 -112 q -402 -56 -351 -56 q -483 -84 -454 -56 q -512 -152 -512 -112 z "},"¸":{"ha":833,"x_min":297,"x_max":553,"o":"m 458 3 l 318 3 l 297 -92 q 342 -97 323 -94 q 373 -107 361 -100 q 390 -123 385 -113 q 395 -146 395 -132 q 389 -172 395 -161 q 372 -190 382 -183 q 346 -199 361 -196 q 315 -202 332 -202 l 319 -311 q 420 -299 377 -311 q 494 -267 464 -288 q 538 -217 523 -246 q 553 -152 553 -188 q 544 -102 553 -123 q 521 -67 535 -81 q 488 -46 507 -54 q 451 -35 470 -38 l 458 3 z "},"˛":{"ha":833,"x_min":258,"x_max":535,"o":"m 507 0 l 404 41 q 351 10 374 27 q 310 -26 328 -7 q 271 -85 284 -54 q 258 -147 258 -116 q 270 -208 258 -182 q 302 -252 282 -234 q 350 -278 323 -269 q 409 -288 378 -288 q 486 -278 456 -288 q 535 -258 516 -268 l 503 -153 q 480 -162 494 -157 q 447 -167 467 -167 q 412 -154 422 -167 q 401 -121 401 -140 q 407 -86 401 -102 q 424 -54 412 -69 q 456 -26 436 -39 q 507 0 477 -12 z "},"":{"ha":833,"x_min":187,"x_max":367,"o":"m 367 123 l 367 170 l 238 170 l 238 121 q 225 25 238 69 q 187 -62 213 -20 l 264 -114 q 342 -2 317 -68 q 367 123 367 64 z "},"\r":{"ha":833,"x_min":0,"x_max":0,"o":""},"«":{"ha":833,"x_min":127,"x_max":698,"o":"m 277 334 l 441 605 l 318 605 l 127 340 l 127 328 l 318 63 l 441 63 l 277 334 m 534 334 l 698 605 l 575 605 l 384 340 l 384 328 l 575 63 l 698 63 l 534 334 z "},"µ":{"ha":833,"x_min":117,"x_max":762,"o":"m 305 734 l 117 734 l 117 -282 l 305 -282 l 305 18 q 361 -6 330 2 q 427 -14 391 -14 q 486 -7 458 -14 q 536 12 513 -1 q 560 29 549 20 q 582 49 572 38 l 586 0 l 762 0 l 762 734 l 572 734 l 572 212 q 555 187 565 199 q 533 167 546 176 q 489 146 515 153 q 431 139 464 139 q 380 146 403 139 q 340 172 357 153 q 314 225 323 191 q 305 313 305 259 l 305 734 z "},"»":{"ha":833,"x_min":154,"x_max":724,"o":"m 277 628 l 154 628 l 317 357 l 154 86 l 277 86 l 469 351 l 469 363 l 277 628 m 532 628 l 410 628 l 573 357 l 410 86 l 532 86 l 724 351 l 724 363 l 532 628 z "},"ı":{"ha":833,"x_min":135,"x_max":755,"o":"m 135 734 l 135 580 l 355 580 l 355 153 l 135 153 l 135 0 l 755 0 l 755 153 l 545 153 l 545 734 l 135 734 z "},"Ĳ":{"ha":833,"x_min":85,"x_max":747,"o":"m 221 0 l 221 987 l 85 987 l 85 0 l 221 0 m 612 987 l 612 218 q 607 167 612 190 q 592 129 603 144 q 562 104 581 113 q 515 96 543 96 q 450 125 475 96 q 426 218 426 154 l 290 218 q 307 115 290 159 q 354 43 323 72 q 425 1 384 15 q 515 -13 467 -13 q 618 3 574 -13 q 691 48 662 18 q 733 121 720 78 q 747 218 747 164 l 747 987 l 612 987 z "}}}
